<svg width="351" height="236" viewBox="0 0 351 236" fill="none" xmlns="http://www.w3.org/2000/svg">
<mask id="mask0" mask-type="alpha" maskUnits="userSpaceOnUse" x="0" y="0" width="351" height="236">
<rect x="0.5" y="0.5" width="350" height="235" fill="#C4C4C4" stroke="#E0E0E0"/>
</mask>
<g mask="url(#mask0)">
<rect width="351" height="236" fill="white"/>
<path d="M24.1406 98L30.668 81.1953H33.5977L40.125 98H37.2188L35.6836 94.0156H28.582L27.0469 98H24.1406ZM29.6133 91.3789H34.6523L32.1328 84.8281L29.6133 91.3789ZM41.707 103.52V86.6211H44.3672V88.1094C44.6641 87.6719 45.1094 87.2617 45.7031 86.8789C46.2578 86.5195 46.9727 86.3398 47.8477 86.3398C48.5508 86.3398 49.2422 86.4883 49.9219 86.7852C50.5938 87.0742 51.1797 87.4844 51.6797 88.0156C52.1719 88.5312 52.5742 89.1602 52.8867 89.9023C53.1914 90.6289 53.3438 91.4336 53.3438 92.3164C53.3438 93.1914 53.1914 93.9922 52.8867 94.7188C52.5742 95.4609 52.1719 96.0898 51.6797 96.6055C51.1719 97.1367 50.582 97.5508 49.9102 97.8477C49.2305 98.1445 48.5352 98.293 47.8242 98.293C47.3789 98.293 46.9688 98.2383 46.5938 98.1289C46.2344 98.0273 45.9219 97.8945 45.6562 97.7305C45.3359 97.5352 45.1133 97.3789 44.9883 97.2617C44.8164 97.0977 44.6836 96.9531 44.5898 96.8281V103.52H41.707ZM44.5898 94.0156C44.8242 94.4297 45.168 94.7969 45.6211 95.1172C46.0742 95.4375 46.6484 95.5977 47.3438 95.5977C48.2891 95.5977 49.0391 95.2852 49.5938 94.6602C50.1406 94.043 50.4141 93.2617 50.4141 92.3164C50.4141 91.3633 50.1406 90.5781 49.5938 89.9609C49.0391 89.3359 48.2891 89.0234 47.3438 89.0234C46.6484 89.0234 46.0742 89.1836 45.6211 89.5039C45.168 89.8242 44.8242 90.1914 44.5898 90.6055V94.0156ZM55.4648 103.52V86.6211H58.125V88.1094C58.4219 87.6719 58.8672 87.2617 59.4609 86.8789C60.0156 86.5195 60.7305 86.3398 61.6055 86.3398C62.3086 86.3398 63 86.4883 63.6797 86.7852C64.3516 87.0742 64.9375 87.4844 65.4375 88.0156C65.9297 88.5312 66.332 89.1602 66.6445 89.9023C66.9492 90.6289 67.1016 91.4336 67.1016 92.3164C67.1016 93.1914 66.9492 93.9922 66.6445 94.7188C66.332 95.4609 65.9297 96.0898 65.4375 96.6055C64.9297 97.1367 64.3398 97.5508 63.668 97.8477C62.9883 98.1445 62.293 98.293 61.582 98.293C61.1367 98.293 60.7266 98.2383 60.3516 98.1289C59.9922 98.0273 59.6797 97.8945 59.4141 97.7305C59.0938 97.5352 58.8711 97.3789 58.7461 97.2617C58.5742 97.0977 58.4414 96.9531 58.3477 96.8281V103.52H55.4648ZM58.3477 94.0156C58.582 94.4297 58.9258 94.7969 59.3789 95.1172C59.832 95.4375 60.4062 95.5977 61.1016 95.5977C62.0469 95.5977 62.7969 95.2852 63.3516 94.6602C63.8984 94.043 64.1719 93.2617 64.1719 92.3164C64.1719 91.3633 63.8984 90.5781 63.3516 89.9609C62.7969 89.3359 62.0469 89.0234 61.1016 89.0234C60.4062 89.0234 59.832 89.1836 59.3789 89.5039C58.9258 89.8242 58.582 90.1914 58.3477 90.6055V94.0156ZM69.5625 98V79.8594H72.4336V98H69.5625ZM76.1953 84.3008C75.8281 83.9336 75.6445 83.4844 75.6445 82.9531C75.6445 82.4219 75.8281 81.9727 76.1953 81.6055C76.5625 81.2383 77.0117 81.0547 77.543 81.0547C78.0664 81.0547 78.5117 81.2383 78.8789 81.6055C79.2461 81.9727 79.4297 82.4219 79.4297 82.9531C79.4297 83.4844 79.2461 83.9336 78.8789 84.3008C78.5117 84.668 78.0664 84.8516 77.543 84.8516C77.0117 84.8516 76.5625 84.668 76.1953 84.3008ZM76.1016 98V86.6211H78.9844V98H76.1016ZM81.5508 92.3164C81.5508 91.4883 81.7109 90.707 82.0312 89.9727C82.3516 89.2461 82.7891 88.6094 83.3438 88.0625C83.8906 87.5312 84.5391 87.1094 85.2891 86.7969C86.0312 86.4922 86.8281 86.3398 87.6797 86.3398C88.25 86.3398 88.7695 86.4023 89.2383 86.5273C89.7305 86.6602 90.1641 86.8281 90.5391 87.0312C90.9531 87.2578 91.3008 87.4844 91.582 87.7109C91.8789 87.9531 92.1289 88.1992 92.332 88.4492L90.3398 90.2188C90.0586 89.8906 89.6914 89.6133 89.2383 89.3867C88.7539 89.1445 88.2344 89.0234 87.6797 89.0234C87.2031 89.0234 86.7617 89.1133 86.3555 89.293C85.9414 89.4727 85.6055 89.7109 85.3477 90.0078C85.082 90.3125 84.8711 90.6602 84.7148 91.0508C84.5586 91.4492 84.4805 91.8711 84.4805 92.3164C84.4805 92.7539 84.5586 93.1758 84.7148 93.582C84.8711 93.9961 85.0859 94.3438 85.3594 94.625C85.6484 94.9297 85.9844 95.168 86.3672 95.3398C86.7422 95.5117 87.1875 95.5977 87.7031 95.5977C88.3672 95.5977 88.9414 95.4492 89.4258 95.1523C89.9023 94.8633 90.2539 94.5469 90.4805 94.2031L92.3789 96.125C92.1758 96.3828 91.9297 96.6328 91.6406 96.875C91.375 97.1016 91.0195 97.332 90.5742 97.5664C90.207 97.7617 89.7695 97.9336 89.2617 98.082C88.7852 98.2227 88.2578 98.293 87.6797 98.293C86.8125 98.293 86.0156 98.1367 85.2891 97.8242C84.5312 97.4961 83.8828 97.0703 83.3438 96.5469C82.7812 95.9922 82.3438 95.3594 82.0312 94.6484C81.7109 93.9141 81.5508 93.1367 81.5508 92.3164ZM94.0547 96.1016C93.8359 95.6406 93.7266 95.1211 93.7266 94.543C93.7266 93.9648 93.8438 93.4414 94.0781 92.9727C94.3203 92.4961 94.6367 92.0938 95.0273 91.7656C95.4258 91.4297 95.9062 91.168 96.4688 90.9805C97.0156 90.793 97.6133 90.6992 98.2617 90.6992C98.7852 90.6992 99.3281 90.7695 99.8906 90.9102C100.469 91.0586 100.957 91.2617 101.355 91.5195V90.875C101.355 90.4922 101.277 90.1797 101.121 89.9375C100.965 89.6953 100.762 89.4922 100.512 89.3281C100.262 89.1641 99.9961 89.0547 99.7148 89C99.4023 88.9375 99.1172 88.9062 98.8594 88.9062C98.4609 88.9062 97.9727 88.9688 97.3945 89.0938C96.7773 89.2266 96.1445 89.4414 95.4961 89.7383L94.5703 87.3711C95.1719 87.0898 95.8555 86.8477 96.6211 86.6445C97.3867 86.4414 98.2227 86.3398 99.1289 86.3398C100.715 86.3398 101.961 86.7227 102.867 87.4883C103.781 88.2617 104.238 89.293 104.238 90.582V98H101.578V96.5586C101.219 97.0508 100.707 97.4648 100.043 97.8008C99.3945 98.1289 98.6719 98.293 97.875 98.293C97.3594 98.293 96.8359 98.207 96.3047 98.0352C95.8047 97.8711 95.3594 97.625 94.9688 97.2969C94.5781 96.9688 94.2734 96.5703 94.0547 96.1016ZM96.6562 94.4258C96.6562 94.7383 96.7188 94.9844 96.8438 95.1641C96.9766 95.3594 97.1406 95.5078 97.3359 95.6094C97.5547 95.7266 97.7734 95.8008 97.9922 95.832C98.25 95.8711 98.4766 95.8906 98.6719 95.8906C99.3438 95.8906 99.8945 95.75 100.324 95.4688C100.746 95.1953 101.09 94.8945 101.355 94.5664V93.3945C100.965 93.1914 100.551 93.0469 100.113 92.9609C99.6445 92.8672 99.2266 92.8203 98.8594 92.8203C98.5938 92.8203 98.3398 92.8477 98.0977 92.9023C97.8164 92.9648 97.5781 93.0508 97.3828 93.1602C97.1719 93.2773 96.9961 93.4414 96.8555 93.6523C96.7227 93.8477 96.6562 94.1055 96.6562 94.4258ZM106.207 89.2109V86.6211H108.445V83.2344H111.316V86.6211H114.75V89.2109H111.316V93.8047C111.316 94.1484 111.363 94.4375 111.457 94.6719C111.559 94.9219 111.668 95.1055 111.785 95.2227C111.926 95.3555 112.082 95.4531 112.254 95.5156C112.418 95.5703 112.594 95.5977 112.781 95.5977C113.031 95.5977 113.258 95.5586 113.461 95.4805C113.664 95.4023 113.848 95.3047 114.012 95.1875L115.066 97.543C114.738 97.7617 114.328 97.9414 113.836 98.082C113.352 98.2227 112.855 98.293 112.348 98.293C111.809 98.293 111.289 98.1953 110.789 98C110.328 97.8203 109.914 97.5469 109.547 97.1797C109.18 96.8125 108.906 96.3906 108.727 95.9141C108.539 95.4219 108.445 94.8711 108.445 94.2617V89.2109H106.207ZM117.656 84.3008C117.289 83.9336 117.105 83.4844 117.105 82.9531C117.105 82.4219 117.289 81.9727 117.656 81.6055C118.023 81.2383 118.473 81.0547 119.004 81.0547C119.527 81.0547 119.973 81.2383 120.34 81.6055C120.707 81.9727 120.891 82.4219 120.891 82.9531C120.891 83.4844 120.707 83.9336 120.34 84.3008C119.973 84.668 119.527 84.8516 119.004 84.8516C118.473 84.8516 118.023 84.668 117.656 84.3008ZM117.562 98V86.6211H120.445V98H117.562ZM123.012 92.3164C123.012 91.4727 123.168 90.6914 123.48 89.9727C123.801 89.2305 124.234 88.5938 124.781 88.0625C125.328 87.5234 125.973 87.1016 126.715 86.7969C127.457 86.4922 128.246 86.3398 129.082 86.3398C129.934 86.3398 130.727 86.4922 131.461 86.7969C132.195 87.1016 132.84 87.5234 133.395 88.0625C133.941 88.5938 134.375 89.2305 134.695 89.9727C135.008 90.6914 135.164 91.4727 135.164 92.3164C135.164 93.1523 135.008 93.9297 134.695 94.6484C134.383 95.375 133.949 96.0078 133.395 96.5469C132.848 97.0781 132.203 97.5039 131.461 97.8242C130.734 98.1367 129.941 98.293 129.082 98.293C128.23 98.293 127.441 98.1367 126.715 97.8242C125.973 97.5039 125.328 97.0781 124.781 96.5469C124.234 96.0078 123.801 95.375 123.48 94.6484C123.168 93.9297 123.012 93.1523 123.012 92.3164ZM125.941 92.3164C125.941 92.7383 126.016 93.1602 126.164 93.582C126.305 93.9805 126.512 94.3281 126.785 94.625C127.059 94.9219 127.391 95.1602 127.781 95.3398C128.156 95.5117 128.59 95.5977 129.082 95.5977C129.582 95.5977 130.02 95.5117 130.395 95.3398C130.785 95.1602 131.117 94.9219 131.391 94.625C131.664 94.3281 131.871 93.9805 132.012 93.582C132.16 93.1602 132.234 92.7383 132.234 92.3164C132.234 91.8789 132.16 91.457 132.012 91.0508C131.871 90.668 131.664 90.3203 131.391 90.0078C131.133 89.7188 130.801 89.4805 130.395 89.293C129.996 89.1133 129.559 89.0234 129.082 89.0234C128.613 89.0234 128.18 89.1133 127.781 89.293C127.375 89.4805 127.043 89.7188 126.785 90.0078C126.512 90.3203 126.305 90.668 126.164 91.0508C126.016 91.457 125.941 91.8789 125.941 92.3164ZM137.262 98V86.6211H139.945V88.2852C140.07 88.0742 140.234 87.8516 140.438 87.6172C140.641 87.3828 140.887 87.1719 141.176 86.9844C141.504 86.7734 141.828 86.6172 142.148 86.5156C142.508 86.3984 142.918 86.3398 143.379 86.3398C143.918 86.3398 144.441 86.4336 144.949 86.6211C145.434 86.8008 145.879 87.082 146.285 87.4648C146.668 87.8242 146.973 88.2734 147.199 88.8125C147.418 89.3281 147.527 89.9336 147.527 90.6289V98H144.656V91.3555C144.656 90.5352 144.434 89.9414 143.988 89.5742C143.535 89.207 143.027 89.0234 142.465 89.0234C141.855 89.0234 141.367 89.1836 141 89.5039C140.648 89.8164 140.363 90.1445 140.145 90.4883V98H137.262ZM149.684 96.2188L151.301 94.1328C151.52 94.3359 151.73 94.5195 151.934 94.6836C152.16 94.8633 152.426 95.0391 152.73 95.2109C153.02 95.375 153.344 95.5078 153.703 95.6094C154.078 95.7188 154.477 95.7734 154.898 95.7734C155.398 95.7734 155.859 95.6836 156.281 95.5039C156.688 95.332 156.891 95.0508 156.891 94.6602C156.891 94.4727 156.828 94.3164 156.703 94.1914C156.594 94.0742 156.438 93.9766 156.234 93.8984C156.039 93.8203 155.797 93.75 155.508 93.6875C155.102 93.6016 154.809 93.5352 154.629 93.4883C154.051 93.3633 153.535 93.2148 153.082 93.043C152.566 92.8477 152.117 92.6172 151.734 92.3516C151.32 92.0625 151 91.7344 150.773 91.3672C150.531 90.9766 150.41 90.5234 150.41 90.0078C150.41 89.5469 150.52 89.0859 150.738 88.625C150.941 88.1953 151.254 87.8047 151.676 87.4531C152.105 87.1016 152.609 86.8281 153.188 86.6328C153.773 86.4375 154.457 86.3398 155.238 86.3398C156.246 86.3398 157.113 86.4922 157.84 86.7969C158.566 87.1016 159.145 87.4102 159.574 87.7227L158.133 89.8438C157.758 89.5859 157.344 89.3594 156.891 89.1641C156.414 88.9609 155.871 88.8594 155.262 88.8594C154.738 88.8594 154.273 88.9531 153.867 89.1406C153.453 89.3281 153.246 89.6016 153.246 89.9609C153.246 90.2734 153.453 90.5078 153.867 90.6641C154.242 90.8047 154.93 90.9844 155.93 91.2031C156.516 91.3438 157 91.4805 157.383 91.6133C157.875 91.7852 158.285 91.9922 158.613 92.2344C158.98 92.5 159.266 92.8164 159.469 93.1836C159.688 93.5742 159.797 94.0352 159.797 94.5664C159.797 95.1602 159.66 95.6953 159.387 96.1719C159.121 96.6328 158.758 97.0234 158.297 97.3438C157.859 97.6406 157.336 97.875 156.727 98.0469C156.133 98.2109 155.508 98.293 154.852 98.293C154.266 98.293 153.699 98.2305 153.152 98.1055C152.684 97.9961 152.211 97.8398 151.734 97.6367C151.297 97.4492 150.906 97.2305 150.562 96.9805C150.195 96.7148 149.902 96.4609 149.684 96.2188Z" fill="#333333"/>
<path d="M24.0781 110.996H26.8027L29.7617 119.404L32.9355 110.996H34.918L38.043 119.404L41.0801 110.996H43.5801L38.0625 125.479L33.8633 114.98L29.5957 125.479L24.0781 110.996ZM45.3281 113.584C45.0221 113.278 44.8691 112.904 44.8691 112.461C44.8691 112.018 45.0221 111.644 45.3281 111.338C45.6341 111.032 46.0085 110.879 46.4512 110.879C46.8874 110.879 47.2585 111.032 47.5645 111.338C47.8704 111.644 48.0234 112.018 48.0234 112.461C48.0234 112.904 47.8704 113.278 47.5645 113.584C47.2585 113.89 46.8874 114.043 46.4512 114.043C46.0085 114.043 45.6341 113.89 45.3281 113.584ZM45.25 125V115.518H47.6523V125H45.25ZM49.6738 117.676V115.518H51.5391V112.695H53.9316V115.518H56.793V117.676H53.9316V121.504C53.9316 121.79 53.9707 122.031 54.0488 122.227C54.1335 122.435 54.2246 122.588 54.3223 122.686C54.4395 122.796 54.5697 122.878 54.7129 122.93C54.8496 122.975 54.9961 122.998 55.1523 122.998C55.3607 122.998 55.5495 122.965 55.7188 122.9C55.888 122.835 56.041 122.754 56.1777 122.656L57.0566 124.619C56.7832 124.801 56.4414 124.951 56.0312 125.068C55.6276 125.186 55.2142 125.244 54.791 125.244C54.3418 125.244 53.9089 125.163 53.4922 125C53.1081 124.85 52.763 124.622 52.457 124.316C52.151 124.01 51.9232 123.659 51.7734 123.262C51.6172 122.852 51.5391 122.393 51.5391 121.885V117.676H49.6738ZM59.0391 125V109.883H61.4316V116.66C61.6855 116.302 62.0306 115.986 62.4668 115.713C62.9225 115.426 63.4792 115.283 64.1367 115.283C64.5924 115.283 65.0286 115.361 65.4453 115.518C65.849 115.667 66.2201 115.902 66.5586 116.221C66.8646 116.507 67.1152 116.882 67.3105 117.344C67.4993 117.793 67.5938 118.298 67.5938 118.857V125H65.1914V119.463C65.1914 119.131 65.1426 118.841 65.0449 118.594C64.9408 118.333 64.804 118.128 64.6348 117.979C64.4525 117.816 64.2604 117.699 64.0586 117.627C63.8633 117.555 63.6354 117.52 63.375 117.52C63.1016 117.52 62.8672 117.559 62.6719 117.637C62.4831 117.715 62.304 117.816 62.1348 117.939C61.985 118.05 61.8483 118.184 61.7246 118.34C61.6009 118.496 61.5033 118.636 61.4316 118.76V125H59.0391ZM69.3418 120.264C69.3418 119.561 69.472 118.91 69.7324 118.311C69.9993 117.692 70.3607 117.161 70.8164 116.719C71.2721 116.27 71.8092 115.918 72.4277 115.664C73.0462 115.41 73.7038 115.283 74.4004 115.283C75.11 115.283 75.7708 115.41 76.3828 115.664C76.9948 115.918 77.5319 116.27 77.9941 116.719C78.4499 117.161 78.8112 117.692 79.0781 118.311C79.3385 118.91 79.4688 119.561 79.4688 120.264C79.4688 120.96 79.3385 121.608 79.0781 122.207C78.8177 122.812 78.4564 123.34 77.9941 123.789C77.5384 124.232 77.0013 124.587 76.3828 124.854C75.7773 125.114 75.1165 125.244 74.4004 125.244C73.6908 125.244 73.0332 125.114 72.4277 124.854C71.8092 124.587 71.2721 124.232 70.8164 123.789C70.3607 123.34 69.9993 122.812 69.7324 122.207C69.472 121.608 69.3418 120.96 69.3418 120.264ZM71.7832 120.264C71.7832 120.615 71.8451 120.967 71.9688 121.318C72.0859 121.65 72.2585 121.94 72.4863 122.188C72.7142 122.435 72.9909 122.633 73.3164 122.783C73.6289 122.926 73.9902 122.998 74.4004 122.998C74.8171 122.998 75.1816 122.926 75.4941 122.783C75.8197 122.633 76.0964 122.435 76.3242 122.188C76.5521 121.94 76.7246 121.65 76.8418 121.318C76.9655 120.967 77.0273 120.615 77.0273 120.264C77.0273 119.899 76.9655 119.548 76.8418 119.209C76.7246 118.89 76.5521 118.6 76.3242 118.34C76.1094 118.099 75.8327 117.9 75.4941 117.744C75.1621 117.594 74.7975 117.52 74.4004 117.52C74.0098 117.52 73.6484 117.594 73.3164 117.744C72.9779 117.9 72.7012 118.099 72.4863 118.34C72.2585 118.6 72.0859 118.89 71.9688 119.209C71.8451 119.548 71.7832 119.899 71.7832 120.264ZM81.2168 121.66V115.518H83.6191V120.996C83.6191 121.706 83.7786 122.217 84.0977 122.529C84.4232 122.842 84.8561 122.998 85.3965 122.998C85.9043 122.998 86.3112 122.881 86.6172 122.646C86.9362 122.399 87.1901 122.129 87.3789 121.836V115.518H89.7715V125H87.5352V123.623C87.4245 123.799 87.278 123.988 87.0957 124.189C86.9199 124.385 86.7148 124.557 86.4805 124.707C86.2266 124.87 85.9564 124.997 85.6699 125.088C85.3444 125.192 85.0124 125.244 84.6738 125.244C84.2507 125.244 83.821 125.163 83.3848 125C82.9811 124.85 82.61 124.616 82.2715 124.297C81.9655 124.01 81.7116 123.639 81.5098 123.184C81.3145 122.741 81.2168 122.233 81.2168 121.66ZM91.4121 117.676V115.518H93.2773V112.695H95.6699V115.518H98.5312V117.676H95.6699V121.504C95.6699 121.79 95.709 122.031 95.7871 122.227C95.8717 122.435 95.9629 122.588 96.0605 122.686C96.1777 122.796 96.3079 122.878 96.4512 122.93C96.5879 122.975 96.7344 122.998 96.8906 122.998C97.099 122.998 97.2878 122.965 97.457 122.9C97.6263 122.835 97.7793 122.754 97.916 122.656L98.7949 124.619C98.5215 124.801 98.1797 124.951 97.7695 125.068C97.3659 125.186 96.9525 125.244 96.5293 125.244C96.0801 125.244 95.6471 125.163 95.2305 125C94.8464 124.85 94.5013 124.622 94.1953 124.316C93.8893 124.01 93.6615 123.659 93.5117 123.262C93.3555 122.852 93.2773 122.393 93.2773 121.885V117.676H91.4121ZM106.207 123.418C106.025 123.034 105.934 122.601 105.934 122.119C105.934 121.637 106.031 121.201 106.227 120.811C106.428 120.413 106.692 120.078 107.018 119.805C107.35 119.525 107.75 119.307 108.219 119.15C108.674 118.994 109.173 118.916 109.713 118.916C110.149 118.916 110.602 118.975 111.07 119.092C111.552 119.215 111.959 119.385 112.291 119.6V119.062C112.291 118.743 112.226 118.483 112.096 118.281C111.965 118.079 111.796 117.91 111.588 117.773C111.38 117.637 111.158 117.546 110.924 117.5C110.663 117.448 110.426 117.422 110.211 117.422C109.879 117.422 109.472 117.474 108.99 117.578C108.476 117.689 107.949 117.868 107.408 118.115L106.637 116.143C107.138 115.908 107.708 115.706 108.346 115.537C108.984 115.368 109.68 115.283 110.436 115.283C111.757 115.283 112.796 115.602 113.551 116.24C114.312 116.885 114.693 117.744 114.693 118.818V125H112.477V123.799C112.177 124.209 111.751 124.554 111.197 124.834C110.657 125.107 110.055 125.244 109.391 125.244C108.961 125.244 108.525 125.173 108.082 125.029C107.665 124.893 107.294 124.688 106.969 124.414C106.643 124.141 106.389 123.809 106.207 123.418ZM108.375 122.021C108.375 122.282 108.427 122.487 108.531 122.637C108.642 122.799 108.779 122.923 108.941 123.008C109.124 123.105 109.306 123.167 109.488 123.193C109.703 123.226 109.892 123.242 110.055 123.242C110.615 123.242 111.074 123.125 111.432 122.891C111.783 122.663 112.07 122.412 112.291 122.139V121.162C111.965 120.993 111.62 120.872 111.256 120.801C110.865 120.723 110.517 120.684 110.211 120.684C109.99 120.684 109.778 120.706 109.576 120.752C109.342 120.804 109.143 120.876 108.98 120.967C108.805 121.064 108.658 121.201 108.541 121.377C108.43 121.54 108.375 121.755 108.375 122.021ZM117.096 129.6V115.518H119.312V116.758C119.56 116.393 119.931 116.051 120.426 115.732C120.888 115.433 121.484 115.283 122.213 115.283C122.799 115.283 123.375 115.407 123.941 115.654C124.501 115.895 124.99 116.237 125.406 116.68C125.816 117.109 126.152 117.633 126.412 118.252C126.666 118.857 126.793 119.528 126.793 120.264C126.793 120.993 126.666 121.66 126.412 122.266C126.152 122.884 125.816 123.408 125.406 123.838C124.983 124.281 124.492 124.626 123.932 124.873C123.365 125.12 122.786 125.244 122.193 125.244C121.822 125.244 121.48 125.199 121.168 125.107C120.868 125.023 120.608 124.912 120.387 124.775C120.12 124.613 119.934 124.482 119.83 124.385C119.687 124.248 119.576 124.128 119.498 124.023V129.6H117.096ZM119.498 121.68C119.693 122.025 119.98 122.331 120.357 122.598C120.735 122.865 121.214 122.998 121.793 122.998C122.581 122.998 123.206 122.738 123.668 122.217C124.124 121.702 124.352 121.051 124.352 120.264C124.352 119.469 124.124 118.815 123.668 118.301C123.206 117.78 122.581 117.52 121.793 117.52C121.214 117.52 120.735 117.653 120.357 117.92C119.98 118.187 119.693 118.493 119.498 118.838V121.68ZM128.561 129.6V115.518H130.777V116.758C131.025 116.393 131.396 116.051 131.891 115.732C132.353 115.433 132.949 115.283 133.678 115.283C134.264 115.283 134.84 115.407 135.406 115.654C135.966 115.895 136.454 116.237 136.871 116.68C137.281 117.109 137.617 117.633 137.877 118.252C138.131 118.857 138.258 119.528 138.258 120.264C138.258 120.993 138.131 121.66 137.877 122.266C137.617 122.884 137.281 123.408 136.871 123.838C136.448 124.281 135.956 124.626 135.396 124.873C134.83 125.12 134.251 125.244 133.658 125.244C133.287 125.244 132.945 125.199 132.633 125.107C132.333 125.023 132.073 124.912 131.852 124.775C131.585 124.613 131.399 124.482 131.295 124.385C131.152 124.248 131.041 124.128 130.963 124.023V129.6H128.561ZM130.963 121.68C131.158 122.025 131.445 122.331 131.822 122.598C132.2 122.865 132.678 122.998 133.258 122.998C134.046 122.998 134.671 122.738 135.133 122.217C135.589 121.702 135.816 121.051 135.816 120.264C135.816 119.469 135.589 118.815 135.133 118.301C134.671 117.78 134.046 117.52 133.258 117.52C132.678 117.52 132.2 117.653 131.822 117.92C131.445 118.187 131.158 118.493 130.963 118.838V121.68ZM139.381 120.264C139.381 119.561 139.511 118.91 139.771 118.311C140.038 117.692 140.4 117.161 140.855 116.719C141.311 116.27 141.848 115.918 142.467 115.664C143.085 115.41 143.743 115.283 144.439 115.283C145.149 115.283 145.81 115.41 146.422 115.664C147.034 115.918 147.571 116.27 148.033 116.719C148.489 117.161 148.85 117.692 149.117 118.311C149.378 118.91 149.508 119.561 149.508 120.264C149.508 120.96 149.378 121.608 149.117 122.207C148.857 122.812 148.495 123.34 148.033 123.789C147.577 124.232 147.04 124.587 146.422 124.854C145.816 125.114 145.156 125.244 144.439 125.244C143.73 125.244 143.072 125.114 142.467 124.854C141.848 124.587 141.311 124.232 140.855 123.789C140.4 123.34 140.038 122.812 139.771 122.207C139.511 121.608 139.381 120.96 139.381 120.264ZM141.822 120.264C141.822 120.615 141.884 120.967 142.008 121.318C142.125 121.65 142.298 121.94 142.525 122.188C142.753 122.435 143.03 122.633 143.355 122.783C143.668 122.926 144.029 122.998 144.439 122.998C144.856 122.998 145.221 122.926 145.533 122.783C145.859 122.633 146.135 122.435 146.363 122.188C146.591 121.94 146.764 121.65 146.881 121.318C147.005 120.967 147.066 120.615 147.066 120.264C147.066 119.899 147.005 119.548 146.881 119.209C146.764 118.89 146.591 118.6 146.363 118.34C146.148 118.099 145.872 117.9 145.533 117.744C145.201 117.594 144.837 117.52 144.439 117.52C144.049 117.52 143.688 117.594 143.355 117.744C143.017 117.9 142.74 118.099 142.525 118.34C142.298 118.6 142.125 118.89 142.008 119.209C141.884 119.548 141.822 119.899 141.822 120.264ZM151.715 113.584C151.409 113.278 151.256 112.904 151.256 112.461C151.256 112.018 151.409 111.644 151.715 111.338C152.021 111.032 152.395 110.879 152.838 110.879C153.274 110.879 153.645 111.032 153.951 111.338C154.257 111.644 154.41 112.018 154.41 112.461C154.41 112.904 154.257 113.278 153.951 113.584C153.645 113.89 153.274 114.043 152.838 114.043C152.395 114.043 152.021 113.89 151.715 113.584ZM151.637 125V115.518H154.039V125H151.637ZM156.822 125V115.518H159.059V116.904C159.163 116.729 159.299 116.543 159.469 116.348C159.638 116.152 159.843 115.977 160.084 115.82C160.357 115.645 160.628 115.514 160.895 115.43C161.194 115.332 161.536 115.283 161.92 115.283C162.369 115.283 162.805 115.361 163.229 115.518C163.632 115.667 164.003 115.902 164.342 116.221C164.661 116.52 164.915 116.895 165.104 117.344C165.286 117.773 165.377 118.278 165.377 118.857V125H162.984V119.463C162.984 118.779 162.799 118.285 162.428 117.979C162.05 117.673 161.627 117.52 161.158 117.52C160.65 117.52 160.243 117.653 159.938 117.92C159.645 118.18 159.407 118.454 159.225 118.74V125H156.822ZM167.018 117.676V115.518H168.883V112.695H171.275V115.518H174.137V117.676H171.275V121.504C171.275 121.79 171.314 122.031 171.393 122.227C171.477 122.435 171.568 122.588 171.666 122.686C171.783 122.796 171.913 122.878 172.057 122.93C172.193 122.975 172.34 122.998 172.496 122.998C172.704 122.998 172.893 122.965 173.062 122.9C173.232 122.835 173.385 122.754 173.521 122.656L174.4 124.619C174.127 124.801 173.785 124.951 173.375 125.068C172.971 125.186 172.558 125.244 172.135 125.244C171.686 125.244 171.253 125.163 170.836 125C170.452 124.85 170.107 124.622 169.801 124.316C169.495 124.01 169.267 123.659 169.117 123.262C168.961 122.852 168.883 122.393 168.883 121.885V117.676H167.018ZM176.1 125V115.518H178.336V116.904C178.583 116.501 178.938 116.13 179.4 115.791C179.863 115.452 180.462 115.283 181.197 115.283C181.822 115.283 182.395 115.426 182.916 115.713C183.437 115.999 183.824 116.41 184.078 116.943C184.202 116.722 184.345 116.52 184.508 116.338C184.677 116.149 184.895 115.973 185.162 115.811C185.416 115.654 185.702 115.527 186.021 115.43C186.34 115.332 186.692 115.283 187.076 115.283C187.564 115.283 188.01 115.365 188.414 115.527C188.824 115.697 189.179 115.934 189.479 116.24C189.778 116.546 190.009 116.924 190.172 117.373C190.335 117.816 190.416 118.324 190.416 118.896V125H188.014V119.521C188.014 118.187 187.477 117.52 186.402 117.52C185.875 117.52 185.458 117.653 185.152 117.92C184.846 118.187 184.615 118.46 184.459 118.74V125H182.057V119.521C182.057 118.187 181.516 117.52 180.436 117.52C179.908 117.52 179.492 117.653 179.186 117.92C178.886 118.18 178.658 118.454 178.502 118.74V125H176.1ZM192.174 120.225C192.174 119.528 192.294 118.887 192.535 118.301C192.783 117.702 193.115 117.178 193.531 116.729C193.935 116.292 194.436 115.941 195.035 115.674C195.615 115.413 196.249 115.283 196.939 115.283C197.604 115.283 198.219 115.404 198.785 115.645C199.384 115.898 199.892 116.234 200.309 116.65C200.732 117.074 201.074 117.594 201.334 118.213C201.588 118.818 201.715 119.489 201.715 120.225V120.596C201.715 120.7 201.708 120.876 201.695 121.123H194.615C194.661 121.325 194.758 121.549 194.908 121.797C195.058 122.038 195.243 122.243 195.465 122.412C195.712 122.601 195.982 122.751 196.275 122.861C196.575 122.979 196.923 123.037 197.32 123.037C197.73 123.037 198.163 122.965 198.619 122.822C199.075 122.679 199.495 122.432 199.879 122.08L201.08 123.877C200.676 124.209 200.156 124.518 199.518 124.805C198.867 125.098 198.121 125.244 197.281 125.244C196.552 125.244 195.882 125.117 195.27 124.863C194.658 124.609 194.117 124.255 193.648 123.799C193.193 123.35 192.831 122.816 192.564 122.197C192.304 121.592 192.174 120.934 192.174 120.225ZM194.615 119.385H199.312C199.299 119.189 199.244 118.975 199.146 118.74C199.049 118.512 198.902 118.301 198.707 118.105C198.512 117.91 198.268 117.754 197.975 117.637C197.682 117.52 197.337 117.461 196.939 117.461C196.555 117.461 196.22 117.52 195.934 117.637C195.673 117.747 195.439 117.9 195.23 118.096C195.042 118.278 194.895 118.486 194.791 118.721C194.68 118.968 194.622 119.189 194.615 119.385ZM203.482 125V115.518H205.719V116.904C205.823 116.729 205.96 116.543 206.129 116.348C206.298 116.152 206.503 115.977 206.744 115.82C207.018 115.645 207.288 115.514 207.555 115.43C207.854 115.332 208.196 115.283 208.58 115.283C209.029 115.283 209.465 115.361 209.889 115.518C210.292 115.667 210.663 115.902 211.002 116.221C211.321 116.52 211.575 116.895 211.764 117.344C211.946 117.773 212.037 118.278 212.037 118.857V125H209.645V119.463C209.645 118.779 209.459 118.285 209.088 117.979C208.71 117.673 208.287 117.52 207.818 117.52C207.311 117.52 206.904 117.653 206.598 117.92C206.305 118.18 206.067 118.454 205.885 118.74V125H203.482ZM213.678 117.676V115.518H215.543V112.695H217.936V115.518H220.797V117.676H217.936V121.504C217.936 121.79 217.975 122.031 218.053 122.227C218.137 122.435 218.229 122.588 218.326 122.686C218.443 122.796 218.574 122.878 218.717 122.93C218.854 122.975 219 122.998 219.156 122.998C219.365 122.998 219.553 122.965 219.723 122.9C219.892 122.835 220.045 122.754 220.182 122.656L221.061 124.619C220.787 124.801 220.445 124.951 220.035 125.068C219.632 125.186 219.218 125.244 218.795 125.244C218.346 125.244 217.913 125.163 217.496 125C217.112 124.85 216.767 124.622 216.461 124.316C216.155 124.01 215.927 123.659 215.777 123.262C215.621 122.852 215.543 122.393 215.543 121.885V117.676H213.678Z" fill="#707070"/>
<rect x="218" y="146" width="80" height="32" rx="4" fill="#F1F3F6"/>
<path d="M239.215 165.127L240.199 164.539C240.272 164.717 240.382 164.904 240.527 165.1C240.673 165.296 240.828 165.457 240.992 165.585C241.174 165.726 241.38 165.838 241.607 165.92C241.844 166.007 242.093 166.05 242.353 166.05C242.585 166.05 242.811 166.016 243.029 165.947C243.248 165.879 243.442 165.781 243.61 165.653C243.784 165.521 243.92 165.362 244.021 165.175C244.121 164.988 244.171 164.76 244.171 164.491C244.171 164.241 244.123 164.024 244.027 163.842C243.936 163.664 243.804 163.502 243.631 163.356C243.449 163.206 243.246 163.074 243.022 162.96L242.271 162.591C241.892 162.409 241.573 162.249 241.313 162.112C240.985 161.939 240.696 161.743 240.445 161.524C240.176 161.292 239.967 161.035 239.816 160.752C239.661 160.46 239.584 160.116 239.584 159.72C239.584 159.382 239.643 159.059 239.762 158.749C239.885 158.425 240.062 158.138 240.295 157.888C240.527 157.637 240.819 157.432 241.17 157.272C241.525 157.113 241.933 157.033 242.394 157.033C242.749 157.033 243.07 157.076 243.357 157.163C243.64 157.25 243.902 157.364 244.144 157.505C244.371 157.637 244.576 157.792 244.759 157.97C244.95 158.152 245.096 158.316 245.196 158.462L244.314 159.173C244.251 159.077 244.146 158.956 244 158.811C243.882 158.692 243.736 158.583 243.562 158.482C243.389 158.382 243.209 158.302 243.022 158.243C242.831 158.184 242.621 158.154 242.394 158.154C242.12 158.154 241.885 158.195 241.689 158.277C241.489 158.359 241.318 158.471 241.177 158.612C241.035 158.754 240.931 158.915 240.862 159.098C240.794 159.28 240.76 159.465 240.76 159.651C240.76 159.888 240.81 160.091 240.91 160.26C241.01 160.428 241.156 160.59 241.348 160.745C241.535 160.9 241.762 161.044 242.031 161.176C242.414 161.367 242.717 161.513 242.94 161.613C243.382 161.814 243.722 161.987 243.959 162.133C244.255 162.315 244.51 162.513 244.725 162.728C244.939 162.942 245.101 163.186 245.21 163.459C245.324 163.746 245.381 164.063 245.381 164.409C245.381 164.842 245.303 165.227 245.148 165.564C244.989 165.911 244.777 166.2 244.513 166.433C244.235 166.674 243.913 166.856 243.549 166.979C243.166 167.107 242.772 167.171 242.366 167.171C241.951 167.171 241.573 167.112 241.231 166.993C240.899 166.879 240.6 166.724 240.336 166.528C240.072 166.332 239.848 166.114 239.666 165.872C239.461 165.603 239.311 165.355 239.215 165.127ZM246.44 161.593V160.533H247.698V158.558H248.881V160.533H250.891V161.593H248.881V165.079C248.881 165.403 248.958 165.649 249.113 165.817C249.273 165.991 249.494 166.077 249.776 166.077C249.94 166.077 250.079 166.052 250.193 166.002C250.312 165.947 250.433 165.883 250.556 165.811L250.993 166.774C250.72 166.929 250.474 167.034 250.255 167.089C250.041 167.144 249.847 167.171 249.674 167.171C249.432 167.171 249.195 167.13 248.963 167.048C248.717 166.961 248.507 166.84 248.334 166.686C248.138 166.512 247.985 166.303 247.876 166.057C247.757 165.792 247.698 165.487 247.698 165.141V161.593H246.44ZM251.957 164.983C251.957 164.664 252.023 164.368 252.155 164.095C252.278 163.84 252.458 163.612 252.695 163.411C252.919 163.22 253.19 163.069 253.509 162.96C253.81 162.855 254.151 162.803 254.534 162.803C254.949 162.803 255.323 162.857 255.655 162.967C255.979 163.072 256.248 163.192 256.462 163.329V162.98C256.462 162.634 256.403 162.365 256.284 162.174C256.166 161.982 256.018 161.83 255.84 161.716C255.676 161.611 255.493 161.54 255.293 161.504C255.115 161.472 254.956 161.456 254.814 161.456C254.527 161.456 254.208 161.508 253.857 161.613C253.516 161.714 253.194 161.843 252.894 162.003L252.408 161.025C252.714 160.852 253.058 160.702 253.44 160.574C253.873 160.433 254.336 160.362 254.828 160.362C255.302 160.362 255.717 160.431 256.072 160.567C256.437 160.709 256.729 160.889 256.947 161.107C257.184 161.344 257.357 161.597 257.467 161.866C257.585 162.158 257.645 162.45 257.645 162.741V167H256.564V166.063C256.318 166.405 256.004 166.674 255.621 166.87C255.229 167.071 254.814 167.171 254.377 167.171C254.094 167.171 253.803 167.121 253.502 167.021C253.229 166.929 252.971 166.788 252.729 166.597C252.493 166.41 252.306 166.18 252.169 165.906C252.028 165.624 251.957 165.316 251.957 164.983ZM253.133 164.983C253.133 165.179 253.174 165.35 253.256 165.496C253.329 165.624 253.443 165.742 253.598 165.852C253.725 165.943 253.88 166.013 254.062 166.063C254.227 166.109 254.407 166.132 254.603 166.132C255.035 166.132 255.411 166.025 255.73 165.811C256.036 165.605 256.28 165.387 256.462 165.154V164.245C256.266 164.108 256.024 163.997 255.737 163.91C255.446 163.824 255.129 163.78 254.787 163.78C254.258 163.78 253.853 163.892 253.57 164.115C253.279 164.343 253.133 164.632 253.133 164.983ZM258.868 161.593V160.533H260.126V158.558H261.309V160.533H263.318V161.593H261.309V165.079C261.309 165.403 261.386 165.649 261.541 165.817C261.701 165.991 261.922 166.077 262.204 166.077C262.368 166.077 262.507 166.052 262.621 166.002C262.74 165.947 262.86 165.883 262.983 165.811L263.421 166.774C263.147 166.929 262.901 167.034 262.683 167.089C262.468 167.144 262.275 167.171 262.102 167.171C261.86 167.171 261.623 167.13 261.391 167.048C261.145 166.961 260.935 166.84 260.762 166.686C260.566 166.512 260.413 166.303 260.304 166.057C260.185 165.792 260.126 165.487 260.126 165.141V161.593H258.868ZM264.692 164.689V160.533H265.868V164.491C265.868 164.76 265.911 164.999 265.998 165.209C266.076 165.4 266.187 165.564 266.333 165.701C266.47 165.833 266.629 165.929 266.812 165.988C266.989 166.048 267.178 166.077 267.379 166.077C267.803 166.077 268.147 165.968 268.411 165.749C268.675 165.535 268.883 165.289 269.033 165.011V160.533H270.209V167H269.115V166.009C269.042 166.132 268.947 166.264 268.828 166.405C268.705 166.547 268.564 166.67 268.404 166.774C268.227 166.888 268.035 166.982 267.83 167.055C267.611 167.132 267.372 167.171 267.112 167.171C266.793 167.171 266.49 167.116 266.203 167.007C265.916 166.897 265.661 166.738 265.438 166.528C265.214 166.319 265.034 166.061 264.897 165.756C264.761 165.446 264.692 165.09 264.692 164.689ZM271.59 165.811L272.396 165.052C272.469 165.161 272.574 165.284 272.711 165.421C272.825 165.535 272.973 165.646 273.155 165.756C273.319 165.852 273.504 165.936 273.709 166.009C273.896 166.073 274.117 166.104 274.372 166.104C274.522 166.104 274.68 166.091 274.844 166.063C274.99 166.041 275.138 165.991 275.288 165.913C275.42 165.845 275.532 165.756 275.623 165.646C275.714 165.533 275.76 165.4 275.76 165.25C275.76 165.104 275.714 164.974 275.623 164.86C275.532 164.746 275.416 164.653 275.274 164.58C275.133 164.507 274.976 164.446 274.803 164.396C274.63 164.345 274.459 164.304 274.29 164.272C274.099 164.231 273.855 164.165 273.559 164.074C273.299 163.997 273.044 163.883 272.793 163.732C272.556 163.591 272.351 163.402 272.178 163.165C272.009 162.937 271.925 162.652 271.925 162.311C271.925 162.046 271.979 161.796 272.089 161.559C272.194 161.326 272.355 161.119 272.574 160.937C272.779 160.763 273.03 160.624 273.326 160.52C273.618 160.415 273.944 160.362 274.304 160.362C274.855 160.362 275.334 160.465 275.739 160.67C276.136 160.87 276.455 161.096 276.696 161.347L275.931 162.14C275.78 161.989 275.559 161.83 275.268 161.661C274.999 161.506 274.668 161.429 274.276 161.429C273.889 161.429 273.59 161.515 273.381 161.688C273.176 161.857 273.073 162.051 273.073 162.27C273.073 162.42 273.117 162.545 273.203 162.646C273.299 162.755 273.417 162.841 273.559 162.905C273.704 162.974 273.873 163.035 274.064 163.09C274.124 163.108 274.315 163.156 274.639 163.233C274.839 163.279 275.094 163.35 275.404 163.445C275.664 163.523 275.908 163.639 276.136 163.794C276.354 163.94 276.541 164.129 276.696 164.361C276.847 164.585 276.922 164.867 276.922 165.209C276.922 165.546 276.847 165.838 276.696 166.084C276.541 166.335 276.348 166.537 276.115 166.692C275.883 166.847 275.609 166.966 275.295 167.048C274.985 167.13 274.677 167.171 274.372 167.171C274.049 167.171 273.743 167.13 273.456 167.048C273.16 166.961 272.9 166.856 272.677 166.733C272.44 166.601 272.23 166.458 272.048 166.303C271.87 166.152 271.717 165.988 271.59 165.811Z" fill="#707070"/>
<rect x="114" y="146" width="96" height="32" rx="4" fill="#F1F3F6"/>
<path d="M133.241 167L137.097 157.197H138.184L142.005 167H140.774L139.756 164.354H135.524L134.506 167H133.241ZM135.962 163.233H139.318L137.637 158.879L135.962 163.233ZM143.01 170.22V160.533H144.09V161.47C144.277 161.183 144.555 160.927 144.924 160.704C145.298 160.476 145.746 160.362 146.271 160.362C146.708 160.362 147.118 160.451 147.501 160.629C147.879 160.807 148.212 161.048 148.499 161.354C148.777 161.65 148.998 162.007 149.162 162.427C149.326 162.841 149.408 163.288 149.408 163.767C149.408 164.241 149.326 164.685 149.162 165.1C148.993 165.523 148.772 165.883 148.499 166.18C148.212 166.485 147.879 166.727 147.501 166.904C147.118 167.082 146.708 167.171 146.271 167.171C145.983 167.171 145.719 167.132 145.478 167.055C145.231 166.973 145.026 166.884 144.862 166.788C144.68 166.679 144.539 166.574 144.438 166.474C144.306 166.341 144.222 166.25 144.186 166.2V170.22H143.01ZM144.186 164.97C144.263 165.093 144.363 165.223 144.486 165.359C144.6 165.487 144.739 165.608 144.903 165.722C145.035 165.813 145.213 165.897 145.437 165.975C145.637 166.043 145.86 166.077 146.106 166.077C146.425 166.077 146.717 166.016 146.981 165.893C147.25 165.77 147.474 165.605 147.651 165.4C147.829 165.195 147.97 164.949 148.075 164.662C148.18 164.375 148.232 164.076 148.232 163.767C148.232 163.457 148.18 163.158 148.075 162.871C147.97 162.584 147.829 162.338 147.651 162.133C147.474 161.928 147.25 161.764 146.981 161.641C146.713 161.518 146.421 161.456 146.106 161.456C145.847 161.456 145.623 161.488 145.437 161.552C145.227 161.625 145.049 161.711 144.903 161.812C144.73 161.935 144.591 162.053 144.486 162.167C144.372 162.295 144.272 162.427 144.186 162.563V164.97ZM150.748 170.22V160.533H151.828V161.47C152.015 161.183 152.293 160.927 152.662 160.704C153.036 160.476 153.485 160.362 154.009 160.362C154.446 160.362 154.856 160.451 155.239 160.629C155.618 160.807 155.95 161.048 156.237 161.354C156.515 161.65 156.736 162.007 156.9 162.427C157.064 162.841 157.146 163.288 157.146 163.767C157.146 164.241 157.064 164.685 156.9 165.1C156.732 165.523 156.511 165.883 156.237 166.18C155.95 166.485 155.618 166.727 155.239 166.904C154.856 167.082 154.446 167.171 154.009 167.171C153.722 167.171 153.457 167.132 153.216 167.055C152.97 166.973 152.765 166.884 152.601 166.788C152.418 166.679 152.277 166.574 152.177 166.474C152.045 166.341 151.96 166.25 151.924 166.2V170.22H150.748ZM151.924 164.97C152.001 165.093 152.102 165.223 152.225 165.359C152.339 165.487 152.478 165.608 152.642 165.722C152.774 165.813 152.951 165.897 153.175 165.975C153.375 166.043 153.599 166.077 153.845 166.077C154.164 166.077 154.455 166.016 154.72 165.893C154.989 165.77 155.212 165.605 155.39 165.4C155.567 165.195 155.709 164.949 155.813 164.662C155.918 164.375 155.971 164.076 155.971 163.767C155.971 163.457 155.918 163.158 155.813 162.871C155.709 162.584 155.567 162.338 155.39 162.133C155.212 161.928 154.989 161.764 154.72 161.641C154.451 161.518 154.159 161.456 153.845 161.456C153.585 161.456 153.362 161.488 153.175 161.552C152.965 161.625 152.787 161.711 152.642 161.812C152.468 161.935 152.329 162.053 152.225 162.167C152.111 162.295 152.01 162.427 151.924 162.563V164.97ZM158.739 167V156.418H159.915V167H158.739ZM162.198 159.022C162.039 158.863 161.959 158.676 161.959 158.462C161.959 158.248 162.039 158.061 162.198 157.901C162.358 157.742 162.545 157.662 162.759 157.662C162.973 157.662 163.16 157.742 163.319 157.901C163.479 158.061 163.559 158.248 163.559 158.462C163.559 158.676 163.479 158.863 163.319 159.022C163.164 159.177 162.978 159.255 162.759 159.255C162.54 159.255 162.353 159.177 162.198 159.022ZM162.171 167V160.533H163.347V167H162.171ZM164.905 163.767C164.905 163.27 164.987 162.826 165.151 162.434C165.325 162.023 165.559 161.666 165.855 161.36C166.161 161.046 166.512 160.802 166.908 160.629C167.309 160.451 167.751 160.362 168.234 160.362C168.526 160.362 168.811 160.399 169.089 160.472C169.335 160.535 169.572 160.627 169.8 160.745C170.009 160.854 170.203 160.98 170.381 161.121C170.568 161.271 170.711 161.406 170.812 161.524L170.012 162.242C169.848 162.055 169.62 161.88 169.328 161.716C169.023 161.543 168.658 161.456 168.234 161.456C167.911 161.456 167.615 161.518 167.346 161.641C167.068 161.768 166.842 161.932 166.669 162.133C166.478 162.352 166.332 162.598 166.231 162.871C166.131 163.145 166.081 163.443 166.081 163.767C166.081 164.09 166.131 164.389 166.231 164.662C166.332 164.936 166.478 165.182 166.669 165.4C166.842 165.601 167.068 165.765 167.346 165.893C167.615 166.016 167.911 166.077 168.234 166.077C168.686 166.077 169.071 165.979 169.39 165.783C169.709 165.587 169.952 165.378 170.121 165.154L170.88 165.92C170.729 166.089 170.584 166.234 170.442 166.357C170.292 166.49 170.096 166.624 169.854 166.761C169.645 166.879 169.399 166.977 169.116 167.055C168.834 167.132 168.54 167.171 168.234 167.171C167.751 167.171 167.309 167.082 166.908 166.904C166.516 166.731 166.165 166.49 165.855 166.18C165.559 165.883 165.325 165.523 165.151 165.1C164.987 164.699 164.905 164.254 164.905 163.767ZM171.714 164.983C171.714 164.664 171.78 164.368 171.912 164.095C172.035 163.84 172.215 163.612 172.452 163.411C172.675 163.22 172.947 163.069 173.266 162.96C173.566 162.855 173.908 162.803 174.291 162.803C174.706 162.803 175.079 162.857 175.412 162.967C175.736 163.072 176.005 163.192 176.219 163.329V162.98C176.219 162.634 176.16 162.365 176.041 162.174C175.923 161.982 175.774 161.83 175.597 161.716C175.433 161.611 175.25 161.54 175.05 161.504C174.872 161.472 174.713 161.456 174.571 161.456C174.284 161.456 173.965 161.508 173.614 161.613C173.272 161.714 172.951 161.843 172.65 162.003L172.165 161.025C172.47 160.852 172.814 160.702 173.197 160.574C173.63 160.433 174.093 160.362 174.585 160.362C175.059 160.362 175.474 160.431 175.829 160.567C176.194 160.709 176.485 160.889 176.704 161.107C176.941 161.344 177.114 161.597 177.224 161.866C177.342 162.158 177.401 162.45 177.401 162.741V167H176.321V166.063C176.075 166.405 175.761 166.674 175.378 166.87C174.986 167.071 174.571 167.171 174.134 167.171C173.851 167.171 173.56 167.121 173.259 167.021C172.985 166.929 172.728 166.788 172.486 166.597C172.249 166.41 172.062 166.18 171.926 165.906C171.785 165.624 171.714 165.316 171.714 164.983ZM172.89 164.983C172.89 165.179 172.931 165.35 173.013 165.496C173.086 165.624 173.2 165.742 173.354 165.852C173.482 165.943 173.637 166.013 173.819 166.063C173.983 166.109 174.163 166.132 174.359 166.132C174.792 166.132 175.168 166.025 175.487 165.811C175.793 165.605 176.036 165.387 176.219 165.154V164.245C176.023 164.108 175.781 163.997 175.494 163.91C175.202 163.824 174.886 163.78 174.544 163.78C174.015 163.78 173.61 163.892 173.327 164.115C173.035 164.343 172.89 164.632 172.89 164.983ZM179.186 167V160.533H180.279V161.442C180.448 161.169 180.696 160.921 181.024 160.697C181.348 160.474 181.767 160.362 182.282 160.362C182.601 160.362 182.907 160.417 183.198 160.526C183.494 160.636 183.752 160.793 183.971 160.998C184.194 161.208 184.372 161.467 184.504 161.777C184.636 162.092 184.702 162.447 184.702 162.844V167H183.526V163.035C183.526 162.762 183.485 162.525 183.403 162.324C183.326 162.133 183.214 161.969 183.068 161.832C182.927 161.7 182.77 161.604 182.597 161.545C182.419 161.486 182.23 161.456 182.029 161.456C181.801 161.456 181.608 161.488 181.448 161.552C181.261 161.625 181.106 161.711 180.983 161.812C180.847 161.921 180.728 162.039 180.628 162.167C180.532 162.29 180.443 162.418 180.361 162.55V167H179.186ZM185.939 161.593V160.533H187.197V158.558H188.38V160.533H190.39V161.593H188.38V165.079C188.38 165.403 188.457 165.649 188.612 165.817C188.772 165.991 188.993 166.077 189.275 166.077C189.439 166.077 189.578 166.052 189.692 166.002C189.811 165.947 189.932 165.883 190.055 165.811L190.492 166.774C190.219 166.929 189.973 167.034 189.754 167.089C189.54 167.144 189.346 167.171 189.173 167.171C188.931 167.171 188.694 167.13 188.462 167.048C188.216 166.961 188.006 166.84 187.833 166.686C187.637 166.512 187.484 166.303 187.375 166.057C187.257 165.792 187.197 165.487 187.197 165.141V161.593H185.939Z" fill="#707070"/>
<rect x="24" y="146" width="82" height="32" rx="4" fill="#FC3F74"/>
<path d="M37.6904 167V157.197H38.8662V161.805L42.8311 157.197H44.3281L40.1787 161.989L44.7861 167H43.1934L38.8662 162.324V167H37.6904ZM45.374 164.983C45.374 164.664 45.4401 164.368 45.5723 164.095C45.6953 163.84 45.8753 163.612 46.1123 163.411C46.3356 163.22 46.6068 163.069 46.9258 162.96C47.2266 162.855 47.5684 162.803 47.9512 162.803C48.3659 162.803 48.7396 162.857 49.0723 162.967C49.3958 163.072 49.6647 163.192 49.8789 163.329V162.98C49.8789 162.634 49.8197 162.365 49.7012 162.174C49.5827 161.982 49.4346 161.83 49.2568 161.716C49.0928 161.611 48.9105 161.54 48.71 161.504C48.5322 161.472 48.3727 161.456 48.2314 161.456C47.9443 161.456 47.6253 161.508 47.2744 161.613C46.9326 161.714 46.6113 161.843 46.3105 162.003L45.8252 161.025C46.1305 160.852 46.4746 160.702 46.8574 160.574C47.2904 160.433 47.7529 160.362 48.2451 160.362C48.7191 160.362 49.1338 160.431 49.4893 160.567C49.8538 160.709 50.1455 160.889 50.3643 161.107C50.6012 161.344 50.7744 161.597 50.8838 161.866C51.0023 162.158 51.0615 162.45 51.0615 162.741V167H49.9814V166.063C49.7354 166.405 49.4209 166.674 49.0381 166.87C48.6462 167.071 48.2314 167.171 47.7939 167.171C47.5114 167.171 47.2197 167.121 46.9189 167.021C46.6455 166.929 46.388 166.788 46.1465 166.597C45.9095 166.41 45.7227 166.18 45.5859 165.906C45.4447 165.624 45.374 165.316 45.374 164.983ZM46.5498 164.983C46.5498 165.179 46.5908 165.35 46.6729 165.496C46.7458 165.624 46.8597 165.742 47.0146 165.852C47.1423 165.943 47.2972 166.013 47.4795 166.063C47.6436 166.109 47.8236 166.132 48.0195 166.132C48.4525 166.132 48.8285 166.025 49.1475 165.811C49.4528 165.605 49.6966 165.387 49.8789 165.154V164.245C49.6829 164.108 49.4414 163.997 49.1543 163.91C48.8626 163.824 48.5459 163.78 48.2041 163.78C47.6755 163.78 47.2699 163.892 46.9873 164.115C46.6956 164.343 46.5498 164.632 46.5498 164.983ZM52.8457 167V160.533H53.9395V161.524C54.0169 161.383 54.1172 161.24 54.2402 161.094C54.3724 160.939 54.5046 160.813 54.6367 160.718C54.7598 160.627 54.9284 160.542 55.1426 160.465C55.3294 160.396 55.5345 160.362 55.7578 160.362C55.8991 160.362 56.0518 160.376 56.2158 160.403C56.348 160.426 56.5029 160.469 56.6807 160.533L56.25 161.593C56.1452 161.543 56.0267 161.508 55.8945 161.49C55.7441 161.467 55.6234 161.456 55.5322 161.456C55.3226 161.456 55.1403 161.49 54.9854 161.559C54.8304 161.627 54.6891 161.714 54.5615 161.818C54.4339 161.923 54.3268 162.039 54.2402 162.167C54.1491 162.304 54.0762 162.431 54.0215 162.55V167H52.8457ZM57.8564 167V156.418H59.0322V167H57.8564ZM60.6592 165.811L61.4658 165.052C61.5387 165.161 61.6436 165.284 61.7803 165.421C61.8942 165.535 62.0423 165.646 62.2246 165.756C62.3887 165.852 62.5732 165.936 62.7783 166.009C62.9652 166.073 63.1862 166.104 63.4414 166.104C63.5918 166.104 63.749 166.091 63.9131 166.063C64.0589 166.041 64.207 165.991 64.3574 165.913C64.4896 165.845 64.6012 165.756 64.6924 165.646C64.7835 165.533 64.8291 165.4 64.8291 165.25C64.8291 165.104 64.7835 164.974 64.6924 164.86C64.6012 164.746 64.485 164.653 64.3438 164.58C64.2025 164.507 64.0452 164.446 63.8721 164.396C63.6989 164.345 63.528 164.304 63.3594 164.272C63.168 164.231 62.9242 164.165 62.6279 164.074C62.3682 163.997 62.113 163.883 61.8623 163.732C61.6253 163.591 61.4202 163.402 61.2471 163.165C61.0785 162.937 60.9941 162.652 60.9941 162.311C60.9941 162.046 61.0488 161.796 61.1582 161.559C61.263 161.326 61.4248 161.119 61.6436 160.937C61.8486 160.763 62.0993 160.624 62.3955 160.52C62.6872 160.415 63.013 160.362 63.373 160.362C63.9245 160.362 64.403 160.465 64.8086 160.67C65.2051 160.87 65.5241 161.096 65.7656 161.347L65 162.14C64.8496 161.989 64.6286 161.83 64.3369 161.661C64.068 161.506 63.7376 161.429 63.3457 161.429C62.9583 161.429 62.6598 161.515 62.4502 161.688C62.2451 161.857 62.1426 162.051 62.1426 162.27C62.1426 162.42 62.1859 162.545 62.2725 162.646C62.3682 162.755 62.4867 162.841 62.6279 162.905C62.7738 162.974 62.9424 163.035 63.1338 163.09C63.193 163.108 63.3844 163.156 63.708 163.233C63.9085 163.279 64.1637 163.35 64.4736 163.445C64.7334 163.523 64.9772 163.639 65.2051 163.794C65.4238 163.94 65.6107 164.129 65.7656 164.361C65.916 164.585 65.9912 164.867 65.9912 165.209C65.9912 165.546 65.916 165.838 65.7656 166.084C65.6107 166.335 65.417 166.537 65.1846 166.692C64.9521 166.847 64.6787 166.966 64.3643 167.048C64.0544 167.13 63.7467 167.171 63.4414 167.171C63.1178 167.171 62.8125 167.13 62.5254 167.048C62.2292 166.961 61.9694 166.856 61.7461 166.733C61.5091 166.601 61.2995 166.458 61.1172 166.303C60.9395 166.152 60.7868 165.988 60.6592 165.811ZM67.4473 167V160.533H68.541V161.524C68.6185 161.383 68.7188 161.24 68.8418 161.094C68.974 160.939 69.1061 160.813 69.2383 160.718C69.3613 160.627 69.5299 160.542 69.7441 160.465C69.931 160.396 70.1361 160.362 70.3594 160.362C70.5007 160.362 70.6533 160.376 70.8174 160.403C70.9495 160.426 71.1045 160.469 71.2822 160.533L70.8516 161.593C70.7467 161.543 70.6283 161.508 70.4961 161.49C70.3457 161.467 70.2249 161.456 70.1338 161.456C69.9242 161.456 69.7419 161.49 69.5869 161.559C69.432 161.627 69.2907 161.714 69.1631 161.818C69.0355 161.923 68.9284 162.039 68.8418 162.167C68.7507 162.304 68.6777 162.431 68.623 162.55V167H67.4473ZM72.2051 164.689V160.533H73.3809V164.491C73.3809 164.76 73.4242 164.999 73.5107 165.209C73.5882 165.4 73.6999 165.564 73.8457 165.701C73.9824 165.833 74.1419 165.929 74.3242 165.988C74.502 166.048 74.6911 166.077 74.8916 166.077C75.3154 166.077 75.6595 165.968 75.9238 165.749C76.1882 165.535 76.3955 165.289 76.5459 165.011V160.533H77.7217V167H76.6279V166.009C76.555 166.132 76.4593 166.264 76.3408 166.405C76.2178 166.547 76.0765 166.67 75.917 166.774C75.7393 166.888 75.5479 166.982 75.3428 167.055C75.124 167.132 74.8848 167.171 74.625 167.171C74.306 167.171 74.0029 167.116 73.7158 167.007C73.4287 166.897 73.1735 166.738 72.9502 166.528C72.7269 166.319 72.5469 166.061 72.4102 165.756C72.2734 165.446 72.2051 165.09 72.2051 164.689ZM79.7725 167V156.418H80.9482V161.319C80.9938 161.251 81.069 161.162 81.1738 161.053C81.2923 160.925 81.4199 160.82 81.5566 160.738C81.7207 160.638 81.9053 160.551 82.1104 160.479C82.3291 160.401 82.5752 160.362 82.8486 160.362C83.1676 160.362 83.4753 160.417 83.7715 160.526C84.0677 160.636 84.3252 160.793 84.5439 160.998C84.7673 161.208 84.9473 161.467 85.084 161.777C85.2207 162.087 85.2891 162.443 85.2891 162.844V167H84.1133V163.035C84.1133 162.771 84.07 162.534 83.9834 162.324C83.9014 162.124 83.792 161.96 83.6553 161.832C83.514 161.7 83.3568 161.604 83.1836 161.545C83.0059 161.486 82.8167 161.456 82.6162 161.456C82.3883 161.456 82.1947 161.488 82.0352 161.552C81.8483 161.625 81.6934 161.711 81.5703 161.812C81.4336 161.921 81.3151 162.039 81.2148 162.167C81.1191 162.29 81.0303 162.418 80.9482 162.55V167H79.7725ZM86.6357 163.739C86.6357 163.261 86.7109 162.826 86.8613 162.434C87.0163 162.028 87.235 161.67 87.5176 161.36C87.8047 161.046 88.1419 160.802 88.5293 160.629C88.9258 160.451 89.3678 160.362 89.8555 160.362C90.3066 160.362 90.7282 160.444 91.1201 160.608C91.5075 160.772 91.8402 161.003 92.1182 161.299C92.4053 161.609 92.6263 161.971 92.7812 162.386C92.9362 162.805 93.0137 163.279 93.0137 163.808V163.992C93.0137 164.02 93.0091 164.083 93 164.184H87.7773C87.8001 164.439 87.8708 164.676 87.9893 164.895C88.1169 165.127 88.2764 165.33 88.4678 165.503C88.6637 165.676 88.8916 165.815 89.1514 165.92C89.4157 166.025 89.7005 166.077 90.0059 166.077C90.4616 166.077 90.8512 165.979 91.1748 165.783C91.5166 165.578 91.7764 165.359 91.9541 165.127L92.6924 165.893C92.5511 166.057 92.3916 166.214 92.2139 166.364C92.0498 166.501 91.8447 166.638 91.5986 166.774C91.3753 166.897 91.1247 166.993 90.8467 167.062C90.555 167.134 90.2611 167.171 89.9648 167.171C89.4909 167.171 89.0465 167.084 88.6318 166.911C88.2308 166.747 87.8799 166.506 87.5791 166.187C87.2874 165.881 87.055 165.517 86.8818 165.093C86.7178 164.692 86.6357 164.241 86.6357 163.739ZM87.8115 163.206H91.8652C91.8607 163.028 91.8128 162.837 91.7217 162.632C91.6305 162.422 91.5052 162.231 91.3457 162.058C91.1816 161.88 90.9766 161.736 90.7305 161.627C90.4753 161.513 90.1836 161.456 89.8555 161.456C89.5091 161.456 89.2129 161.518 88.9668 161.641C88.707 161.768 88.4997 161.914 88.3447 162.078C88.1852 162.242 88.0599 162.431 87.9688 162.646C87.8867 162.837 87.8343 163.024 87.8115 163.206Z" fill="white"/>
<rect x="24" y="22" width="307" height="32" rx="4" fill="#F1F3F6"/>
<path d="M60.6719 40.8594L61.7969 40.1875C61.8802 40.3906 62.0052 40.6042 62.1719 40.8281C62.3385 41.0521 62.5156 41.237 62.7031 41.3828C62.9115 41.5443 63.1458 41.6719 63.4062 41.7656C63.6771 41.8646 63.9609 41.9141 64.2578 41.9141C64.5234 41.9141 64.7812 41.875 65.0312 41.7969C65.2812 41.7188 65.5026 41.6068 65.6953 41.4609C65.8932 41.3099 66.0495 41.1276 66.1641 40.9141C66.2786 40.7005 66.3359 40.4401 66.3359 40.1328C66.3359 39.8464 66.2812 39.599 66.1719 39.3906C66.0677 39.1875 65.9167 39.0026 65.7188 38.8359C65.5104 38.6641 65.2786 38.513 65.0234 38.3828L64.1641 37.9609C63.7318 37.7526 63.3672 37.5703 63.0703 37.4141C62.6953 37.2161 62.3646 36.9922 62.0781 36.7422C61.7708 36.4766 61.5312 36.1823 61.3594 35.8594C61.1823 35.526 61.0938 35.1328 61.0938 34.6797C61.0938 34.2943 61.1615 33.9245 61.2969 33.5703C61.4375 33.2005 61.6406 32.8724 61.9062 32.5859C62.1719 32.2995 62.5052 32.0651 62.9062 31.8828C63.3125 31.7005 63.7786 31.6094 64.3047 31.6094C64.7109 31.6094 65.0781 31.6589 65.4062 31.7578C65.7292 31.8568 66.0286 31.987 66.3047 32.1484C66.5651 32.2995 66.7995 32.4766 67.0078 32.6797C67.2266 32.888 67.3932 33.0755 67.5078 33.2422L66.5 34.0547C66.4271 33.9453 66.3073 33.8073 66.1406 33.6406C66.0052 33.5052 65.8385 33.3802 65.6406 33.2656C65.4427 33.151 65.237 33.0599 65.0234 32.9922C64.8047 32.9245 64.5651 32.8906 64.3047 32.8906C63.9922 32.8906 63.724 32.9375 63.5 33.0312C63.2708 33.125 63.0755 33.2526 62.9141 33.4141C62.7526 33.5755 62.6328 33.7604 62.5547 33.9688C62.4766 34.1771 62.4375 34.388 62.4375 34.6016C62.4375 34.8724 62.4948 35.1042 62.6094 35.2969C62.724 35.4896 62.8906 35.6745 63.1094 35.8516C63.3229 36.0286 63.5833 36.1927 63.8906 36.3438C64.3281 36.5625 64.6745 36.7292 64.9297 36.8438C65.4349 37.0729 65.8229 37.2708 66.0938 37.4375C66.4323 37.6458 66.724 37.8724 66.9688 38.1172C67.2135 38.362 67.3984 38.6406 67.5234 38.9531C67.6536 39.2812 67.7188 39.6432 67.7188 40.0391C67.7188 40.5339 67.6302 40.974 67.4531 41.3594C67.2708 41.7552 67.0286 42.0859 66.7266 42.3516C66.4089 42.6276 66.0417 42.8359 65.625 42.9766C65.1875 43.1224 64.737 43.1953 64.2734 43.1953C63.7995 43.1953 63.3672 43.1276 62.9766 42.9922C62.5964 42.862 62.2552 42.6849 61.9531 42.4609C61.651 42.237 61.3958 41.987 61.1875 41.7109C60.9531 41.4036 60.7812 41.1198 60.6719 40.8594ZM69.0625 39.2734C69.0625 38.7266 69.1484 38.2292 69.3203 37.7812C69.4974 37.3177 69.7474 36.9089 70.0703 36.5547C70.3984 36.1953 70.7839 35.9167 71.2266 35.7188C71.6797 35.5156 72.1849 35.4141 72.7422 35.4141C73.2578 35.4141 73.7396 35.5078 74.1875 35.6953C74.6302 35.8828 75.0104 36.1458 75.3281 36.4844C75.6562 36.8385 75.9089 37.2526 76.0859 37.7266C76.263 38.2057 76.3516 38.7474 76.3516 39.3516V39.5625C76.3516 39.5938 76.3464 39.6667 76.3359 39.7812H70.3672C70.3932 40.0729 70.474 40.3438 70.6094 40.5938C70.7552 40.8594 70.9375 41.0911 71.1562 41.2891C71.3802 41.487 71.6406 41.6458 71.9375 41.7656C72.2396 41.8854 72.5651 41.9453 72.9141 41.9453C73.4349 41.9453 73.8802 41.8333 74.25 41.6094C74.6406 41.375 74.9375 41.125 75.1406 40.8594L75.9844 41.7344C75.8229 41.9219 75.6406 42.1016 75.4375 42.2734C75.25 42.4297 75.0156 42.5859 74.7344 42.7422C74.4792 42.8828 74.1927 42.9922 73.875 43.0703C73.5417 43.1536 73.2057 43.1953 72.8672 43.1953C72.3255 43.1953 71.8177 43.0964 71.3438 42.8984C70.8854 42.7109 70.4844 42.4349 70.1406 42.0703C69.8073 41.7214 69.5417 41.3047 69.3438 40.8203C69.1562 40.362 69.0625 39.8464 69.0625 39.2734ZM70.4062 38.6641H75.0391C75.0339 38.4609 74.9792 38.2422 74.875 38.0078C74.7708 37.7682 74.6276 37.5495 74.4453 37.3516C74.2578 37.1484 74.0234 36.9844 73.7422 36.8594C73.4505 36.7292 73.1172 36.6641 72.7422 36.6641C72.3464 36.6641 72.0078 36.7344 71.7266 36.875C71.4297 37.0208 71.1927 37.1875 71.0156 37.375C70.8333 37.5625 70.6901 37.7786 70.5859 38.0234C70.4922 38.2422 70.4323 38.4557 70.4062 38.6641ZM77.5312 40.6953C77.5312 40.3307 77.6068 39.9922 77.7578 39.6797C77.8984 39.388 78.1042 39.1276 78.375 38.8984C78.6302 38.6797 78.9401 38.5078 79.3047 38.3828C79.6484 38.263 80.0391 38.2031 80.4766 38.2031C80.9505 38.2031 81.3776 38.2656 81.7578 38.3906C82.1276 38.5104 82.4349 38.6484 82.6797 38.8047V38.4062C82.6797 38.0104 82.612 37.7031 82.4766 37.4844C82.3411 37.2656 82.1719 37.0911 81.9688 36.9609C81.7812 36.8411 81.5729 36.7604 81.3438 36.7188C81.1406 36.6823 80.9583 36.6641 80.7969 36.6641C80.4688 36.6641 80.1042 36.724 79.7031 36.8438C79.3125 36.9583 78.9453 37.1068 78.6016 37.2891L78.0469 36.1719C78.3958 35.974 78.7891 35.8021 79.2266 35.6562C79.7214 35.4948 80.25 35.4141 80.8125 35.4141C81.3542 35.4141 81.8281 35.4922 82.2344 35.6484C82.651 35.8099 82.9844 36.0156 83.2344 36.2656C83.5052 36.5365 83.7031 36.8255 83.8281 37.1328C83.9635 37.4661 84.0312 37.7995 84.0312 38.1328V43H82.7969V41.9297C82.5156 42.3203 82.1562 42.6276 81.7188 42.8516C81.2708 43.0807 80.7969 43.1953 80.2969 43.1953C79.974 43.1953 79.6406 43.138 79.2969 43.0234C78.9844 42.9193 78.6901 42.7578 78.4141 42.5391C78.1432 42.3255 77.9297 42.0625 77.7734 41.75C77.612 41.4271 77.5312 41.0755 77.5312 40.6953ZM78.875 40.6953C78.875 40.9193 78.9219 41.1146 79.0156 41.2812C79.099 41.4271 79.2292 41.5625 79.4062 41.6875C79.5521 41.7917 79.7292 41.8724 79.9375 41.9297C80.125 41.9818 80.3307 42.0078 80.5547 42.0078C81.0495 42.0078 81.4792 41.8854 81.8438 41.6406C82.1927 41.4062 82.4714 41.1562 82.6797 40.8906V39.8516C82.4557 39.6953 82.1797 39.5677 81.8516 39.4688C81.5182 39.3698 81.1562 39.3203 80.7656 39.3203C80.1615 39.3203 79.6979 39.4479 79.375 39.7031C79.0417 39.9635 78.875 40.2943 78.875 40.6953ZM86.0703 43V35.6094H87.3203V36.7422C87.4089 36.5807 87.5234 36.4167 87.6641 36.25C87.8151 36.0729 87.9661 35.9297 88.1172 35.8203C88.2578 35.7161 88.4505 35.6198 88.6953 35.5312C88.9089 35.4531 89.1432 35.4141 89.3984 35.4141C89.5599 35.4141 89.7344 35.4297 89.9219 35.4609C90.0729 35.487 90.25 35.5365 90.4531 35.6094L89.9609 36.8203C89.8411 36.763 89.7057 36.724 89.5547 36.7031C89.3828 36.6771 89.2448 36.6641 89.1406 36.6641C88.901 36.6641 88.6927 36.7031 88.5156 36.7812C88.3385 36.8594 88.1771 36.9583 88.0312 37.0781C87.8854 37.1979 87.763 37.3307 87.6641 37.4766C87.5599 37.6328 87.4766 37.7786 87.4141 37.9141V43H86.0703ZM91 39.3047C91 38.737 91.0938 38.2292 91.2812 37.7812C91.4792 37.3125 91.7474 36.9036 92.0859 36.5547C92.4349 36.1953 92.8359 35.9167 93.2891 35.7188C93.7474 35.5156 94.2526 35.4141 94.8047 35.4141C95.138 35.4141 95.4635 35.4557 95.7812 35.5391C96.0625 35.612 96.3333 35.7161 96.5938 35.8516C96.8333 35.9766 97.0547 36.1198 97.2578 36.2812C97.4714 36.4531 97.6354 36.6068 97.75 36.7422L96.8359 37.5625C96.6484 37.349 96.388 37.1484 96.0547 36.9609C95.7057 36.763 95.2891 36.6641 94.8047 36.6641C94.4349 36.6641 94.0964 36.7344 93.7891 36.875C93.4714 37.0208 93.2135 37.2083 93.0156 37.4375C92.7969 37.6875 92.6302 37.9688 92.5156 38.2812C92.401 38.5938 92.3438 38.9349 92.3438 39.3047C92.3438 39.6745 92.401 40.0156 92.5156 40.3281C92.6302 40.6406 92.7969 40.9219 93.0156 41.1719C93.2135 41.401 93.4714 41.5885 93.7891 41.7344C94.0964 41.875 94.4349 41.9453 94.8047 41.9453C95.3203 41.9453 95.7604 41.8333 96.125 41.6094C96.4896 41.3854 96.7682 41.1458 96.9609 40.8906L97.8281 41.7656C97.6562 41.9583 97.4896 42.125 97.3281 42.2656C97.1562 42.4167 96.9323 42.5703 96.6562 42.7266C96.4167 42.862 96.1354 42.974 95.8125 43.0625C95.4896 43.151 95.1536 43.1953 94.8047 43.1953C94.2526 43.1953 93.7474 43.0938 93.2891 42.8906C92.8411 42.6927 92.4401 42.4167 92.0859 42.0625C91.7474 41.724 91.4792 41.3125 91.2812 40.8281C91.0938 40.3698 91 39.862 91 39.3047ZM99.4219 43V30.9062H100.766V36.5078C100.818 36.4297 100.904 36.3281 101.023 36.2031C101.159 36.0573 101.305 35.9375 101.461 35.8438C101.648 35.7292 101.859 35.6302 102.094 35.5469C102.344 35.4583 102.625 35.4141 102.938 35.4141C103.302 35.4141 103.654 35.4766 103.992 35.6016C104.331 35.7266 104.625 35.9062 104.875 36.1406C105.13 36.3802 105.336 36.6771 105.492 37.0312C105.648 37.3854 105.727 37.7917 105.727 38.25V43H104.383V38.4688C104.383 38.1667 104.333 37.8958 104.234 37.6562C104.141 37.4271 104.016 37.2396 103.859 37.0938C103.698 36.9427 103.518 36.8333 103.32 36.7656C103.117 36.6979 102.901 36.6641 102.672 36.6641C102.411 36.6641 102.19 36.7005 102.008 36.7734C101.794 36.8568 101.617 36.9557 101.477 37.0703C101.32 37.1953 101.185 37.3307 101.07 37.4766C100.961 37.6172 100.859 37.763 100.766 37.9141V43H99.4219ZM111.555 36.8203V35.6094H113.094V33.0625C113.094 32.6615 113.161 32.3177 113.297 32.0312C113.438 31.7396 113.617 31.4948 113.836 31.2969C114.06 31.099 114.307 30.9531 114.578 30.8594C114.865 30.7604 115.143 30.7109 115.414 30.7109C115.602 30.7109 115.815 30.737 116.055 30.7891C116.31 30.8464 116.596 30.9635 116.914 31.1406L116.422 32.25C116.104 32.0573 115.799 31.9609 115.508 31.9609C115.18 31.9609 114.917 32.0677 114.719 32.2812C114.531 32.4844 114.438 32.7708 114.438 33.1406V35.6094H116.352V36.8203H114.438V43H113.094V36.8203H111.555ZM117.234 39.3047C117.234 38.7422 117.328 38.2318 117.516 37.7734C117.714 37.2995 117.982 36.8906 118.32 36.5469C118.674 36.1927 119.076 35.9167 119.523 35.7188C119.982 35.5156 120.487 35.4141 121.039 35.4141C121.586 35.4141 122.089 35.5156 122.547 35.7188C123.005 35.9219 123.409 36.1979 123.758 36.5469C124.096 36.8906 124.365 37.2995 124.562 37.7734C124.75 38.2318 124.844 38.7422 124.844 39.3047C124.844 39.862 124.75 40.3698 124.562 40.8281C124.365 41.3125 124.096 41.724 123.758 42.0625C123.409 42.4115 123.005 42.6875 122.547 42.8906C122.089 43.0938 121.586 43.1953 121.039 43.1953C120.487 43.1953 119.982 43.0938 119.523 42.8906C119.076 42.6927 118.674 42.4167 118.32 42.0625C117.982 41.724 117.714 41.3125 117.516 40.8281C117.328 40.3698 117.234 39.862 117.234 39.3047ZM118.75 38.2812C118.635 38.5938 118.578 38.9349 118.578 39.3047C118.578 39.6745 118.635 40.0156 118.75 40.3281C118.865 40.6406 119.031 40.9219 119.25 41.1719C119.448 41.401 119.706 41.5885 120.023 41.7344C120.331 41.875 120.669 41.9453 121.039 41.9453C121.409 41.9453 121.747 41.875 122.055 41.7344C122.372 41.5885 122.63 41.401 122.828 41.1719C123.047 40.9219 123.214 40.6406 123.328 40.3281C123.443 40.0156 123.5 39.6745 123.5 39.3047C123.5 38.9349 123.443 38.5938 123.328 38.2812C123.214 37.9688 123.047 37.6875 122.828 37.4375C122.63 37.2083 122.372 37.0208 122.055 36.875C121.747 36.7344 121.409 36.6641 121.039 36.6641C120.669 36.6641 120.331 36.7344 120.023 36.875C119.706 37.0208 119.448 37.2083 119.25 37.4375C119.031 37.6875 118.865 37.9688 118.75 38.2812ZM126.383 43V35.6094H127.633V36.7422C127.721 36.5807 127.836 36.4167 127.977 36.25C128.128 36.0729 128.279 35.9297 128.43 35.8203C128.57 35.7161 128.763 35.6198 129.008 35.5312C129.221 35.4531 129.456 35.4141 129.711 35.4141C129.872 35.4141 130.047 35.4297 130.234 35.4609C130.385 35.487 130.562 35.5365 130.766 35.6094L130.273 36.8203C130.154 36.763 130.018 36.724 129.867 36.7031C129.695 36.6771 129.557 36.6641 129.453 36.6641C129.214 36.6641 129.005 36.7031 128.828 36.7812C128.651 36.8594 128.49 36.9583 128.344 37.0781C128.198 37.1979 128.076 37.3307 127.977 37.4766C127.872 37.6328 127.789 37.7786 127.727 37.9141V43H126.383ZM135.797 39.3047C135.797 38.737 135.891 38.2292 136.078 37.7812C136.276 37.3125 136.544 36.9036 136.883 36.5547C137.232 36.1953 137.633 35.9167 138.086 35.7188C138.544 35.5156 139.049 35.4141 139.602 35.4141C139.935 35.4141 140.26 35.4557 140.578 35.5391C140.859 35.612 141.13 35.7161 141.391 35.8516C141.63 35.9766 141.852 36.1198 142.055 36.2812C142.268 36.4531 142.432 36.6068 142.547 36.7422L141.633 37.5625C141.445 37.349 141.185 37.1484 140.852 36.9609C140.503 36.763 140.086 36.6641 139.602 36.6641C139.232 36.6641 138.893 36.7344 138.586 36.875C138.268 37.0208 138.01 37.2083 137.812 37.4375C137.594 37.6875 137.427 37.9688 137.312 38.2812C137.198 38.5938 137.141 38.9349 137.141 39.3047C137.141 39.6745 137.198 40.0156 137.312 40.3281C137.427 40.6406 137.594 40.9219 137.812 41.1719C138.01 41.401 138.268 41.5885 138.586 41.7344C138.893 41.875 139.232 41.9453 139.602 41.9453C140.117 41.9453 140.557 41.8333 140.922 41.6094C141.286 41.3854 141.565 41.1458 141.758 40.8906L142.625 41.7656C142.453 41.9583 142.286 42.125 142.125 42.2656C141.953 42.4167 141.729 42.5703 141.453 42.7266C141.214 42.862 140.932 42.974 140.609 43.0625C140.286 43.151 139.951 43.1953 139.602 43.1953C139.049 43.1953 138.544 43.0938 138.086 42.8906C137.638 42.6927 137.237 42.4167 136.883 42.0625C136.544 41.724 136.276 41.3125 136.078 40.8281C135.891 40.3698 135.797 39.862 135.797 39.3047ZM143.578 40.6953C143.578 40.3307 143.654 39.9922 143.805 39.6797C143.945 39.388 144.151 39.1276 144.422 38.8984C144.677 38.6797 144.987 38.5078 145.352 38.3828C145.695 38.263 146.086 38.2031 146.523 38.2031C146.997 38.2031 147.424 38.2656 147.805 38.3906C148.174 38.5104 148.482 38.6484 148.727 38.8047V38.4062C148.727 38.0104 148.659 37.7031 148.523 37.4844C148.388 37.2656 148.219 37.0911 148.016 36.9609C147.828 36.8411 147.62 36.7604 147.391 36.7188C147.188 36.6823 147.005 36.6641 146.844 36.6641C146.516 36.6641 146.151 36.724 145.75 36.8438C145.359 36.9583 144.992 37.1068 144.648 37.2891L144.094 36.1719C144.443 35.974 144.836 35.8021 145.273 35.6562C145.768 35.4948 146.297 35.4141 146.859 35.4141C147.401 35.4141 147.875 35.4922 148.281 35.6484C148.698 35.8099 149.031 36.0156 149.281 36.2656C149.552 36.5365 149.75 36.8255 149.875 37.1328C150.01 37.4661 150.078 37.7995 150.078 38.1328V43H148.844V41.9297C148.562 42.3203 148.203 42.6276 147.766 42.8516C147.318 43.0807 146.844 43.1953 146.344 43.1953C146.021 43.1953 145.688 43.138 145.344 43.0234C145.031 42.9193 144.737 42.7578 144.461 42.5391C144.19 42.3255 143.977 42.0625 143.82 41.75C143.659 41.4271 143.578 41.0755 143.578 40.6953ZM144.922 40.6953C144.922 40.9193 144.969 41.1146 145.062 41.2812C145.146 41.4271 145.276 41.5625 145.453 41.6875C145.599 41.7917 145.776 41.8724 145.984 41.9297C146.172 41.9818 146.378 42.0078 146.602 42.0078C147.096 42.0078 147.526 41.8854 147.891 41.6406C148.24 41.4062 148.518 41.1562 148.727 40.8906V39.8516C148.503 39.6953 148.227 39.5677 147.898 39.4688C147.565 39.3698 147.203 39.3203 146.812 39.3203C146.208 39.3203 145.745 39.4479 145.422 39.7031C145.089 39.9635 144.922 40.2943 144.922 40.6953ZM152.117 43V35.6094H153.367V36.6484C153.56 36.3359 153.844 36.0521 154.219 35.7969C154.589 35.5417 155.068 35.4141 155.656 35.4141C156.021 35.4141 156.37 35.4766 156.703 35.6016C157.042 35.7266 157.336 35.9062 157.586 36.1406C157.841 36.3802 158.044 36.6771 158.195 37.0312C158.346 37.3906 158.422 37.7969 158.422 38.25V43H157.078V38.4688C157.078 38.1562 157.031 37.8854 156.938 37.6562C156.849 37.4375 156.721 37.25 156.555 37.0938C156.393 36.9427 156.214 36.8333 156.016 36.7656C155.812 36.6979 155.596 36.6641 155.367 36.6641C155.107 36.6641 154.885 36.7005 154.703 36.7734C154.49 36.8568 154.312 36.9557 154.172 37.0703C154.016 37.1953 153.88 37.3307 153.766 37.4766C153.656 37.6172 153.555 37.763 153.461 37.9141V43H152.117ZM159.969 39.3047C159.969 38.7474 160.06 38.237 160.242 37.7734C160.424 37.3047 160.68 36.8958 161.008 36.5469C161.341 36.1927 161.719 35.9167 162.141 35.7188C162.578 35.5156 163.047 35.4141 163.547 35.4141C164.151 35.4141 164.651 35.5339 165.047 35.7734C165.438 36.0078 165.732 36.2578 165.93 36.5234V30.9062H167.273V43H166.047V41.9297C165.958 42.0807 165.831 42.2344 165.664 42.3906C165.513 42.5365 165.328 42.6693 165.109 42.7891C164.901 42.9036 164.669 43 164.414 43.0781C164.159 43.1562 163.875 43.1953 163.562 43.1953C163.062 43.1953 162.594 43.0938 162.156 42.8906C161.74 42.6979 161.359 42.4219 161.016 42.0625C160.688 41.7188 160.43 41.3073 160.242 40.8281C160.06 40.3646 159.969 39.8568 159.969 39.3047ZM161.484 38.2812C161.37 38.5938 161.312 38.9349 161.312 39.3047C161.312 39.6745 161.37 40.0156 161.484 40.3281C161.599 40.651 161.763 40.9323 161.977 41.1719C162.18 41.401 162.432 41.5885 162.734 41.7344C163.031 41.875 163.362 41.9453 163.727 41.9453C164.003 41.9453 164.26 41.9036 164.5 41.8203C164.75 41.737 164.958 41.638 165.125 41.5234C165.302 41.4089 165.461 41.2708 165.602 41.1094C165.732 40.9635 165.841 40.8151 165.93 40.6641V37.9453C165.721 37.612 165.435 37.3125 165.07 37.0469C164.716 36.7917 164.273 36.6641 163.742 36.6641C163.378 36.6641 163.047 36.7344 162.75 36.875C162.438 37.0208 162.182 37.2083 161.984 37.4375C161.766 37.6875 161.599 37.9688 161.484 38.2812ZM169.891 33.8828C169.708 33.7005 169.617 33.487 169.617 33.2422C169.617 32.9974 169.708 32.7839 169.891 32.6016C170.073 32.4193 170.286 32.3281 170.531 32.3281C170.776 32.3281 170.99 32.4193 171.172 32.6016C171.354 32.7839 171.445 32.9974 171.445 33.2422C171.445 33.487 171.354 33.7005 171.172 33.8828C170.995 34.0599 170.781 34.1484 170.531 34.1484C170.281 34.1484 170.068 34.0599 169.891 33.8828ZM169.859 43V35.6094H171.203V43H169.859ZM172.984 39.3047C172.984 38.7474 173.076 38.237 173.258 37.7734C173.44 37.3047 173.695 36.8958 174.023 36.5469C174.357 36.1927 174.734 35.9167 175.156 35.7188C175.594 35.5156 176.062 35.4141 176.562 35.4141C177.167 35.4141 177.667 35.5339 178.062 35.7734C178.453 36.0078 178.747 36.2578 178.945 36.5234V30.9062H180.289V43H179.062V41.9297C178.974 42.0807 178.846 42.2344 178.68 42.3906C178.529 42.5365 178.344 42.6693 178.125 42.7891C177.917 42.9036 177.685 43 177.43 43.0781C177.174 43.1562 176.891 43.1953 176.578 43.1953C176.078 43.1953 175.609 43.0938 175.172 42.8906C174.755 42.6979 174.375 42.4219 174.031 42.0625C173.703 41.7188 173.445 41.3073 173.258 40.8281C173.076 40.3646 172.984 39.8568 172.984 39.3047ZM174.5 38.2812C174.385 38.5938 174.328 38.9349 174.328 39.3047C174.328 39.6745 174.385 40.0156 174.5 40.3281C174.615 40.651 174.779 40.9323 174.992 41.1719C175.195 41.401 175.448 41.5885 175.75 41.7344C176.047 41.875 176.378 41.9453 176.742 41.9453C177.018 41.9453 177.276 41.9036 177.516 41.8203C177.766 41.737 177.974 41.638 178.141 41.5234C178.318 41.4089 178.477 41.2708 178.617 41.1094C178.747 40.9635 178.857 40.8151 178.945 40.6641V37.9453C178.737 37.612 178.451 37.3125 178.086 37.0469C177.732 36.7917 177.289 36.6641 176.758 36.6641C176.393 36.6641 176.062 36.7344 175.766 36.875C175.453 37.0208 175.198 37.2083 175 37.4375C174.781 37.6875 174.615 37.9688 174.5 38.2812ZM182.281 40.6953C182.281 40.3307 182.357 39.9922 182.508 39.6797C182.648 39.388 182.854 39.1276 183.125 38.8984C183.38 38.6797 183.69 38.5078 184.055 38.3828C184.398 38.263 184.789 38.2031 185.227 38.2031C185.701 38.2031 186.128 38.2656 186.508 38.3906C186.878 38.5104 187.185 38.6484 187.43 38.8047V38.4062C187.43 38.0104 187.362 37.7031 187.227 37.4844C187.091 37.2656 186.922 37.0911 186.719 36.9609C186.531 36.8411 186.323 36.7604 186.094 36.7188C185.891 36.6823 185.708 36.6641 185.547 36.6641C185.219 36.6641 184.854 36.724 184.453 36.8438C184.062 36.9583 183.695 37.1068 183.352 37.2891L182.797 36.1719C183.146 35.974 183.539 35.8021 183.977 35.6562C184.471 35.4948 185 35.4141 185.562 35.4141C186.104 35.4141 186.578 35.4922 186.984 35.6484C187.401 35.8099 187.734 36.0156 187.984 36.2656C188.255 36.5365 188.453 36.8255 188.578 37.1328C188.714 37.4661 188.781 37.7995 188.781 38.1328V43H187.547V41.9297C187.266 42.3203 186.906 42.6276 186.469 42.8516C186.021 43.0807 185.547 43.1953 185.047 43.1953C184.724 43.1953 184.391 43.138 184.047 43.0234C183.734 42.9193 183.44 42.7578 183.164 42.5391C182.893 42.3255 182.68 42.0625 182.523 41.75C182.362 41.4271 182.281 41.0755 182.281 40.6953ZM183.625 40.6953C183.625 40.9193 183.672 41.1146 183.766 41.2812C183.849 41.4271 183.979 41.5625 184.156 41.6875C184.302 41.7917 184.479 41.8724 184.688 41.9297C184.875 41.9818 185.081 42.0078 185.305 42.0078C185.799 42.0078 186.229 41.8854 186.594 41.6406C186.943 41.4062 187.221 41.1562 187.43 40.8906V39.8516C187.206 39.6953 186.93 39.5677 186.602 39.4688C186.268 39.3698 185.906 39.3203 185.516 39.3203C184.911 39.3203 184.448 39.4479 184.125 39.7031C183.792 39.9635 183.625 40.2943 183.625 40.6953ZM190.18 36.8203V35.6094H191.617V33.3516H192.969V35.6094H195.266V36.8203H192.969V40.8047C192.969 41.1745 193.057 41.4557 193.234 41.6484C193.417 41.8464 193.669 41.9453 193.992 41.9453C194.18 41.9453 194.339 41.9167 194.469 41.8594C194.604 41.7969 194.742 41.724 194.883 41.6406L195.383 42.7422C195.07 42.9193 194.789 43.0391 194.539 43.1016C194.294 43.1641 194.073 43.1953 193.875 43.1953C193.599 43.1953 193.328 43.1484 193.062 43.0547C192.781 42.9557 192.542 42.8177 192.344 42.6406C192.12 42.4427 191.945 42.2031 191.82 41.9219C191.685 41.6198 191.617 41.2708 191.617 40.875V36.8203H190.18ZM196.328 39.2734C196.328 38.7266 196.414 38.2292 196.586 37.7812C196.763 37.3177 197.013 36.9089 197.336 36.5547C197.664 36.1953 198.049 35.9167 198.492 35.7188C198.945 35.5156 199.451 35.4141 200.008 35.4141C200.523 35.4141 201.005 35.5078 201.453 35.6953C201.896 35.8828 202.276 36.1458 202.594 36.4844C202.922 36.8385 203.174 37.2526 203.352 37.7266C203.529 38.2057 203.617 38.7474 203.617 39.3516V39.5625C203.617 39.5938 203.612 39.6667 203.602 39.7812H197.633C197.659 40.0729 197.74 40.3438 197.875 40.5938C198.021 40.8594 198.203 41.0911 198.422 41.2891C198.646 41.487 198.906 41.6458 199.203 41.7656C199.505 41.8854 199.831 41.9453 200.18 41.9453C200.701 41.9453 201.146 41.8333 201.516 41.6094C201.906 41.375 202.203 41.125 202.406 40.8594L203.25 41.7344C203.089 41.9219 202.906 42.1016 202.703 42.2734C202.516 42.4297 202.281 42.5859 202 42.7422C201.745 42.8828 201.458 42.9922 201.141 43.0703C200.807 43.1536 200.471 43.1953 200.133 43.1953C199.591 43.1953 199.083 43.0964 198.609 42.8984C198.151 42.7109 197.75 42.4349 197.406 42.0703C197.073 41.7214 196.807 41.3047 196.609 40.8203C196.422 40.362 196.328 39.8464 196.328 39.2734ZM197.672 38.6641H202.305C202.299 38.4609 202.245 38.2422 202.141 38.0078C202.036 37.7682 201.893 37.5495 201.711 37.3516C201.523 37.1484 201.289 36.9844 201.008 36.8594C200.716 36.7292 200.383 36.6641 200.008 36.6641C199.612 36.6641 199.273 36.7344 198.992 36.875C198.695 37.0208 198.458 37.1875 198.281 37.375C198.099 37.5625 197.956 37.7786 197.852 38.0234C197.758 38.2422 197.698 38.4557 197.672 38.6641ZM204.672 41.6406L205.594 40.7734C205.677 40.8984 205.797 41.0391 205.953 41.1953C206.083 41.3255 206.253 41.4531 206.461 41.5781C206.648 41.6875 206.859 41.7839 207.094 41.8672C207.307 41.9401 207.56 41.9766 207.852 41.9766C208.023 41.9766 208.203 41.9609 208.391 41.9297C208.557 41.9036 208.727 41.8464 208.898 41.7578C209.049 41.6797 209.177 41.5781 209.281 41.4531C209.385 41.3229 209.438 41.1719 209.438 41C209.438 40.8333 209.385 40.6849 209.281 40.5547C209.177 40.4245 209.044 40.3177 208.883 40.2344C208.721 40.151 208.542 40.0807 208.344 40.0234C208.146 39.9661 207.951 39.9193 207.758 39.8828C207.539 39.8359 207.26 39.7604 206.922 39.6562C206.625 39.5677 206.333 39.4375 206.047 39.2656C205.776 39.1042 205.542 38.888 205.344 38.6172C205.151 38.3568 205.055 38.0312 205.055 37.6406C205.055 37.3385 205.117 37.0521 205.242 36.7812C205.362 36.5156 205.547 36.2786 205.797 36.0703C206.031 35.8724 206.318 35.7135 206.656 35.5938C206.99 35.474 207.362 35.4141 207.773 35.4141C208.404 35.4141 208.951 35.5312 209.414 35.7656C209.867 35.9948 210.232 36.2526 210.508 36.5391L209.633 37.4453C209.461 37.2734 209.208 37.0911 208.875 36.8984C208.568 36.7214 208.19 36.6328 207.742 36.6328C207.299 36.6328 206.958 36.7318 206.719 36.9297C206.484 37.1224 206.367 37.3438 206.367 37.5938C206.367 37.7656 206.417 37.9089 206.516 38.0234C206.625 38.1484 206.76 38.2474 206.922 38.3203C207.089 38.3984 207.281 38.4688 207.5 38.5312C207.568 38.5521 207.786 38.6068 208.156 38.6953C208.385 38.7474 208.677 38.8281 209.031 38.9375C209.328 39.026 209.607 39.1589 209.867 39.3359C210.117 39.5026 210.331 39.7188 210.508 39.9844C210.68 40.2396 210.766 40.5625 210.766 40.9531C210.766 41.3385 210.68 41.6719 210.508 41.9531C210.331 42.2396 210.109 42.4714 209.844 42.6484C209.578 42.8255 209.266 42.9609 208.906 43.0547C208.552 43.1484 208.201 43.1953 207.852 43.1953C207.482 43.1953 207.133 43.1484 206.805 43.0547C206.466 42.9557 206.169 42.8359 205.914 42.6953C205.643 42.5443 205.404 42.3802 205.195 42.2031C204.992 42.0312 204.818 41.8438 204.672 41.6406Z" fill="#ACACAC"/>
<path d="M39.8723 32L34.6846 37.3005C34.3041 37.6892 34.3041 38.3108 34.6846 38.6995L39.8723 44M46 38H34.4195" stroke="#707070" stroke-width="1.5" stroke-linejoin="round"/>
</g>
</svg>
