<svg width="351" height="235" viewBox="0 0 351 235" fill="none" xmlns="http://www.w3.org/2000/svg">
<mask id="mask0" mask-type="alpha" maskUnits="userSpaceOnUse" x="0" y="0" width="351" height="235">
<rect width="351" height="235" fill="#C4C4C4"/>
</mask>
<g mask="url(#mask0)">
<rect width="351" height="235" fill="white"/>
<path d="M41.496 26.2H38.496L34.848 36.28L31.104 26.2H28.728L24.912 36.28L21.36 26.2H18.096L24.72 43.576L29.832 30.976L34.872 43.576L41.496 26.2ZM49.4736 31.336C47.2656 31.336 46.2576 32.992 46.2576 32.992V24.856H43.3776V43H46.2576V35.512C46.2576 35.512 47.0256 34.024 48.5136 34.024C49.7616 34.024 50.7696 34.72 50.7696 36.352V43H53.6496V35.632C53.6496 32.896 51.6816 31.336 49.4736 31.336ZM60.9821 40.888C60.0941 40.888 58.9181 40.624 58.9181 39.424C58.9181 38.2 60.1421 37.816 61.0301 37.816C62.5901 37.816 63.6221 38.392 63.6221 38.392V39.568C63.6221 39.568 62.7101 40.888 60.9821 40.888ZM61.3181 31.336C58.9421 31.336 56.8301 32.368 56.8301 32.368L57.7661 34.744C57.7661 34.744 59.5181 33.904 61.1741 33.904C62.1821 33.904 63.6221 34.384 63.6221 35.872V36.52C63.6221 36.52 62.5421 35.704 60.4541 35.704C57.9821 35.704 55.9901 37.288 55.9901 39.472C55.9901 41.896 57.9581 43.288 60.0941 43.288C62.6621 43.288 63.8381 41.56 63.8381 41.56V43H66.5021V35.584C66.5021 32.992 64.5821 31.336 61.3181 31.336ZM68.4733 34.216H70.7053V39.256C70.7053 41.68 72.3853 43.288 74.5933 43.288C76.2493 43.288 77.3293 42.544 77.3293 42.544L76.2733 40.192C76.2733 40.192 75.7213 40.6 75.0733 40.6C74.3053 40.6 73.5853 40.192 73.5853 38.8V34.216H77.0173V31.624H73.5853V28.24H70.7053V31.624H68.4733V34.216ZM91.7764 40.6C89.8324 40.6 88.5844 39.088 88.5844 37.312C88.5844 35.536 89.8324 34.024 91.7764 34.024C93.5044 34.024 94.4404 35.224 94.4404 35.224L96.4324 33.448C96.4324 33.448 94.8244 31.336 91.7764 31.336C88.3684 31.336 85.6564 33.952 85.6564 37.312C85.6564 40.648 88.3684 43.288 91.7764 43.288C94.8484 43.288 96.4804 41.128 96.4804 41.128L94.5844 39.208C94.5844 39.208 93.7204 40.6 91.7764 40.6ZM102.818 40.888C101.93 40.888 100.754 40.624 100.754 39.424C100.754 38.2 101.978 37.816 102.866 37.816C104.426 37.816 105.458 38.392 105.458 38.392V39.568C105.458 39.568 104.546 40.888 102.818 40.888ZM103.154 31.336C100.778 31.336 98.6661 32.368 98.6661 32.368L99.6021 34.744C99.6021 34.744 101.354 33.904 103.01 33.904C104.018 33.904 105.458 34.384 105.458 35.872V36.52C105.458 36.52 104.378 35.704 102.29 35.704C99.8181 35.704 97.8261 37.288 97.8261 39.472C97.8261 41.896 99.7941 43.288 101.93 43.288C104.498 43.288 105.674 41.56 105.674 41.56V43H108.338V35.584C108.338 32.992 106.418 31.336 103.154 31.336ZM117.317 31.336C114.917 31.336 113.909 33.28 113.909 33.28V31.624H111.221V43H114.101V35.488C114.101 35.488 114.869 34.024 116.357 34.024C117.605 34.024 118.613 34.72 118.613 36.352V43H121.493V35.632C121.493 32.896 119.525 31.336 117.317 31.336ZM130.464 47.608C130.464 47.608 131.784 48.808 133.512 48.808C135.192 48.808 136.8 48.04 137.784 45.544L143.304 31.624H140.208L137.208 39.952L133.368 31.624H130.176L135.72 43.264L135.264 44.44C134.712 45.832 134.304 46.12 133.32 46.12C132.576 46.12 131.808 45.376 131.808 45.376L130.464 47.608ZM149.853 31.336C146.469 31.336 143.781 33.952 143.781 37.312C143.781 40.648 146.469 43.288 149.853 43.288C153.237 43.288 155.925 40.648 155.925 37.312C155.925 33.952 153.237 31.336 149.853 31.336ZM149.853 40.6C147.909 40.6 146.709 39.088 146.709 37.312C146.709 35.536 147.909 34.024 149.853 34.024C151.797 34.024 152.997 35.536 152.997 37.312C152.997 39.088 151.797 40.6 149.853 40.6ZM162.202 43.288C164.53 43.288 165.61 41.344 165.61 41.344V43H168.298V31.624H165.418V39.208C165.418 39.208 164.65 40.6 163.162 40.6C161.698 40.6 160.906 39.88 160.906 38.2V31.624H158.026V38.992C158.026 41.728 160.018 43.288 162.202 43.288ZM183.533 31.336C180.149 31.336 177.461 33.952 177.461 37.312C177.461 40.648 180.149 43.288 183.533 43.288C186.917 43.288 189.605 40.648 189.605 37.312C189.605 33.952 186.917 31.336 183.533 31.336ZM183.533 40.6C181.589 40.6 180.389 39.088 180.389 37.312C180.389 35.536 181.589 34.024 183.533 34.024C185.477 34.024 186.677 35.536 186.677 37.312C186.677 39.088 185.477 40.6 183.533 40.6ZM195.786 29.272C195.786 27.808 196.53 27.256 197.322 27.256C198.138 27.256 198.618 27.664 198.618 27.664L199.698 25.24C199.698 25.24 198.618 24.568 197.034 24.568C195.186 24.568 192.906 25.648 192.906 28.936V31.624H190.65V34.168H192.906V43H195.786V34.168H200.394V43H203.274V34.168H206.154V31.624H203.274V29.272C203.274 27.808 204.018 27.256 204.81 27.256C205.626 27.256 206.106 27.664 206.106 27.664L207.186 25.24C207.186 25.24 206.106 24.568 204.522 24.568C202.674 24.568 200.394 25.648 200.394 28.936V31.624H195.786V29.272ZM212.962 31.336C209.674 31.336 207.25 33.976 207.25 37.312C207.25 40.648 209.914 43.288 213.37 43.288C216.13 43.288 217.93 41.656 217.93 41.656L216.49 39.496C216.49 39.496 215.362 40.648 213.37 40.648C211.57 40.648 210.394 39.352 210.178 38.344H218.674C218.698 37.912 218.698 37.48 218.698 37.264C218.698 33.76 216.082 31.336 212.962 31.336ZM210.178 36.256C210.274 35.248 211.114 33.952 212.962 33.952C214.858 33.952 215.77 35.272 215.818 36.256H210.178ZM226.647 31.336C224.535 31.336 223.551 33.28 223.551 33.28V31.624H220.815V43H223.695V35.56C223.695 35.56 224.487 34.024 226.239 34.024C227.079 34.024 227.607 34.288 227.607 34.288L228.615 31.696C228.615 31.696 227.679 31.336 226.647 31.336ZM236.552 30.712C236.552 31.84 236.072 32.296 235.184 33.064C233.624 34.408 233.024 34.744 233.024 36.304V38.08H235.88V36.856C235.88 35.992 235.928 35.944 236.768 35.2C238.328 33.832 239.432 32.824 239.432 30.712C239.432 28.048 237.2 25.912 234.32 25.912C230.192 25.912 229.04 29.824 229.04 29.824L231.488 30.952C231.488 30.952 232.256 28.648 234.32 28.648C235.52 28.648 236.552 29.584 236.552 30.712ZM232.568 41.392C232.568 42.448 233.408 43.288 234.464 43.288C235.52 43.288 236.36 42.448 236.36 41.392C236.36 40.336 235.52 39.496 234.464 39.496C233.408 39.496 232.568 40.336 232.568 41.392Z" fill="#333333"/>
<path d="M24.224 83.4C22.016 83.4 20.496 81.56 20.496 79.4C20.496 77.24 22.016 75.4 24.224 75.4C26.064 75.4 27.072 76.632 27.072 76.632L28.368 75.368C28.368 75.368 26.912 73.608 24.224 73.608C20.992 73.608 18.544 76.088 18.544 79.4C18.544 82.712 20.992 85.192 24.224 85.192C27.056 85.192 28.528 83.288 28.528 83.288L27.248 82.024C27.248 82.024 26.192 83.4 24.224 83.4ZM32.5565 85.192C34.1085 85.192 34.8285 83.896 34.8285 83.896V85H36.6205V77.416H34.7005V82.472C34.7005 82.472 34.1885 83.4 33.1965 83.4C32.2205 83.4 31.6925 82.92 31.6925 81.8V77.416H29.7725V82.328C29.7725 84.152 31.1005 85.192 32.5565 85.192ZM38.7621 85H40.6821V72.904H38.7621V85ZM42.2114 79.144H43.6994V82.504C43.6994 84.12 44.8194 85.192 46.2914 85.192C47.3954 85.192 48.1154 84.696 48.1154 84.696L47.4114 83.128C47.4114 83.128 47.0434 83.4 46.6114 83.4C46.0994 83.4 45.6194 83.128 45.6194 82.2V79.144H47.9074V77.416H45.6194V75.16H43.6994V77.416H42.2114V79.144ZM52.2596 85.192C53.8116 85.192 54.5316 83.896 54.5316 83.896V85H56.3236V77.416H54.4036V82.472C54.4036 82.472 53.8916 83.4 52.8996 83.4C51.9236 83.4 51.3956 82.92 51.3956 81.8V77.416H49.4756V82.328C49.4756 84.152 50.8036 85.192 52.2596 85.192ZM62.1293 77.224C60.7213 77.224 60.0653 78.52 60.0653 78.52V77.416H58.2413V85H60.1613V80.04C60.1613 80.04 60.6893 79.016 61.8573 79.016C62.4173 79.016 62.7693 79.192 62.7693 79.192L63.4413 77.464C63.4413 77.464 62.8173 77.224 62.1293 77.224ZM67.4748 77.224C65.2828 77.224 63.6668 78.984 63.6668 81.208C63.6668 83.432 65.4428 85.192 67.7468 85.192C69.5868 85.192 70.7868 84.104 70.7868 84.104L69.8268 82.664C69.8268 82.664 69.0748 83.432 67.7468 83.432C66.5468 83.432 65.7628 82.568 65.6188 81.896H71.2828C71.2987 81.608 71.2987 81.32 71.2987 81.176C71.2987 78.84 69.5548 77.224 67.4748 77.224ZM65.6188 80.504C65.6828 79.832 66.2428 78.968 67.4748 78.968C68.7388 78.968 69.3468 79.848 69.3788 80.504H65.6188Z" fill="#333333"/>
<path d="M42.125 148L46.5312 136.797H47.7734L52.1406 148H50.7344L49.5703 144.977H44.7344L43.5703 148H42.125ZM45.2344 143.695H49.0703L47.1484 138.719L45.2344 143.695ZM52.7812 144.305C52.7812 143.747 52.8724 143.237 53.0547 142.773C53.2422 142.299 53.5 141.891 53.8281 141.547C54.1719 141.188 54.5521 140.911 54.9688 140.719C55.4062 140.516 55.875 140.414 56.375 140.414C56.6875 140.414 56.9714 140.453 57.2266 140.531C57.5026 140.615 57.7344 140.708 57.9219 140.812C58.125 140.927 58.3099 141.062 58.4766 141.219C58.6432 141.375 58.7708 141.529 58.8594 141.68V140.609H60.0859V148.031C60.0859 148.693 59.9844 149.253 59.7812 149.711C59.5677 150.19 59.2891 150.591 58.9453 150.914C58.6016 151.232 58.1953 151.471 57.7266 151.633C57.2526 151.794 56.7656 151.875 56.2656 151.875C55.5104 151.875 54.8568 151.729 54.3047 151.438C53.763 151.151 53.3177 150.826 52.9688 150.461L53.7891 149.453C54.0443 149.755 54.3672 150.023 54.7578 150.258C55.1693 150.503 55.6771 150.625 56.2812 150.625C57.0208 150.625 57.6146 150.411 58.0625 149.984C58.5156 149.552 58.7422 148.922 58.7422 148.094V147.07C58.6745 147.164 58.5807 147.271 58.4609 147.391C58.3411 147.51 58.1771 147.633 57.9688 147.758C57.776 147.872 57.5443 147.974 57.2734 148.062C56.9974 148.151 56.6927 148.195 56.3594 148.195C55.8594 148.195 55.3906 148.094 54.9531 147.891C54.5312 147.693 54.1536 147.417 53.8203 147.062C53.4974 146.714 53.2422 146.302 53.0547 145.828C52.8724 145.365 52.7812 144.857 52.7812 144.305ZM54.2969 143.281C54.1823 143.594 54.125 143.935 54.125 144.305C54.125 144.674 54.1823 145.016 54.2969 145.328C54.4115 145.651 54.5755 145.932 54.7891 146.172C54.9922 146.401 55.2448 146.589 55.5469 146.734C55.8438 146.875 56.1797 146.945 56.5547 146.945C56.8203 146.945 57.0729 146.904 57.3125 146.82C57.5521 146.737 57.7604 146.641 57.9375 146.531C58.1094 146.422 58.2682 146.286 58.4141 146.125C58.5495 145.969 58.6589 145.826 58.7422 145.695V142.914C58.5339 142.596 58.2526 142.31 57.8984 142.055C57.5339 141.794 57.0859 141.664 56.5547 141.664C56.1797 141.664 55.8438 141.734 55.5469 141.875C55.2448 142.021 54.9922 142.208 54.7891 142.438C54.5755 142.677 54.4115 142.958 54.2969 143.281ZM62.4062 138.883C62.224 138.701 62.1328 138.487 62.1328 138.242C62.1328 137.997 62.224 137.784 62.4062 137.602C62.5885 137.419 62.8021 137.328 63.0469 137.328C63.2917 137.328 63.5052 137.419 63.6875 137.602C63.8698 137.784 63.9609 137.997 63.9609 138.242C63.9609 138.487 63.8698 138.701 63.6875 138.883C63.5104 139.06 63.2969 139.148 63.0469 139.148C62.7969 139.148 62.5833 139.06 62.4062 138.883ZM62.375 148V140.609H63.7188V148H62.375ZM66.2969 148V135.906H67.6406V148H66.2969ZM69.4688 144.273C69.4688 143.727 69.5547 143.229 69.7266 142.781C69.9036 142.318 70.1536 141.909 70.4766 141.555C70.8047 141.195 71.1901 140.917 71.6328 140.719C72.0859 140.516 72.5911 140.414 73.1484 140.414C73.6641 140.414 74.1458 140.508 74.5938 140.695C75.0365 140.883 75.4167 141.146 75.7344 141.484C76.0625 141.839 76.3151 142.253 76.4922 142.727C76.6693 143.206 76.7578 143.747 76.7578 144.352V144.562C76.7578 144.594 76.7526 144.667 76.7422 144.781H70.7734C70.7995 145.073 70.8802 145.344 71.0156 145.594C71.1615 145.859 71.3438 146.091 71.5625 146.289C71.7865 146.487 72.0469 146.646 72.3438 146.766C72.6458 146.885 72.9714 146.945 73.3203 146.945C73.8411 146.945 74.2865 146.833 74.6562 146.609C75.0469 146.375 75.3438 146.125 75.5469 145.859L76.3906 146.734C76.2292 146.922 76.0469 147.102 75.8438 147.273C75.6562 147.43 75.4219 147.586 75.1406 147.742C74.8854 147.883 74.599 147.992 74.2812 148.07C73.9479 148.154 73.612 148.195 73.2734 148.195C72.7318 148.195 72.224 148.096 71.75 147.898C71.2917 147.711 70.8906 147.435 70.5469 147.07C70.2135 146.721 69.9479 146.305 69.75 145.82C69.5625 145.362 69.4688 144.846 69.4688 144.273ZM70.8125 143.664H75.4453C75.4401 143.461 75.3854 143.242 75.2812 143.008C75.1771 142.768 75.0339 142.549 74.8516 142.352C74.6641 142.148 74.4297 141.984 74.1484 141.859C73.8568 141.729 73.5234 141.664 73.1484 141.664C72.7526 141.664 72.4141 141.734 72.1328 141.875C71.8359 142.021 71.599 142.188 71.4219 142.375C71.2396 142.562 71.0964 142.779 70.9922 143.023C70.8984 143.242 70.8385 143.456 70.8125 143.664ZM82.2656 144.305C82.2656 143.747 82.3568 143.237 82.5391 142.773C82.7214 142.305 82.9766 141.896 83.3047 141.547C83.638 141.193 84.0156 140.917 84.4375 140.719C84.875 140.516 85.3438 140.414 85.8438 140.414C86.4479 140.414 86.9479 140.534 87.3438 140.773C87.7344 141.008 88.0286 141.258 88.2266 141.523V135.906H89.5703V148H88.3438V146.93C88.2552 147.081 88.1276 147.234 87.9609 147.391C87.8099 147.536 87.625 147.669 87.4062 147.789C87.1979 147.904 86.9661 148 86.7109 148.078C86.4557 148.156 86.1719 148.195 85.8594 148.195C85.3594 148.195 84.8906 148.094 84.4531 147.891C84.0365 147.698 83.6562 147.422 83.3125 147.062C82.9844 146.719 82.7266 146.307 82.5391 145.828C82.3568 145.365 82.2656 144.857 82.2656 144.305ZM83.7812 143.281C83.6667 143.594 83.6094 143.935 83.6094 144.305C83.6094 144.674 83.6667 145.016 83.7812 145.328C83.8958 145.651 84.0599 145.932 84.2734 146.172C84.4766 146.401 84.7292 146.589 85.0312 146.734C85.3281 146.875 85.6589 146.945 86.0234 146.945C86.2995 146.945 86.5573 146.904 86.7969 146.82C87.0469 146.737 87.2552 146.638 87.4219 146.523C87.599 146.409 87.7578 146.271 87.8984 146.109C88.0286 145.964 88.138 145.815 88.2266 145.664V142.945C88.0182 142.612 87.7318 142.312 87.3672 142.047C87.013 141.792 86.5703 141.664 86.0391 141.664C85.6745 141.664 85.3438 141.734 85.0469 141.875C84.7344 142.021 84.4792 142.208 84.2812 142.438C84.0625 142.688 83.8958 142.969 83.7812 143.281ZM91.4062 144.273C91.4062 143.727 91.4922 143.229 91.6641 142.781C91.8411 142.318 92.0911 141.909 92.4141 141.555C92.7422 141.195 93.1276 140.917 93.5703 140.719C94.0234 140.516 94.5286 140.414 95.0859 140.414C95.6016 140.414 96.0833 140.508 96.5312 140.695C96.974 140.883 97.3542 141.146 97.6719 141.484C98 141.839 98.2526 142.253 98.4297 142.727C98.6068 143.206 98.6953 143.747 98.6953 144.352V144.562C98.6953 144.594 98.6901 144.667 98.6797 144.781H92.7109C92.737 145.073 92.8177 145.344 92.9531 145.594C93.099 145.859 93.2812 146.091 93.5 146.289C93.724 146.487 93.9844 146.646 94.2812 146.766C94.5833 146.885 94.9089 146.945 95.2578 146.945C95.7786 146.945 96.224 146.833 96.5938 146.609C96.9844 146.375 97.2812 146.125 97.4844 145.859L98.3281 146.734C98.1667 146.922 97.9844 147.102 97.7812 147.273C97.5938 147.43 97.3594 147.586 97.0781 147.742C96.8229 147.883 96.5365 147.992 96.2188 148.07C95.8854 148.154 95.5495 148.195 95.2109 148.195C94.6693 148.195 94.1615 148.096 93.6875 147.898C93.2292 147.711 92.8281 147.435 92.4844 147.07C92.151 146.721 91.8854 146.305 91.6875 145.82C91.5 145.362 91.4062 144.846 91.4062 144.273ZM92.75 143.664H97.3828C97.3776 143.461 97.3229 143.242 97.2188 143.008C97.1146 142.768 96.9714 142.549 96.7891 142.352C96.6016 142.148 96.3672 141.984 96.0859 141.859C95.7943 141.729 95.4609 141.664 95.0859 141.664C94.6901 141.664 94.3516 141.734 94.0703 141.875C93.7734 142.021 93.5365 142.188 93.3594 142.375C93.1771 142.562 93.0339 142.779 92.9297 143.023C92.8359 143.242 92.776 143.456 92.75 143.664ZM99.2969 140.609H100.773L103.047 145.617L105.312 140.609H106.688L102.992 148.32L99.2969 140.609ZM107.297 144.273C107.297 143.727 107.383 143.229 107.555 142.781C107.732 142.318 107.982 141.909 108.305 141.555C108.633 141.195 109.018 140.917 109.461 140.719C109.914 140.516 110.419 140.414 110.977 140.414C111.492 140.414 111.974 140.508 112.422 140.695C112.865 140.883 113.245 141.146 113.562 141.484C113.891 141.839 114.143 142.253 114.32 142.727C114.497 143.206 114.586 143.747 114.586 144.352V144.562C114.586 144.594 114.581 144.667 114.57 144.781H108.602C108.628 145.073 108.708 145.344 108.844 145.594C108.99 145.859 109.172 146.091 109.391 146.289C109.615 146.487 109.875 146.646 110.172 146.766C110.474 146.885 110.799 146.945 111.148 146.945C111.669 146.945 112.115 146.833 112.484 146.609C112.875 146.375 113.172 146.125 113.375 145.859L114.219 146.734C114.057 146.922 113.875 147.102 113.672 147.273C113.484 147.43 113.25 147.586 112.969 147.742C112.714 147.883 112.427 147.992 112.109 148.07C111.776 148.154 111.44 148.195 111.102 148.195C110.56 148.195 110.052 148.096 109.578 147.898C109.12 147.711 108.719 147.435 108.375 147.07C108.042 146.721 107.776 146.305 107.578 145.82C107.391 145.362 107.297 144.846 107.297 144.273ZM108.641 143.664H113.273C113.268 143.461 113.214 143.242 113.109 143.008C113.005 142.768 112.862 142.549 112.68 142.352C112.492 142.148 112.258 141.984 111.977 141.859C111.685 141.729 111.352 141.664 110.977 141.664C110.581 141.664 110.242 141.734 109.961 141.875C109.664 142.021 109.427 142.188 109.25 142.375C109.068 142.562 108.924 142.779 108.82 143.023C108.727 143.242 108.667 143.456 108.641 143.664ZM116.406 148V135.906H117.75V148H116.406ZM119.578 144.305C119.578 143.742 119.672 143.232 119.859 142.773C120.057 142.299 120.326 141.891 120.664 141.547C121.018 141.193 121.419 140.917 121.867 140.719C122.326 140.516 122.831 140.414 123.383 140.414C123.93 140.414 124.432 140.516 124.891 140.719C125.349 140.922 125.753 141.198 126.102 141.547C126.44 141.891 126.708 142.299 126.906 142.773C127.094 143.232 127.188 143.742 127.188 144.305C127.188 144.862 127.094 145.37 126.906 145.828C126.708 146.312 126.44 146.724 126.102 147.062C125.753 147.411 125.349 147.688 124.891 147.891C124.432 148.094 123.93 148.195 123.383 148.195C122.831 148.195 122.326 148.094 121.867 147.891C121.419 147.693 121.018 147.417 120.664 147.062C120.326 146.724 120.057 146.312 119.859 145.828C119.672 145.37 119.578 144.862 119.578 144.305ZM121.094 143.281C120.979 143.594 120.922 143.935 120.922 144.305C120.922 144.674 120.979 145.016 121.094 145.328C121.208 145.641 121.375 145.922 121.594 146.172C121.792 146.401 122.049 146.589 122.367 146.734C122.674 146.875 123.013 146.945 123.383 146.945C123.753 146.945 124.091 146.875 124.398 146.734C124.716 146.589 124.974 146.401 125.172 146.172C125.391 145.922 125.557 145.641 125.672 145.328C125.786 145.016 125.844 144.674 125.844 144.305C125.844 143.935 125.786 143.594 125.672 143.281C125.557 142.969 125.391 142.688 125.172 142.438C124.974 142.208 124.716 142.021 124.398 141.875C124.091 141.734 123.753 141.664 123.383 141.664C123.013 141.664 122.674 141.734 122.367 141.875C122.049 142.021 121.792 142.208 121.594 142.438C121.375 142.688 121.208 142.969 121.094 143.281ZM128.727 151.68V140.609H129.961V141.68C130.174 141.352 130.492 141.06 130.914 140.805C131.341 140.544 131.854 140.414 132.453 140.414C132.953 140.414 133.422 140.516 133.859 140.719C134.292 140.922 134.672 141.198 135 141.547C135.318 141.885 135.57 142.294 135.758 142.773C135.945 143.247 136.039 143.758 136.039 144.305C136.039 144.846 135.945 145.354 135.758 145.828C135.565 146.312 135.312 146.724 135 147.062C134.672 147.411 134.292 147.688 133.859 147.891C133.422 148.094 132.953 148.195 132.453 148.195C132.125 148.195 131.823 148.151 131.547 148.062C131.266 147.969 131.031 147.867 130.844 147.758C130.635 147.633 130.474 147.513 130.359 147.398C130.208 147.247 130.112 147.143 130.07 147.086V151.68H128.727ZM130.07 145.68C130.159 145.82 130.273 145.969 130.414 146.125C130.544 146.271 130.703 146.409 130.891 146.539C131.042 146.643 131.245 146.74 131.5 146.828C131.729 146.906 131.984 146.945 132.266 146.945C132.63 146.945 132.964 146.875 133.266 146.734C133.573 146.594 133.828 146.406 134.031 146.172C134.234 145.938 134.396 145.656 134.516 145.328C134.635 145 134.695 144.659 134.695 144.305C134.695 143.951 134.635 143.609 134.516 143.281C134.396 142.953 134.234 142.672 134.031 142.438C133.828 142.203 133.573 142.016 133.266 141.875C132.958 141.734 132.625 141.664 132.266 141.664C131.969 141.664 131.714 141.701 131.5 141.773C131.26 141.857 131.057 141.956 130.891 142.07C130.693 142.211 130.534 142.346 130.414 142.477C130.284 142.622 130.169 142.773 130.07 142.93V145.68ZM137.57 148V140.609H138.82V141.695C138.898 141.544 138.995 141.393 139.109 141.242C139.229 141.081 139.372 140.94 139.539 140.82C139.685 140.711 139.883 140.615 140.133 140.531C140.362 140.453 140.617 140.414 140.898 140.414C141.352 140.414 141.789 140.518 142.211 140.727C142.643 140.94 142.964 141.294 143.172 141.789C143.344 141.44 143.612 141.125 143.977 140.844C144.352 140.557 144.836 140.414 145.43 140.414C146.164 140.414 146.766 140.656 147.234 141.141C147.703 141.625 147.938 142.328 147.938 143.25V148H146.594V143.453C146.594 142.844 146.451 142.393 146.164 142.102C145.878 141.81 145.51 141.664 145.062 141.664C144.625 141.664 144.276 141.789 144.016 142.039C143.776 142.273 143.581 142.544 143.43 142.852V148H142.086V143.453C142.086 142.854 141.94 142.404 141.648 142.102C141.362 141.81 141 141.664 140.562 141.664C140.333 141.664 140.133 141.698 139.961 141.766C139.799 141.828 139.646 141.919 139.5 142.039C139.37 142.148 139.255 142.276 139.156 142.422C139.052 142.578 138.971 142.721 138.914 142.852V148H137.57ZM149.484 144.273C149.484 143.727 149.57 143.229 149.742 142.781C149.919 142.318 150.169 141.909 150.492 141.555C150.82 141.195 151.206 140.917 151.648 140.719C152.102 140.516 152.607 140.414 153.164 140.414C153.68 140.414 154.161 140.508 154.609 140.695C155.052 140.883 155.432 141.146 155.75 141.484C156.078 141.839 156.331 142.253 156.508 142.727C156.685 143.206 156.773 143.747 156.773 144.352V144.562C156.773 144.594 156.768 144.667 156.758 144.781H150.789C150.815 145.073 150.896 145.344 151.031 145.594C151.177 145.859 151.359 146.091 151.578 146.289C151.802 146.487 152.062 146.646 152.359 146.766C152.661 146.885 152.987 146.945 153.336 146.945C153.857 146.945 154.302 146.833 154.672 146.609C155.062 146.375 155.359 146.125 155.562 145.859L156.406 146.734C156.245 146.922 156.062 147.102 155.859 147.273C155.672 147.43 155.438 147.586 155.156 147.742C154.901 147.883 154.615 147.992 154.297 148.07C153.964 148.154 153.628 148.195 153.289 148.195C152.747 148.195 152.24 148.096 151.766 147.898C151.307 147.711 150.906 147.435 150.562 147.07C150.229 146.721 149.964 146.305 149.766 145.82C149.578 145.362 149.484 144.846 149.484 144.273ZM150.828 143.664H155.461C155.456 143.461 155.401 143.242 155.297 143.008C155.193 142.768 155.049 142.549 154.867 142.352C154.68 142.148 154.445 141.984 154.164 141.859C153.872 141.729 153.539 141.664 153.164 141.664C152.768 141.664 152.43 141.734 152.148 141.875C151.852 142.021 151.615 142.188 151.438 142.375C151.255 142.562 151.112 142.779 151.008 143.023C150.914 143.242 150.854 143.456 150.828 143.664ZM158.305 148V140.609H159.555V141.648C159.747 141.336 160.031 141.052 160.406 140.797C160.776 140.542 161.255 140.414 161.844 140.414C162.208 140.414 162.557 140.477 162.891 140.602C163.229 140.727 163.523 140.906 163.773 141.141C164.029 141.38 164.232 141.677 164.383 142.031C164.534 142.391 164.609 142.797 164.609 143.25V148H163.266V143.469C163.266 143.156 163.219 142.885 163.125 142.656C163.036 142.438 162.909 142.25 162.742 142.094C162.581 141.943 162.401 141.833 162.203 141.766C162 141.698 161.784 141.664 161.555 141.664C161.294 141.664 161.073 141.701 160.891 141.773C160.677 141.857 160.5 141.956 160.359 142.07C160.203 142.195 160.068 142.331 159.953 142.477C159.844 142.617 159.742 142.763 159.648 142.914V148H158.305ZM166.023 141.82V140.609H167.461V138.352H168.812V140.609H171.109V141.82H168.812V145.805C168.812 146.174 168.901 146.456 169.078 146.648C169.26 146.846 169.513 146.945 169.836 146.945C170.023 146.945 170.182 146.917 170.312 146.859C170.448 146.797 170.586 146.724 170.727 146.641L171.227 147.742C170.914 147.919 170.633 148.039 170.383 148.102C170.138 148.164 169.917 148.195 169.719 148.195C169.443 148.195 169.172 148.148 168.906 148.055C168.625 147.956 168.385 147.818 168.188 147.641C167.964 147.443 167.789 147.203 167.664 146.922C167.529 146.62 167.461 146.271 167.461 145.875V141.82H166.023Z" fill="#333333"/>
<rect x="18.5" y="136.5" width="15" height="15" rx="1.5" stroke="#FC3F74"/>
<path fill-rule="evenodd" clip-rule="evenodd" d="M25.2349 147.655L30.9512 141.467C31.022 141.391 31.022 141.272 30.9512 141.196L29.8664 140.021C29.7872 139.936 29.6517 139.936 29.5726 140.021L24.6705 145.328C24.592 145.413 24.4579 145.414 24.3783 145.33L22.3879 143.226C22.3077 143.142 22.1723 143.143 22.0941 143.23L21.0222 144.419C20.9523 144.496 20.9537 144.614 21.0254 144.69L24.4012 148.258C24.4814 148.343 24.6168 148.341 24.695 148.254L25.2349 147.655Z" fill="#FC3F74"/>
<path d="M48.224 108.76C48.224 110.04 47.2 110.664 45.936 110.664H45.6V111.896H46.128C47.728 111.896 48.496 112.664 48.496 113.912C48.496 114.984 47.632 115.944 46.192 115.944C44.256 115.944 43.776 114.104 43.776 114.104L42.592 114.648C42.592 114.648 43.312 117.192 46.192 117.192C48.24 117.192 49.84 115.944 49.84 113.912C49.84 111.624 48.192 111.192 48.192 111.192C48.192 111.192 49.568 110.584 49.568 108.76C49.568 106.984 48.064 105.608 46.224 105.608C43.776 105.608 42.976 107.8 42.976 107.8L44.128 108.312C44.128 108.312 44.624 106.856 46.224 106.856C47.408 106.856 48.224 107.768 48.224 108.76ZM56.6871 106.12L55.5991 105.416C55.5991 105.416 52.1751 111.096 51.9511 111.512C51.6311 112.104 51.4071 112.856 51.4071 113.496C51.4071 115.336 52.7191 117.192 55.0711 117.192C57.4231 117.192 58.7351 115.336 58.7351 113.464C58.7351 111.576 57.4231 109.8 55.0711 109.8C54.6071 109.8 54.2711 109.96 54.2711 109.96L56.6871 106.12ZM55.0711 111.048C56.4791 111.048 57.3911 112.152 57.3911 113.464C57.3911 114.776 56.5111 115.944 55.0711 115.944C53.6311 115.944 52.7511 114.776 52.7511 113.464C52.7511 112.152 53.6631 111.048 55.0711 111.048ZM64.127 105.608C61.279 105.608 60.047 108.408 60.047 111.4C60.047 114.392 61.279 117.192 64.127 117.192C66.975 117.192 68.175 114.392 68.175 111.4C68.175 108.408 66.975 105.608 64.127 105.608ZM64.127 115.944C62.143 115.944 61.391 113.592 61.391 111.4C61.391 109.208 62.143 106.856 64.127 106.856C66.111 106.856 66.831 109.208 66.831 111.4C66.831 113.592 66.111 115.944 64.127 115.944ZM75.9841 107.08H80.9601V105.8H74.6401V117H75.9841V111.896H80.6401V110.616H75.9841V107.08ZM85.5361 109.416C83.3121 109.416 81.8401 111.144 81.8401 113.304C81.8401 115.496 83.4561 117.192 85.6961 117.192C87.6481 117.192 88.7681 115.736 88.7681 115.736L87.9201 114.856C87.9201 114.856 87.1521 115.944 85.6961 115.944C84.3041 115.944 83.2321 114.904 83.1521 113.784H89.1201C89.1361 113.608 89.1361 113.496 89.1361 113.352C89.1361 110.968 87.6001 109.416 85.5361 109.416ZM83.1841 112.664C83.2801 111.896 83.9361 110.664 85.5361 110.664C87.0241 110.664 87.7761 111.832 87.8241 112.664H83.1841ZM93.8486 109.416C91.6246 109.416 90.1526 111.144 90.1526 113.304C90.1526 115.496 91.7686 117.192 94.0086 117.192C95.9606 117.192 97.0806 115.736 97.0806 115.736L96.2326 114.856C96.2326 114.856 95.4646 115.944 94.0086 115.944C92.6166 115.944 91.5446 114.904 91.4646 113.784H97.4326C97.4486 113.608 97.4486 113.496 97.4486 113.352C97.4486 110.968 95.9126 109.416 93.8486 109.416ZM91.4966 112.664C91.5926 111.896 92.2486 110.664 93.8486 110.664C95.3366 110.664 96.0886 111.832 96.1366 112.664H91.4966ZM102.049 109.416C100.049 109.416 98.4651 111.128 98.4651 113.304C98.4651 115.48 100.049 117.192 102.049 117.192C103.825 117.192 104.545 115.928 104.545 115.928V117H105.777V104.904H104.433V110.52C104.433 110.52 103.681 109.416 102.049 109.416ZM104.433 114.664C104.433 114.664 103.729 115.944 102.257 115.944C100.753 115.944 99.8091 114.76 99.8091 113.304C99.8091 111.848 100.785 110.664 102.257 110.664C103.729 110.664 104.433 111.944 104.433 111.944V114.664ZM112.134 109.416C110.502 109.416 109.75 110.52 109.75 110.52V104.904H108.406V117H109.638V115.928C109.638 115.928 110.358 117.192 112.134 117.192C114.134 117.192 115.718 115.48 115.718 113.304C115.718 111.128 114.134 109.416 112.134 109.416ZM109.75 111.944C109.75 111.944 110.454 110.664 111.926 110.664C113.398 110.664 114.374 111.848 114.374 113.304C114.374 114.76 113.43 115.944 111.926 115.944C110.454 115.944 109.75 114.664 109.75 114.664V111.944ZM120.186 109.416C118.57 109.416 117.418 110.168 117.418 110.168L117.978 111.288C117.978 111.288 119.066 110.664 120.186 110.664C120.778 110.664 122.058 110.872 122.058 112.408V112.808C122.058 112.808 121.194 112.2 119.834 112.2C118.17 112.2 116.906 113.224 116.906 114.664C116.906 116.264 118.33 117.192 119.658 117.192C121.338 117.192 122.17 115.928 122.17 115.928V117H123.402V112.136C123.402 110.76 122.362 109.416 120.186 109.416ZM119.946 116.008C119.114 116.008 118.25 115.624 118.25 114.664C118.25 113.896 118.97 113.32 120.122 113.32C121.322 113.32 122.058 113.848 122.058 113.848V114.888C122.058 114.888 121.258 116.008 119.946 116.008ZM130.902 114.888C130.902 114.888 130.182 115.944 128.742 115.944C127.254 115.944 126.278 114.76 126.278 113.304C126.278 111.848 127.254 110.664 128.742 110.664C130.054 110.664 130.774 111.56 130.774 111.56L131.686 110.744C131.686 110.744 130.63 109.416 128.742 109.416C126.566 109.416 124.934 111.144 124.934 113.304C124.934 115.48 126.566 117.192 128.742 117.192C130.694 117.192 131.766 115.768 131.766 115.768L130.902 114.888ZM138.047 117H139.919L136.175 113.096L139.631 109.608H137.871L134.703 112.888V104.904H133.359V117H134.703V113.416L138.047 117Z" fill="#707070"/>
<rect x="18.5" y="104.5" width="15" height="15" rx="1.5" stroke="#707070"/>
<path d="M46.528 169.8H43.312V181H46.528C50 181 52.064 178.632 52.064 175.4C52.064 172.168 50 169.8 46.528 169.8ZM46.448 179.72H44.656V171.08H46.448C49.184 171.08 50.624 173.016 50.624 175.4C50.624 177.784 49.184 179.72 46.448 179.72ZM56.8799 173.416C54.6559 173.416 53.1839 175.144 53.1839 177.304C53.1839 179.496 54.7999 181.192 57.0399 181.192C58.9919 181.192 60.1119 179.736 60.1119 179.736L59.2639 178.856C59.2639 178.856 58.4959 179.944 57.0399 179.944C55.6479 179.944 54.5759 178.904 54.4959 177.784H60.4639C60.4799 177.608 60.4799 177.496 60.4799 177.352C60.4799 174.968 58.9439 173.416 56.8799 173.416ZM54.5279 176.664C54.6239 175.896 55.2799 174.664 56.8799 174.664C58.3679 174.664 59.1199 175.832 59.1679 176.664H54.5279ZM61.5284 179.64C61.5284 179.64 62.6164 181.192 64.6964 181.192C66.1204 181.192 67.6244 180.456 67.6244 179.032C67.6244 177.528 66.4244 177 65.0164 176.696C63.8004 176.44 63.2244 176.136 63.2244 175.576C63.2244 175.096 63.6884 174.632 64.6324 174.632C65.7524 174.632 66.4884 175.448 66.4884 175.448L67.3684 174.536C67.3684 174.536 66.3764 173.416 64.6324 173.416C62.9844 173.416 61.9124 174.472 61.9124 175.544C61.9124 176.936 63.0324 177.56 64.6164 177.88C65.7524 178.104 66.2964 178.424 66.2964 179.064C66.2964 179.656 65.4484 179.976 64.6964 179.976C63.2404 179.976 62.4564 178.776 62.4564 178.776L61.5284 179.64ZM69.5296 181H70.8736V173.608H69.5296V181ZM69.2896 171.24C69.2896 171.736 69.7056 172.152 70.2016 172.152C70.6976 172.152 71.1136 171.736 71.1136 171.24C71.1136 170.744 70.6976 170.328 70.2016 170.328C69.7056 170.328 69.2896 170.744 69.2896 171.24ZM78.6206 181.096C78.6206 182.76 77.6446 183.624 76.0766 183.624C74.5566 183.624 73.6606 182.456 73.6606 182.456L72.8446 183.464C72.8446 183.464 74.0446 184.872 76.0766 184.872C78.2206 184.872 79.9646 183.592 79.9646 181.032V173.608H78.7326V174.68C78.7326 174.68 78.0126 173.416 76.2366 173.416C74.2366 173.416 72.6526 175.128 72.6526 177.304C72.6526 179.48 74.2366 181.192 76.2366 181.192C77.5966 181.192 78.3646 180.408 78.6206 180.072V181.096ZM78.6206 178.696C78.6206 178.696 77.9166 179.944 76.4446 179.944C74.9406 179.944 73.9966 178.76 73.9966 177.304C73.9966 175.848 74.9406 174.664 76.4446 174.664C77.9006 174.664 78.6206 175.912 78.6206 175.912V178.696ZM85.5284 173.416C83.9284 173.416 83.2564 174.648 83.2564 174.648V173.608H82.0084V181H83.3524V175.912C83.3524 175.912 83.9924 174.664 85.1924 174.664C86.1844 174.664 86.9684 175.208 86.9684 176.472V181H88.3124V176.248C88.3124 174.424 87.0004 173.416 85.5284 173.416ZM97.2681 181H98.6121V171.08H101.828V169.8H94.0521V171.08H97.2681V181ZM106.879 173.416C105.599 173.416 104.927 174.184 104.703 174.504V168.904H103.359V181H104.703V175.912C104.703 175.912 105.343 174.664 106.543 174.664C107.535 174.664 108.319 175.208 108.319 176.472V181H109.663V176.248C109.663 174.424 108.351 173.416 106.879 173.416ZM111.952 181H113.296V173.608H111.952V181ZM111.712 171.24C111.712 171.736 112.128 172.152 112.624 172.152C113.12 172.152 113.536 171.736 113.536 171.24C113.536 170.744 113.12 170.328 112.624 170.328C112.128 170.328 111.712 170.744 111.712 171.24ZM119.107 173.416C117.507 173.416 116.835 174.648 116.835 174.648V173.608H115.587V181H116.931V175.912C116.931 175.912 117.571 174.664 118.771 174.664C119.763 174.664 120.547 175.208 120.547 176.472V181H121.891V176.248C121.891 174.424 120.579 173.416 119.107 173.416ZM128.922 181H130.794L127.05 177.096L130.506 173.608H128.746L125.578 176.888V168.904H124.234V181H125.578V177.416L128.922 181ZM132.092 181H133.436V173.608H132.092V181ZM131.852 171.24C131.852 171.736 132.268 172.152 132.764 172.152C133.26 172.152 133.676 171.736 133.676 171.24C133.676 170.744 133.26 170.328 132.764 170.328C132.268 170.328 131.852 170.744 131.852 171.24ZM139.247 173.416C137.647 173.416 136.975 174.648 136.975 174.648V173.608H135.727V181H137.071V175.912C137.071 175.912 137.711 174.664 138.911 174.664C139.903 174.664 140.687 175.208 140.687 176.472V181H142.031V176.248C142.031 174.424 140.719 173.416 139.247 173.416ZM149.543 181.096C149.543 182.76 148.567 183.624 146.999 183.624C145.479 183.624 144.583 182.456 144.583 182.456L143.767 183.464C143.767 183.464 144.967 184.872 146.999 184.872C149.143 184.872 150.887 183.592 150.887 181.032V173.608H149.655V174.68C149.655 174.68 148.935 173.416 147.159 173.416C145.159 173.416 143.575 175.128 143.575 177.304C143.575 179.48 145.159 181.192 147.159 181.192C148.519 181.192 149.287 180.408 149.543 180.072V181.096ZM149.543 178.696C149.543 178.696 148.839 179.944 147.367 179.944C145.863 179.944 144.919 178.76 144.919 177.304C144.919 175.848 145.863 174.664 147.367 174.664C148.823 174.664 149.543 175.912 149.543 175.912V178.696Z" fill="#707070"/>
<rect x="18.5" y="168.5" width="15" height="15" rx="1.5" stroke="#707070"/>
<path d="M43.536 213H44.88V201.8H43.536V213ZM50.9659 205.416C49.3659 205.416 48.6939 206.648 48.6939 206.648V205.608H47.4459V213H48.7899V207.912C48.7899 207.912 49.4299 206.664 50.6299 206.664C51.6219 206.664 52.4059 207.208 52.4059 208.472V213H53.7499V208.248C53.7499 206.424 52.4379 205.416 50.9659 205.416ZM55.1653 206.824H56.6053V210.872C56.6053 212.504 57.7733 213.192 58.8293 213.192C59.2613 213.192 59.7253 213.096 60.3653 212.744L59.8693 211.64C59.8693 211.64 59.4373 211.944 59.0213 211.944C58.3013 211.944 57.9493 211.528 57.9493 210.808V206.824H60.2533V205.608H57.9493V203.352H56.6053V205.608H55.1653V206.824ZM65.0049 205.416C62.7809 205.416 61.3089 207.144 61.3089 209.304C61.3089 211.496 62.9249 213.192 65.1649 213.192C67.1169 213.192 68.2369 211.736 68.2369 211.736L67.3889 210.856C67.3889 210.856 66.6209 211.944 65.1649 211.944C63.7729 211.944 62.7009 210.904 62.6209 209.784H68.5889C68.6049 209.608 68.6049 209.496 68.6049 209.352C68.6049 206.968 67.0689 205.416 65.0049 205.416ZM62.6529 208.664C62.7489 207.896 63.4049 206.664 65.0049 206.664C66.4929 206.664 67.2449 207.832 67.2929 208.664H62.6529ZM73.4454 205.416C72.0374 205.416 71.3814 206.744 71.3814 206.744V205.608H70.1334V213H71.4774V207.912C71.4774 207.912 72.0054 206.664 73.1734 206.664C73.7334 206.664 74.0214 206.824 74.0214 206.824L74.5174 205.608C74.5174 205.608 74.0534 205.416 73.4454 205.416ZM79.0909 205.416C77.4909 205.416 76.8189 206.648 76.8189 206.648V205.608H75.5709V213H76.9149V207.912C76.9149 207.912 77.5549 206.664 78.7549 206.664C79.7469 206.664 80.5309 207.208 80.5309 208.472V213H81.8749V208.248C81.8749 206.424 80.5629 205.416 79.0909 205.416ZM86.8583 205.416C85.2423 205.416 84.0903 206.168 84.0903 206.168L84.6503 207.288C84.6503 207.288 85.7383 206.664 86.8583 206.664C87.4503 206.664 88.7303 206.872 88.7303 208.408V208.808C88.7303 208.808 87.8663 208.2 86.5063 208.2C84.8423 208.2 83.5783 209.224 83.5783 210.664C83.5783 212.264 85.0023 213.192 86.3303 213.192C88.0103 213.192 88.8423 211.928 88.8423 211.928V213H90.0743V208.136C90.0743 206.76 89.0343 205.416 86.8583 205.416ZM86.6183 212.008C85.7863 212.008 84.9223 211.624 84.9223 210.664C84.9223 209.896 85.6423 209.32 86.7943 209.32C87.9943 209.32 88.7303 209.848 88.7303 209.848V210.888C88.7303 210.888 87.9303 212.008 86.6183 212.008ZM91.4778 206.824H92.9178V210.872C92.9178 212.504 94.0858 213.192 95.1418 213.192C95.5738 213.192 96.0378 213.096 96.6778 212.744L96.1818 211.64C96.1818 211.64 95.7498 211.944 95.3338 211.944C94.6138 211.944 94.2618 211.528 94.2618 210.808V206.824H96.5658V205.608H94.2618V203.352H92.9178V205.608H91.4778V206.824ZM98.3734 213H99.7174V205.608H98.3734V213ZM98.1334 203.24C98.1334 203.736 98.5494 204.152 99.0454 204.152C99.5414 204.152 99.9574 203.736 99.9574 203.24C99.9574 202.744 99.5414 202.328 99.0454 202.328C98.5494 202.328 98.1334 202.744 98.1334 203.24ZM105.304 205.416C103.128 205.416 101.496 207.128 101.496 209.304C101.496 211.48 103.128 213.192 105.304 213.192C107.48 213.192 109.112 211.48 109.112 209.304C109.112 207.128 107.48 205.416 105.304 205.416ZM105.304 211.944C103.816 211.944 102.84 210.76 102.84 209.304C102.84 207.848 103.816 206.664 105.304 206.664C106.792 206.664 107.768 207.848 107.768 209.304C107.768 210.76 106.792 211.944 105.304 211.944ZM114.169 205.416C112.569 205.416 111.897 206.648 111.897 206.648V205.608H110.649V213H111.993V207.912C111.993 207.912 112.633 206.664 113.833 206.664C114.825 206.664 115.609 207.208 115.609 208.472V213H116.953V208.248C116.953 206.424 115.641 205.416 114.169 205.416ZM121.936 205.416C120.32 205.416 119.168 206.168 119.168 206.168L119.728 207.288C119.728 207.288 120.816 206.664 121.936 206.664C122.528 206.664 123.808 206.872 123.808 208.408V208.808C123.808 208.808 122.944 208.2 121.584 208.2C119.92 208.2 118.656 209.224 118.656 210.664C118.656 212.264 120.08 213.192 121.408 213.192C123.088 213.192 123.92 211.928 123.92 211.928V213H125.152V208.136C125.152 206.76 124.112 205.416 121.936 205.416ZM121.696 212.008C120.864 212.008 120 211.624 120 210.664C120 209.896 120.72 209.32 121.872 209.32C123.072 209.32 123.808 209.848 123.808 209.848V210.888C123.808 210.888 123.008 212.008 121.696 212.008ZM127.484 213H128.828V200.904H127.484V213ZM141.105 210.888C141.105 210.888 140.385 211.944 138.945 211.944C137.457 211.944 136.481 210.76 136.481 209.304C136.481 207.848 137.457 206.664 138.945 206.664C140.257 206.664 140.977 207.56 140.977 207.56L141.889 206.744C141.889 206.744 140.833 205.416 138.945 205.416C136.769 205.416 135.137 207.144 135.137 209.304C135.137 211.48 136.769 213.192 138.945 213.192C140.897 213.192 141.969 211.768 141.969 211.768L141.105 210.888ZM146.57 205.416C144.394 205.416 142.762 207.128 142.762 209.304C142.762 211.48 144.394 213.192 146.57 213.192C148.746 213.192 150.378 211.48 150.378 209.304C150.378 207.128 148.746 205.416 146.57 205.416ZM146.57 211.944C145.082 211.944 144.106 210.76 144.106 209.304C144.106 207.848 145.082 206.664 146.57 206.664C148.058 206.664 149.034 207.848 149.034 209.304C149.034 210.76 148.058 211.944 146.57 211.944ZM152.203 213H153.547V200.904H152.203V213ZM156.171 213H157.515V200.904H156.171V213ZM163.036 205.416C160.812 205.416 159.34 207.144 159.34 209.304C159.34 211.496 160.956 213.192 163.196 213.192C165.148 213.192 166.268 211.736 166.268 211.736L165.42 210.856C165.42 210.856 164.652 211.944 163.196 211.944C161.804 211.944 160.732 210.904 160.652 209.784H166.62C166.636 209.608 166.636 209.496 166.636 209.352C166.636 206.968 165.1 205.416 163.036 205.416ZM160.684 208.664C160.78 207.896 161.436 206.664 163.036 206.664C164.524 206.664 165.276 207.832 165.324 208.664H160.684ZM171.093 205.416C169.477 205.416 168.325 206.168 168.325 206.168L168.885 207.288C168.885 207.288 169.973 206.664 171.093 206.664C171.685 206.664 172.965 206.872 172.965 208.408V208.808C172.965 208.808 172.101 208.2 170.741 208.2C169.077 208.2 167.813 209.224 167.813 210.664C167.813 212.264 169.237 213.192 170.565 213.192C172.245 213.192 173.077 211.928 173.077 211.928V213H174.309V208.136C174.309 206.76 173.269 205.416 171.093 205.416ZM170.853 212.008C170.021 212.008 169.157 211.624 169.157 210.664C169.157 209.896 169.877 209.32 171.029 209.32C172.229 209.32 172.965 209.848 172.965 209.848V210.888C172.965 210.888 172.165 212.008 170.853 212.008ZM181.808 213.096C181.808 214.76 180.832 215.624 179.264 215.624C177.744 215.624 176.848 214.456 176.848 214.456L176.032 215.464C176.032 215.464 177.232 216.872 179.264 216.872C181.408 216.872 183.152 215.592 183.152 213.032V205.608H181.92V206.68C181.92 206.68 181.2 205.416 179.424 205.416C177.424 205.416 175.84 207.128 175.84 209.304C175.84 211.48 177.424 213.192 179.424 213.192C180.784 213.192 181.552 212.408 181.808 212.072V213.096ZM181.808 210.696C181.808 210.696 181.104 211.944 179.632 211.944C178.128 211.944 177.184 210.76 177.184 209.304C177.184 207.848 178.128 206.664 179.632 206.664C181.088 206.664 181.808 207.912 181.808 207.912V210.696ZM187.98 213.192C189.58 213.192 190.252 211.864 190.252 211.864V213H191.5V205.608H190.156V210.728C190.156 210.728 189.564 211.944 188.316 211.944C187.324 211.944 186.54 211.4 186.54 210.136V205.608H185.196V210.36C185.196 212.184 186.508 213.192 187.98 213.192ZM196.739 205.416C194.515 205.416 193.043 207.144 193.043 209.304C193.043 211.496 194.659 213.192 196.899 213.192C198.851 213.192 199.971 211.736 199.971 211.736L199.123 210.856C199.123 210.856 198.355 211.944 196.899 211.944C195.507 211.944 194.435 210.904 194.355 209.784H200.323C200.339 209.608 200.339 209.496 200.339 209.352C200.339 206.968 198.803 205.416 196.739 205.416ZM194.387 208.664C194.483 207.896 195.139 206.664 196.739 206.664C198.227 206.664 198.979 207.832 199.027 208.664H194.387ZM201.388 211.64C201.388 211.64 202.476 213.192 204.556 213.192C205.98 213.192 207.484 212.456 207.484 211.032C207.484 209.528 206.284 209 204.876 208.696C203.66 208.44 203.084 208.136 203.084 207.576C203.084 207.096 203.548 206.632 204.492 206.632C205.612 206.632 206.348 207.448 206.348 207.448L207.228 206.536C207.228 206.536 206.236 205.416 204.492 205.416C202.844 205.416 201.772 206.472 201.772 207.544C201.772 208.936 202.892 209.56 204.476 209.88C205.612 210.104 206.156 210.424 206.156 211.064C206.156 211.656 205.308 211.976 204.556 211.976C203.1 211.976 202.316 210.776 202.316 210.776L201.388 211.64Z" fill="#707070"/>
<rect x="18.5" y="200.5" width="15" height="15" rx="1.5" stroke="#707070"/>
<path d="M44.656 235.08H49.632V233.8H43.312V245H44.656V239.896H49.312V238.616H44.656V235.08ZM54.711 237.416C53.303 237.416 52.647 238.744 52.647 238.744V237.608H51.399V245H52.743V239.912C52.743 239.912 53.271 238.664 54.439 238.664C54.999 238.664 55.287 238.824 55.287 238.824L55.783 237.608C55.783 237.608 55.319 237.416 54.711 237.416ZM59.577 237.416C57.961 237.416 56.809 238.168 56.809 238.168L57.369 239.288C57.369 239.288 58.457 238.664 59.577 238.664C60.169 238.664 61.449 238.872 61.449 240.408V240.808C61.449 240.808 60.585 240.2 59.225 240.2C57.561 240.2 56.297 241.224 56.297 242.664C56.297 244.264 57.721 245.192 59.049 245.192C60.729 245.192 61.561 243.928 61.561 243.928V245H62.793V240.136C62.793 238.76 61.753 237.416 59.577 237.416ZM59.337 244.008C58.505 244.008 57.641 243.624 57.641 242.664C57.641 241.896 58.361 241.32 59.513 241.32C60.713 241.32 61.449 241.848 61.449 241.848V242.888C61.449 242.888 60.649 244.008 59.337 244.008ZM67.6205 245.192C69.2205 245.192 69.8925 243.864 69.8925 243.864V245H71.1405V237.608H69.7965V242.728C69.7965 242.728 69.2045 243.944 67.9565 243.944C66.9645 243.944 66.1805 243.4 66.1805 242.136V237.608H64.8365V242.36C64.8365 244.184 66.1485 245.192 67.6205 245.192ZM76.3799 237.416C74.1559 237.416 72.6839 239.144 72.6839 241.304C72.6839 243.496 74.2999 245.192 76.5399 245.192C78.4919 245.192 79.6119 243.736 79.6119 243.736L78.7639 242.856C78.7639 242.856 77.9959 243.944 76.5399 243.944C75.1479 243.944 74.0759 242.904 73.9959 241.784H79.9639C79.9799 241.608 79.9799 241.496 79.9799 241.352C79.9799 238.968 78.4439 237.416 76.3799 237.416ZM74.0279 240.664C74.1239 239.896 74.7799 238.664 76.3799 238.664C77.8679 238.664 78.6199 239.832 78.6679 240.664H74.0279ZM85.0284 237.416C83.4284 237.416 82.7564 238.648 82.7564 238.648V237.608H81.5084V245H82.8524V239.912C82.8524 239.912 83.4924 238.664 84.6924 238.664C85.6844 238.664 86.4684 239.208 86.4684 240.472V245H87.8124V240.248C87.8124 238.424 86.5004 237.416 85.0284 237.416ZM94.5921 245H95.9361V237.608H94.5921V245ZM94.3521 235.24C94.3521 235.736 94.7681 236.152 95.2641 236.152C95.7601 236.152 96.1761 235.736 96.1761 235.24C96.1761 234.744 95.7601 234.328 95.2641 234.328C94.7681 234.328 94.3521 234.744 94.3521 235.24ZM101.747 237.416C100.147 237.416 99.4751 238.648 99.4751 238.648V237.608H98.2271V245H99.5711V239.912C99.5711 239.912 100.211 238.664 101.411 238.664C102.403 238.664 103.187 239.208 103.187 240.472V245H104.531V240.248C104.531 238.424 103.219 237.416 101.747 237.416ZM112.703 235.08H117.679V233.8H111.359V245H112.703V239.896H117.359V238.616H112.703V235.08ZM122.23 245.192C123.83 245.192 124.502 243.864 124.502 243.864V245H125.75V237.608H124.406V242.728C124.406 242.728 123.814 243.944 122.566 243.944C121.574 243.944 120.79 243.4 120.79 242.136V237.608H119.446V242.36C119.446 244.184 120.758 245.192 122.23 245.192ZM120.246 235.24C120.246 235.736 120.662 236.152 121.158 236.152C121.654 236.152 122.07 235.736 122.07 235.24C122.07 234.744 121.654 234.328 121.158 234.328C120.662 234.328 120.246 234.744 120.246 235.24ZM123.142 235.24C123.142 235.736 123.558 236.152 124.054 236.152C124.55 236.152 124.966 235.736 124.966 235.24C124.966 234.744 124.55 234.328 124.054 234.328C123.558 234.328 123.142 234.744 123.142 235.24ZM131.613 237.416C130.333 237.416 129.661 238.184 129.437 238.504V232.904H128.093V245H129.437V239.912C129.437 239.912 130.077 238.664 131.277 238.664C132.269 238.664 133.053 239.208 133.053 240.472V245H134.397V240.248C134.397 238.424 133.085 237.416 131.613 237.416ZM139.758 237.416C138.35 237.416 137.694 238.744 137.694 238.744V237.608H136.446V245H137.79V239.912C137.79 239.912 138.318 238.664 139.486 238.664C140.046 238.664 140.334 238.824 140.334 238.824L140.83 237.608C140.83 237.608 140.366 237.416 139.758 237.416ZM144.667 245.192C146.267 245.192 146.939 243.864 146.939 243.864V245H148.187V237.608H146.843V242.728C146.843 242.728 146.251 243.944 145.003 243.944C144.011 243.944 143.227 243.4 143.227 242.136V237.608H141.883V242.36C141.883 244.184 143.195 245.192 144.667 245.192ZM153.763 237.416C152.163 237.416 151.491 238.648 151.491 238.648V237.608H150.243V245H151.587V239.912C151.587 239.912 152.227 238.664 153.427 238.664C154.419 238.664 155.203 239.208 155.203 240.472V245H156.547V240.248C156.547 238.424 155.235 237.416 153.763 237.416ZM164.058 245.096C164.058 246.76 163.082 247.624 161.514 247.624C159.994 247.624 159.098 246.456 159.098 246.456L158.282 247.464C158.282 247.464 159.482 248.872 161.514 248.872C163.658 248.872 165.402 247.592 165.402 245.032V237.608H164.17V238.68C164.17 238.68 163.45 237.416 161.674 237.416C159.674 237.416 158.09 239.128 158.09 241.304C158.09 243.48 159.674 245.192 161.674 245.192C163.034 245.192 163.802 244.408 164.058 244.072V245.096ZM164.058 242.696C164.058 242.696 163.354 243.944 161.882 243.944C160.378 243.944 159.434 242.76 159.434 241.304C159.434 239.848 160.378 238.664 161.882 238.664C163.338 238.664 164.058 239.912 164.058 239.912V242.696ZM166.966 243.64C166.966 243.64 168.054 245.192 170.134 245.192C171.558 245.192 173.062 244.456 173.062 243.032C173.062 241.528 171.862 241 170.454 240.696C169.238 240.44 168.662 240.136 168.662 239.576C168.662 239.096 169.126 238.632 170.07 238.632C171.19 238.632 171.926 239.448 171.926 239.448L172.806 238.536C172.806 238.536 171.814 237.416 170.07 237.416C168.422 237.416 167.35 238.472 167.35 239.544C167.35 240.936 168.47 241.56 170.054 241.88C171.19 242.104 171.734 242.424 171.734 243.064C171.734 243.656 170.886 243.976 170.134 243.976C168.678 243.976 167.894 242.776 167.894 242.776L166.966 243.64ZM174.727 237.608V248.68H176.071V244.088C176.327 244.424 177.095 245.192 178.455 245.192C180.455 245.192 182.039 243.48 182.039 241.304C182.039 239.128 180.455 237.416 178.455 237.416C176.695 237.416 175.959 238.68 175.959 238.68V237.608H174.727ZM176.071 239.928C176.071 239.928 176.775 238.664 178.247 238.664C179.751 238.664 180.695 239.848 180.695 241.304C180.695 242.76 179.751 243.944 178.247 243.944C176.775 243.944 176.071 242.68 176.071 242.68V239.928ZM186.867 237.416C184.691 237.416 183.059 239.128 183.059 241.304C183.059 243.48 184.691 245.192 186.867 245.192C189.043 245.192 190.675 243.48 190.675 241.304C190.675 239.128 189.043 237.416 186.867 237.416ZM186.867 243.944C185.379 243.944 184.403 242.76 184.403 241.304C184.403 239.848 185.379 238.664 186.867 238.664C188.355 238.664 189.331 239.848 189.331 241.304C189.331 242.76 188.355 243.944 186.867 243.944ZM191.732 243.64C191.732 243.64 192.82 245.192 194.9 245.192C196.324 245.192 197.828 244.456 197.828 243.032C197.828 241.528 196.628 241 195.22 240.696C194.004 240.44 193.428 240.136 193.428 239.576C193.428 239.096 193.892 238.632 194.836 238.632C195.956 238.632 196.692 239.448 196.692 239.448L197.572 238.536C197.572 238.536 196.58 237.416 194.836 237.416C193.188 237.416 192.116 238.472 192.116 239.544C192.116 240.936 193.236 241.56 194.82 241.88C195.956 242.104 196.5 242.424 196.5 243.064C196.5 243.656 195.652 243.976 194.9 243.976C193.444 243.976 192.66 242.776 192.66 242.776L191.732 243.64ZM199.733 245H201.077V237.608H199.733V245ZM199.493 235.24C199.493 235.736 199.909 236.152 200.405 236.152C200.901 236.152 201.317 235.736 201.317 235.24C201.317 234.744 200.901 234.328 200.405 234.328C199.909 234.328 199.493 234.744 199.493 235.24ZM202.728 238.824H204.168V242.872C204.168 244.504 205.336 245.192 206.392 245.192C206.824 245.192 207.288 245.096 207.928 244.744L207.432 243.64C207.432 243.64 207 243.944 206.584 243.944C205.864 243.944 205.512 243.528 205.512 242.808V238.824H207.816V237.608H205.512V235.352H204.168V237.608H202.728V238.824ZM209.623 245H210.967V237.608H209.623V245ZM209.383 235.24C209.383 235.736 209.799 236.152 210.295 236.152C210.791 236.152 211.207 235.736 211.207 235.24C211.207 234.744 210.791 234.328 210.295 234.328C209.799 234.328 209.383 234.744 209.383 235.24ZM216.554 237.416C214.378 237.416 212.746 239.128 212.746 241.304C212.746 243.48 214.378 245.192 216.554 245.192C218.73 245.192 220.362 243.48 220.362 241.304C220.362 239.128 218.73 237.416 216.554 237.416ZM216.554 243.944C215.066 243.944 214.09 242.76 214.09 241.304C214.09 239.848 215.066 238.664 216.554 238.664C218.042 238.664 219.018 239.848 219.018 241.304C219.018 242.76 218.042 243.944 216.554 243.944ZM225.419 237.416C223.819 237.416 223.147 238.648 223.147 238.648V237.608H221.899V245H223.243V239.912C223.243 239.912 223.883 238.664 225.083 238.664C226.075 238.664 226.859 239.208 226.859 240.472V245H228.203V240.248C228.203 238.424 226.891 237.416 225.419 237.416Z" fill="#707070"/>
<rect x="18.5" y="232.5" width="15" height="15" rx="1.5" stroke="#707070"/>
<path d="M321.664 73.8H319.664L317.232 80.52L314.736 73.8H313.152L310.608 80.52L308.24 73.8H306.064L310.48 85.384L313.888 76.984L317.248 85.384L321.664 73.8ZM325.34 77.224C323.084 77.224 321.292 78.968 321.292 81.208C321.292 83.432 323.084 85.192 325.34 85.192C327.596 85.192 329.388 83.432 329.388 81.208C329.388 78.968 327.596 77.224 325.34 77.224ZM325.34 83.4C324.044 83.4 323.244 82.392 323.244 81.208C323.244 80.024 324.044 79.016 325.34 79.016C326.636 79.016 327.436 80.024 327.436 81.208C327.436 82.392 326.636 83.4 325.34 83.4ZM334.676 77.224C333.268 77.224 332.612 78.52 332.612 78.52V77.416H330.788V85H332.708V80.04C332.708 80.04 333.236 79.016 334.404 79.016C334.964 79.016 335.316 79.192 335.316 79.192L335.988 77.464C335.988 77.464 335.364 77.224 334.676 77.224ZM339.12 72.904H337.2V85H339.12V81.688L342.016 85H344.544L340.992 81L344.32 77.416H341.84L339.12 80.408V72.904ZM352.385 75.624H357.249V73.8H350.465V85H357.345V83.176H352.385V80.168H356.865V78.344H352.385V75.624Z" fill="#333333"/>
<path d="M330.312 149H333.816C336.024 149 337.464 147.752 337.464 145.8C337.464 143.576 335.752 143.08 335.592 143.048C335.752 143.016 336.856 142.376 336.856 140.856C336.856 138.984 335.56 137.8 333.256 137.8H330.312V149ZM333.816 147.72H331.656V143.88H333.816C335.416 143.88 336.12 144.744 336.12 145.8C336.12 146.856 335.416 147.72 333.816 147.72ZM331.656 142.632V139.08H333.48C334.744 139.08 335.512 139.768 335.512 140.856C335.512 141.944 334.744 142.632 333.48 142.632H331.656ZM341.968 141.416C340.352 141.416 339.2 142.168 339.2 142.168L339.76 143.288C339.76 143.288 340.848 142.664 341.968 142.664C342.56 142.664 343.84 142.872 343.84 144.408V144.808C343.84 144.808 342.976 144.2 341.616 144.2C339.952 144.2 338.688 145.224 338.688 146.664C338.688 148.264 340.112 149.192 341.44 149.192C343.12 149.192 343.952 147.928 343.952 147.928V149H345.184V144.136C345.184 142.76 344.144 141.416 341.968 141.416ZM341.728 148.008C340.896 148.008 340.032 147.624 340.032 146.664C340.032 145.896 340.752 145.32 341.904 145.32C343.104 145.32 343.84 145.848 343.84 145.848V146.888C343.84 146.888 343.04 148.008 341.728 148.008ZM350.539 141.416C349.131 141.416 348.475 142.744 348.475 142.744V141.608H347.227V149H348.571V143.912C348.571 143.912 349.099 142.664 350.267 142.664C350.827 142.664 351.115 142.824 351.115 142.824L351.611 141.608C351.611 141.608 351.147 141.416 350.539 141.416ZM355.977 141.416C354.569 141.416 353.913 142.744 353.913 142.744V141.608H352.665V149H354.009V143.912C354.009 143.912 354.537 142.664 355.705 142.664C356.265 142.664 356.553 142.824 356.553 142.824L357.049 141.608C357.049 141.608 356.585 141.416 355.977 141.416ZM358.342 149H359.686V141.608H358.342V149ZM358.102 139.24C358.102 139.736 358.518 140.152 359.014 140.152C359.51 140.152 359.926 139.736 359.926 139.24C359.926 138.744 359.51 138.328 359.014 138.328C358.518 138.328 358.102 138.744 358.102 139.24ZM365.161 141.416C362.937 141.416 361.465 143.144 361.465 145.304C361.465 147.496 363.081 149.192 365.321 149.192C367.273 149.192 368.393 147.736 368.393 147.736L367.545 146.856C367.545 146.856 366.777 147.944 365.321 147.944C363.929 147.944 362.857 146.904 362.777 145.784H368.745C368.761 145.608 368.761 145.496 368.761 145.352C368.761 142.968 367.225 141.416 365.161 141.416ZM362.809 144.664C362.905 143.896 363.561 142.664 365.161 142.664C366.649 142.664 367.401 143.832 367.449 144.664H362.809ZM373.602 141.416C372.194 141.416 371.538 142.744 371.538 142.744V141.608H370.29V149H371.634V143.912C371.634 143.912 372.162 142.664 373.33 142.664C373.89 142.664 374.178 142.824 374.178 142.824L374.674 141.608C374.674 141.608 374.21 141.416 373.602 141.416ZM378.661 141.416C376.437 141.416 374.965 143.144 374.965 145.304C374.965 147.496 376.581 149.192 378.821 149.192C380.773 149.192 381.893 147.736 381.893 147.736L381.045 146.856C381.045 146.856 380.277 147.944 378.821 147.944C377.429 147.944 376.357 146.904 376.277 145.784H382.245C382.261 145.608 382.261 145.496 382.261 145.352C382.261 142.968 380.725 141.416 378.661 141.416ZM376.309 144.664C376.405 143.896 377.061 142.664 378.661 142.664C380.149 142.664 380.901 143.832 380.949 144.664H376.309ZM383.086 142.824H384.622V149H385.966V142.824H387.886V141.608H385.966V139.144C385.966 138.424 386.366 137.96 387.086 137.96C387.502 137.96 387.95 138.248 387.95 138.248L388.446 137.144C387.806 136.792 387.326 136.712 386.894 136.712C385.838 136.712 384.622 137.496 384.622 139.064V141.608H383.086V142.824ZM392.586 141.416C391.178 141.416 390.522 142.744 390.522 142.744V141.608H389.274V149H390.618V143.912C390.618 143.912 391.146 142.664 392.314 142.664C392.874 142.664 393.162 142.824 393.162 142.824L393.658 141.608C393.658 141.608 393.194 141.416 392.586 141.416ZM397.646 141.416C395.422 141.416 393.95 143.144 393.95 145.304C393.95 147.496 395.566 149.192 397.806 149.192C399.758 149.192 400.878 147.736 400.878 147.736L400.03 146.856C400.03 146.856 399.262 147.944 397.806 147.944C396.414 147.944 395.342 146.904 395.262 145.784H401.23C401.246 145.608 401.246 145.496 401.246 145.352C401.246 142.968 399.71 141.416 397.646 141.416ZM395.294 144.664C395.39 143.896 396.046 142.664 397.646 142.664C399.134 142.664 399.886 143.832 399.934 144.664H395.294ZM403.014 149H404.358V141.608H403.014V149ZM402.774 139.24C402.774 139.736 403.19 140.152 403.686 140.152C404.182 140.152 404.598 139.736 404.598 139.24C404.598 138.744 404.182 138.328 403.686 138.328C403.19 138.328 402.774 138.744 402.774 139.24ZM410.457 141.416C409.177 141.416 408.505 142.184 408.281 142.504V136.904H406.937V149H408.281V143.912C408.281 143.912 408.921 142.664 410.121 142.664C411.113 142.664 411.897 143.208 411.897 144.472V149H413.241V144.248C413.241 142.424 411.929 141.416 410.457 141.416ZM418.474 141.416C416.25 141.416 414.778 143.144 414.778 145.304C414.778 147.496 416.394 149.192 418.634 149.192C420.586 149.192 421.706 147.736 421.706 147.736L420.858 146.856C420.858 146.856 420.09 147.944 418.634 147.944C417.242 147.944 416.17 146.904 416.09 145.784H422.058C422.074 145.608 422.074 145.496 422.074 145.352C422.074 142.968 420.538 141.416 418.474 141.416ZM416.122 144.664C416.218 143.896 416.874 142.664 418.474 142.664C419.962 142.664 420.714 143.832 420.762 144.664H416.122ZM423.842 149H425.186V141.608H423.842V149ZM423.602 139.24C423.602 139.736 424.018 140.152 424.514 140.152C425.01 140.152 425.426 139.736 425.426 139.24C425.426 138.744 425.01 138.328 424.514 138.328C424.018 138.328 423.602 138.744 423.602 139.24ZM426.837 142.824H428.277V146.872C428.277 148.504 429.445 149.192 430.501 149.192C430.933 149.192 431.397 149.096 432.037 148.744L431.541 147.64C431.541 147.64 431.109 147.944 430.693 147.944C429.973 147.944 429.621 147.528 429.621 146.808V142.824H431.925V141.608H429.621V139.352H428.277V141.608H426.837V142.824Z" fill="#707070"/>
<rect x="306.5" y="136.5" width="15" height="15" rx="1.5" stroke="#707070"/>
<path d="M329.128 117H330.568L331.736 113.976H336.568L337.736 117H339.144L334.776 105.8H333.528L329.128 117ZM334.152 107.72L336.072 112.696H332.232L334.152 107.72ZM340.578 117H341.922V104.904H340.578V117ZM343.618 110.824H345.058V114.872C345.058 116.504 346.226 117.192 347.282 117.192C347.714 117.192 348.178 117.096 348.818 116.744L348.322 115.64C348.322 115.64 347.89 115.944 347.474 115.944C346.754 115.944 346.402 115.528 346.402 114.808V110.824H348.706V109.608H346.402V107.352H345.058V109.608H343.618V110.824ZM354.29 109.416C352.658 109.416 351.906 110.52 351.906 110.52V104.904H350.562V117H351.794V115.928C351.794 115.928 352.514 117.192 354.29 117.192C356.29 117.192 357.874 115.48 357.874 113.304C357.874 111.128 356.29 109.416 354.29 109.416ZM351.906 111.944C351.906 111.944 352.61 110.664 354.082 110.664C355.554 110.664 356.53 111.848 356.53 113.304C356.53 114.76 355.586 115.944 354.082 115.944C352.61 115.944 351.906 114.664 351.906 114.664V111.944ZM362.343 109.416C360.727 109.416 359.575 110.168 359.575 110.168L360.135 111.288C360.135 111.288 361.223 110.664 362.343 110.664C362.935 110.664 364.215 110.872 364.215 112.408V112.808C364.215 112.808 363.351 112.2 361.991 112.2C360.327 112.2 359.063 113.224 359.063 114.664C359.063 116.264 360.487 117.192 361.815 117.192C363.495 117.192 364.327 115.928 364.327 115.928V117H365.559V112.136C365.559 110.76 364.519 109.416 362.343 109.416ZM362.103 116.008C361.271 116.008 360.407 115.624 360.407 114.664C360.407 113.896 361.127 113.32 362.279 113.32C363.479 113.32 364.215 113.848 364.215 113.848V114.888C364.215 114.888 363.415 116.008 362.103 116.008ZM370.386 117.192C371.986 117.192 372.658 115.864 372.658 115.864V117H373.906V109.608H372.562V114.728C372.562 114.728 371.97 115.944 370.722 115.944C369.73 115.944 368.946 115.4 368.946 114.136V109.608H367.602V114.36C367.602 116.184 368.914 117.192 370.386 117.192Z" fill="#707070"/>
<rect x="306.5" y="104.5" width="15" height="15" rx="1.5" stroke="#707070"/>
<path d="M331.656 171.08H336.776V169.8H330.312V181H336.872V179.72H331.656V175.896H336.392V174.616H331.656V171.08ZM338.967 181H340.311V173.608H338.967V181ZM338.727 171.24C338.727 171.736 339.143 172.152 339.639 172.152C340.135 172.152 340.551 171.736 340.551 171.24C340.551 170.744 340.135 170.328 339.639 170.328C339.143 170.328 338.727 170.744 338.727 171.24ZM346.122 173.416C344.522 173.416 343.85 174.648 343.85 174.648V173.608H342.602V181H343.946V175.912C343.946 175.912 344.586 174.664 345.786 174.664C346.778 174.664 347.562 175.208 347.562 176.472V181H348.906V176.248C348.906 174.424 347.594 173.416 346.122 173.416ZM350.706 173.608V174.856H354.722L350.482 181H356.914V179.752H352.85L357.09 173.608H350.706ZM361.661 173.416C359.437 173.416 357.965 175.144 357.965 177.304C357.965 179.496 359.581 181.192 361.821 181.192C363.773 181.192 364.893 179.736 364.893 179.736L364.045 178.856C364.045 178.856 363.277 179.944 361.821 179.944C360.429 179.944 359.357 178.904 359.277 177.784H365.245C365.261 177.608 365.261 177.496 365.261 177.352C365.261 174.968 363.725 173.416 361.661 173.416ZM359.309 176.664C359.405 175.896 360.061 174.664 361.661 174.664C363.149 174.664 363.901 175.832 363.949 176.664H359.309ZM367.03 181H368.374V173.608H367.03V181ZM366.79 171.24C366.79 171.736 367.206 172.152 367.702 172.152C368.198 172.152 368.614 171.736 368.614 171.24C368.614 170.744 368.198 170.328 367.702 170.328C367.206 170.328 366.79 170.744 366.79 171.24ZM370.953 181H372.297V168.904H370.953V181ZM378.649 173.416C377.017 173.416 376.265 174.52 376.265 174.52V168.904H374.921V181H376.153V179.928C376.153 179.928 376.873 181.192 378.649 181.192C380.649 181.192 382.233 179.48 382.233 177.304C382.233 175.128 380.649 173.416 378.649 173.416ZM376.265 175.944C376.265 175.944 376.969 174.664 378.441 174.664C379.913 174.664 380.889 175.848 380.889 177.304C380.889 178.76 379.945 179.944 378.441 179.944C376.969 179.944 376.265 178.664 376.265 178.664V175.944ZM386.558 181.192C388.158 181.192 388.83 179.864 388.83 179.864V181H390.078V173.608H388.734V178.728C388.734 178.728 388.142 179.944 386.894 179.944C385.902 179.944 385.118 179.4 385.118 178.136V173.608H383.774V178.36C383.774 180.184 385.086 181.192 386.558 181.192ZM384.574 171.24C384.574 171.736 384.99 172.152 385.486 172.152C385.982 172.152 386.398 171.736 386.398 171.24C386.398 170.744 385.982 170.328 385.486 170.328C384.99 170.328 384.574 170.744 384.574 171.24ZM387.47 171.24C387.47 171.736 387.886 172.152 388.382 172.152C388.878 172.152 389.294 171.736 389.294 171.24C389.294 170.744 388.878 170.328 388.382 170.328C387.886 170.328 387.47 170.744 387.47 171.24ZM395.445 173.416C394.037 173.416 393.381 174.744 393.381 174.744V173.608H392.133V181H393.477V175.912C393.477 175.912 394.005 174.664 395.173 174.664C395.733 174.664 396.021 174.824 396.021 174.824L396.517 173.608C396.517 173.608 396.053 173.416 395.445 173.416ZM400.617 173.416C398.441 173.416 396.809 175.128 396.809 177.304C396.809 179.48 398.441 181.192 400.617 181.192C402.793 181.192 404.425 179.48 404.425 177.304C404.425 175.128 402.793 173.416 400.617 173.416ZM400.617 179.944C399.129 179.944 398.153 178.76 398.153 177.304C398.153 175.848 399.129 174.664 400.617 174.664C402.105 174.664 403.081 175.848 403.081 177.304C403.081 178.76 402.105 179.944 400.617 179.944ZM405.482 179.64C405.482 179.64 406.57 181.192 408.65 181.192C410.074 181.192 411.578 180.456 411.578 179.032C411.578 177.528 410.378 177 408.97 176.696C407.754 176.44 407.178 176.136 407.178 175.576C407.178 175.096 407.642 174.632 408.586 174.632C409.706 174.632 410.442 175.448 410.442 175.448L411.322 174.536C411.322 174.536 410.33 173.416 408.586 173.416C406.938 173.416 405.866 174.472 405.866 175.544C405.866 176.936 406.986 177.56 408.57 177.88C409.706 178.104 410.25 178.424 410.25 179.064C410.25 179.656 409.402 179.976 408.65 179.976C407.194 179.976 406.41 178.776 406.41 178.776L405.482 179.64Z" fill="#707070"/>
<rect x="306.5" y="168.5" width="15" height="15" rx="1.5" stroke="#707070"/>
<path d="M335.448 208.136H338.248V211.096C338.248 211.096 337.224 211.912 335.176 211.912C332.744 211.912 331.048 209.784 331.048 207.4C331.048 205.016 332.744 202.888 335.176 202.888C337.24 202.888 338.312 204.136 338.312 204.136L339.272 203.192C339.272 203.192 338.072 201.608 335.176 201.608C331.944 201.608 329.608 204.168 329.608 207.4C329.608 210.632 331.944 213.192 335.176 213.192C338.088 213.192 339.576 211.72 339.576 211.72V206.856H335.448V208.136ZM344.805 205.416C343.397 205.416 342.741 206.744 342.741 206.744V205.608H341.493V213H342.837V207.912C342.837 207.912 343.365 206.664 344.533 206.664C345.093 206.664 345.381 206.824 345.381 206.824L345.877 205.608C345.877 205.608 345.413 205.416 344.805 205.416ZM349.976 205.416C347.8 205.416 346.168 207.128 346.168 209.304C346.168 211.48 347.8 213.192 349.976 213.192C352.152 213.192 353.784 211.48 353.784 209.304C353.784 207.128 352.152 205.416 349.976 205.416ZM349.976 211.944C348.488 211.944 347.512 210.76 347.512 209.304C347.512 207.848 348.488 206.664 349.976 206.664C351.464 206.664 352.44 207.848 352.44 209.304C352.44 210.76 351.464 211.944 349.976 211.944ZM355.353 213H356.697V204.248C356.697 203.144 357.129 201.96 358.585 201.96C360.137 201.96 360.505 203.176 360.505 203.784C360.505 204.6 360.057 205.608 358.249 205.608V206.792C360.377 206.792 361.337 207.976 361.337 209.368C361.337 210.76 360.441 211.944 358.489 211.944C358.249 211.944 358.089 211.944 358.089 211.944V213.192C358.089 213.192 358.249 213.192 358.569 213.192C360.489 213.192 362.681 212.088 362.681 209.368C362.681 206.648 360.361 206.104 360.361 206.104C360.361 206.104 361.849 205.56 361.849 203.8C361.849 201.528 359.929 200.712 358.585 200.712C356.505 200.712 355.353 202.12 355.353 204.152C355.353 208.312 355.353 213 355.353 213ZM367.727 205.416C366.319 205.416 365.663 206.744 365.663 206.744V205.608H364.415V213H365.759V207.912C365.759 207.912 366.287 206.664 367.455 206.664C368.015 206.664 368.303 206.824 368.303 206.824L368.799 205.608C368.799 205.608 368.335 205.416 367.727 205.416ZM372.593 205.416C370.977 205.416 369.825 206.168 369.825 206.168L370.385 207.288C370.385 207.288 371.473 206.664 372.593 206.664C373.185 206.664 374.465 206.872 374.465 208.408V208.808C374.465 208.808 373.601 208.2 372.241 208.2C370.577 208.2 369.313 209.224 369.313 210.664C369.313 212.264 370.737 213.192 372.065 213.192C373.745 213.192 374.577 211.928 374.577 211.928V213H375.809V208.136C375.809 206.76 374.769 205.416 372.593 205.416ZM372.353 212.008C371.521 212.008 370.657 211.624 370.657 210.664C370.657 209.896 371.377 209.32 372.529 209.32C373.729 209.32 374.465 209.848 374.465 209.848V210.888C374.465 210.888 373.665 212.008 372.353 212.008ZM380.636 213.192C382.236 213.192 382.908 211.864 382.908 211.864V213H384.156V205.608H382.812V210.728C382.812 210.728 382.22 211.944 380.972 211.944C379.98 211.944 379.196 211.4 379.196 210.136V205.608H377.852V210.36C377.852 212.184 379.164 213.192 380.636 213.192ZM394.02 205.416C392.404 205.416 391.812 206.792 391.812 206.792C391.812 206.792 391.348 205.416 389.508 205.416C388.004 205.416 387.46 206.696 387.46 206.696V205.608H386.212V213H387.556V207.848C387.556 207.848 388.052 206.664 389.14 206.664C390.1 206.664 390.724 207.256 390.724 208.456V213H392.068V207.848C392.068 207.848 392.548 206.664 393.652 206.664C394.612 206.664 395.236 207.256 395.236 208.456V213H396.58V208.248C396.58 206.424 395.556 205.416 394.02 205.416ZM402.649 205.416C401.017 205.416 400.265 206.52 400.265 206.52V200.904H398.921V213H400.153V211.928C400.153 211.928 400.873 213.192 402.649 213.192C404.649 213.192 406.233 211.48 406.233 209.304C406.233 207.128 404.649 205.416 402.649 205.416ZM400.265 207.944C400.265 207.944 400.969 206.664 402.441 206.664C403.913 206.664 404.889 207.848 404.889 209.304C404.889 210.76 403.945 211.944 402.441 211.944C400.969 211.944 400.265 210.664 400.265 210.664V207.944ZM410.558 213.192C412.158 213.192 412.83 211.864 412.83 211.864V213H414.078V205.608H412.734V210.728C412.734 210.728 412.142 211.944 410.894 211.944C409.902 211.944 409.118 211.4 409.118 210.136V205.608H407.774V210.36C407.774 212.184 409.086 213.192 410.558 213.192ZM408.574 203.24C408.574 203.736 408.99 204.152 409.486 204.152C409.982 204.152 410.398 203.736 410.398 203.24C410.398 202.744 409.982 202.328 409.486 202.328C408.99 202.328 408.574 202.744 408.574 203.24ZM411.47 203.24C411.47 203.736 411.886 204.152 412.382 204.152C412.878 204.152 413.294 203.736 413.294 203.24C413.294 202.744 412.878 202.328 412.382 202.328C411.886 202.328 411.47 202.744 411.47 203.24ZM419.445 205.416C418.037 205.416 417.381 206.744 417.381 206.744V205.608H416.133V213H417.477V207.912C417.477 207.912 418.005 206.664 419.173 206.664C419.733 206.664 420.021 206.824 420.021 206.824L420.517 205.608C420.517 205.608 420.053 205.416 419.445 205.416ZM424.617 205.416C422.441 205.416 420.809 207.128 420.809 209.304C420.809 211.48 422.441 213.192 424.617 213.192C426.793 213.192 428.425 211.48 428.425 209.304C428.425 207.128 426.793 205.416 424.617 205.416ZM424.617 211.944C423.129 211.944 422.153 210.76 422.153 209.304C422.153 207.848 423.129 206.664 424.617 206.664C426.105 206.664 427.081 207.848 427.081 209.304C427.081 210.76 426.105 211.944 424.617 211.944ZM429.482 211.64C429.482 211.64 430.57 213.192 432.65 213.192C434.074 213.192 435.578 212.456 435.578 211.032C435.578 209.528 434.378 209 432.97 208.696C431.754 208.44 431.178 208.136 431.178 207.576C431.178 207.096 431.642 206.632 432.586 206.632C433.706 206.632 434.442 207.448 434.442 207.448L435.322 206.536C435.322 206.536 434.33 205.416 432.586 205.416C430.938 205.416 429.866 206.472 429.866 207.544C429.866 208.936 430.986 209.56 432.57 209.88C433.706 210.104 434.25 210.424 434.25 211.064C434.25 211.656 433.402 211.976 432.65 211.976C431.194 211.976 430.41 210.776 430.41 210.776L429.482 211.64Z" fill="#707070"/>
<rect x="306.5" y="200.5" width="15" height="15" rx="1.5" stroke="#707070"/>
<path d="M330.312 245H333.816C336.024 245 337.464 243.752 337.464 241.8C337.464 239.576 335.752 239.08 335.592 239.048C335.752 239.016 336.856 238.376 336.856 236.856C336.856 234.984 335.56 233.8 333.256 233.8H330.312V245ZM333.816 243.72H331.656V239.88H333.816C335.416 239.88 336.12 240.744 336.12 241.8C336.12 242.856 335.416 243.72 333.816 243.72ZM331.656 238.632V235.08H333.48C334.744 235.08 335.512 235.768 335.512 236.856C335.512 237.944 334.744 238.632 333.48 238.632H331.656ZM341.968 237.416C340.352 237.416 339.2 238.168 339.2 238.168L339.76 239.288C339.76 239.288 340.848 238.664 341.968 238.664C342.56 238.664 343.84 238.872 343.84 240.408V240.808C343.84 240.808 342.976 240.2 341.616 240.2C339.952 240.2 338.688 241.224 338.688 242.664C338.688 244.264 340.112 245.192 341.44 245.192C343.12 245.192 343.952 243.928 343.952 243.928V245H345.184V240.136C345.184 238.76 344.144 237.416 341.968 237.416ZM341.728 244.008C340.896 244.008 340.032 243.624 340.032 242.664C340.032 241.896 340.752 241.32 341.904 241.32C343.104 241.32 343.84 241.848 343.84 241.848V242.888C343.84 242.888 343.04 244.008 341.728 244.008ZM347.515 245H348.859V232.904H347.515V245ZM356.172 245H358.044L354.3 241.096L357.756 237.608H355.996L352.828 240.888V232.904H351.484V245H352.828V241.416L356.172 245ZM362.148 237.416C359.972 237.416 358.34 239.128 358.34 241.304C358.34 243.48 359.972 245.192 362.148 245.192C364.324 245.192 365.956 243.48 365.956 241.304C365.956 239.128 364.324 237.416 362.148 237.416ZM362.148 243.944C360.66 243.944 359.684 242.76 359.684 241.304C359.684 239.848 360.66 238.664 362.148 238.664C363.636 238.664 364.612 239.848 364.612 241.304C364.612 242.76 363.636 243.944 362.148 243.944ZM371.013 237.416C369.413 237.416 368.741 238.648 368.741 238.648V237.608H367.493V245H368.837V239.912C368.837 239.912 369.477 238.664 370.677 238.664C371.669 238.664 372.453 239.208 372.453 240.472V245H373.797V240.248C373.797 238.424 372.485 237.416 371.013 237.416Z" fill="#707070"/>
<rect x="306.5" y="232.5" width="15" height="15" rx="1.5" stroke="#707070"/>
</g>
</svg>
