<svg width="352" height="236" viewBox="0 0 352 236" fill="none" xmlns="http://www.w3.org/2000/svg">
<rect width="352" height="236" fill="#24253D"/>
<g filter="url(#filter0_d)">
<circle r="2" transform="matrix(0.866029 0.499994 0.500006 -0.866022 29.7321 124.696)" fill="white"/>
</g>
<g filter="url(#filter1_d)">
<circle r="2" transform="matrix(0.866029 0.499994 0.500006 -0.866022 303.931 200.957)" fill="white"/>
</g>
<g filter="url(#filter2_d)">
<circle r="2" transform="matrix(0.866029 0.499994 0.500006 -0.866022 188.197 50.7321)" fill="white"/>
</g>
<g filter="url(#filter3_d)">
<circle r="2" transform="matrix(0.866029 0.499994 0.500006 -0.866022 32.7321 190.732)" fill="white"/>
</g>
<g filter="url(#filter4_d)">
<circle r="2" transform="matrix(0.866029 0.499994 0.500006 -0.866022 117.732 195.732)" fill="white"/>
</g>
<g filter="url(#filter5_d)">
<circle r="2" transform="matrix(0.866029 0.499994 0.500006 -0.866022 161.197 160.732)" fill="white"/>
</g>
<g filter="url(#filter6_d)">
<circle r="2" transform="matrix(0.866029 0.499994 0.500006 -0.866022 309.732 37.7321)" fill="white"/>
</g>
<path d="M259.41 127.382C259.776 127.017 260.281 126.79 260.84 126.79C261.956 126.79 262.861 127.695 262.861 128.812L262.861 138.919C262.861 140.035 261.956 140.94 260.84 140.94C259.724 140.94 258.819 140.035 258.819 138.919L258.818 128.812C258.818 128.254 259.044 127.748 259.41 127.382Z" fill="#556080"/>
<path d="M243.238 127.382C243.604 127.016 244.11 126.79 244.668 126.79C245.784 126.79 246.689 127.695 246.689 128.811L246.689 138.918C246.689 140.035 245.784 140.939 244.668 140.94C243.552 140.94 242.647 140.034 242.647 138.918L242.646 128.811C242.646 128.253 242.873 127.748 243.238 127.382Z" fill="#556080"/>
<path d="M240.626 197.539L264.883 197.54C265.984 197.54 266.905 196.62 266.904 195.519L266.903 138.919C266.903 137.818 265.982 136.897 264.881 136.897L240.624 136.897C239.523 136.897 238.603 137.816 238.603 138.918L238.605 195.518C238.605 196.635 239.51 197.539 240.626 197.539Z" fill="#3763D5"/>
<path d="M250.733 197.54L254.775 197.54L254.775 183.39L266.903 183.39L266.903 179.347L254.775 179.347L254.774 169.24L266.903 169.24L266.903 165.197L254.774 165.197L254.774 155.09L266.902 155.09L266.902 151.048L254.774 151.047L254.774 136.897L250.731 136.897L250.731 151.047L238.603 151.047L238.603 155.089L250.731 155.09L250.732 165.197L238.603 165.197L238.603 169.239L250.732 169.24L250.732 179.347L238.603 179.347L238.603 183.389L250.732 183.39L250.733 197.54Z" fill="#444444"/>
<path d="M259.41 105.147C259.776 104.781 260.281 104.554 260.84 104.554C261.956 104.554 262.861 105.459 262.861 106.576L262.861 116.683C262.861 117.799 261.956 118.704 260.84 118.704C259.724 118.704 258.819 117.799 258.819 116.683L258.818 106.576C258.818 106.018 259.044 105.512 259.41 105.147Z" fill="#556080"/>
<path d="M243.238 105.146C243.604 104.78 244.11 104.554 244.668 104.554C245.784 104.554 246.689 105.459 246.689 106.575L246.69 116.682C246.689 117.798 245.784 118.704 244.668 118.704C243.552 118.704 242.647 117.799 242.647 116.682L242.647 106.575C242.646 106.017 242.873 105.512 243.238 105.146Z" fill="#556080"/>
<path d="M240.625 108.597L264.882 108.597C265.998 108.597 266.903 107.692 266.903 106.576L266.901 49.9762C266.901 48.8753 265.98 47.9547 264.879 47.9547L240.622 47.954C239.521 47.9541 238.601 48.8737 238.601 49.9752L238.603 106.575C238.603 107.676 239.523 108.597 240.625 108.597Z" fill="#3763D5"/>
<path d="M250.733 108.597L254.775 108.597L254.775 94.4473L266.903 94.4476L266.903 90.4049L254.775 90.4044L254.774 80.2973L266.903 80.2977L266.903 76.255L254.774 76.2544L254.774 66.1473L266.902 66.1475L266.902 62.1046L254.774 62.1043L254.773 47.9543L250.73 47.9544L250.731 62.1041L238.602 62.1041L238.603 66.1468L250.731 66.147L250.731 76.2543L238.603 76.2541L238.603 80.2968L250.732 80.297L250.732 90.4042L238.603 90.404L238.604 94.4468L250.732 94.447L250.733 108.597Z" fill="#444444"/>
<path d="M222.431 116.683L222.432 128.811L283.073 128.813L283.073 116.685L222.431 116.683Z" fill="#778099"/>
<path d="M272.97 140.94L305.312 140.942C306.413 140.942 307.334 140.021 307.334 138.92L307.333 106.578C307.332 105.461 306.428 104.556 305.311 104.556L272.968 104.555C271.867 104.555 270.947 105.476 270.947 106.576L270.948 138.919C270.948 140.036 271.853 140.941 272.97 140.94Z" fill="#EEEFF2"/>
<path d="M297.224 104.557L293.182 104.556L293.183 140.941L297.226 140.941L297.224 104.557Z" fill="#99A0B3"/>
<path d="M285.097 104.557L281.055 104.557L281.056 140.942L285.099 140.942L285.097 104.557Z" fill="#99A0B3"/>
<path d="M221.001 113.231C221.367 112.865 221.872 112.639 222.43 112.639C223.547 112.639 224.452 113.544 224.452 114.66L224.452 130.832C224.452 131.948 223.547 132.853 222.431 132.853C221.315 132.853 220.41 131.948 220.41 130.832L220.409 114.66C220.409 114.102 220.635 113.597 221.001 113.231Z" fill="black"/>
<path d="M201.314 124.554L217.486 132.64C218.112 132.953 218.857 132.92 219.452 132.552C220.048 132.184 220.411 131.533 220.411 130.832L220.411 114.661C220.41 113.96 220.048 113.309 219.452 112.941C218.856 112.573 218.111 112.539 217.485 112.852L201.314 120.938C199.852 121.669 199.855 123.824 201.314 124.554Z" fill="#515151"/>
<path d="M217.531 148.59C218.098 148.964 218.816 149.028 219.44 148.76C229.855 144.288 236.583 134.078 236.582 122.747C236.582 111.416 229.853 101.205 219.439 96.7325C218.129 96.1704 216.62 97.1612 216.62 98.5897L216.621 146.902C216.622 147.582 216.963 148.216 217.531 148.59Z" fill="#9E9E9E"/>
<g filter="url(#filter7_d)">
<path fill-rule="evenodd" clip-rule="evenodd" d="M54.1101 91.849C64.1299 110.908 75.4142 120.639 94.6556 110.511C113.897 100.383 111.321 86.0692 101.301 67.0099C91.2816 47.9506 49.4216 29.1347 49.4216 29.1347C49.4216 29.1347 44.0902 72.7897 54.1101 91.849Z" fill="url(#paint0_linear)"/>
</g>
<g filter="url(#filter8_d)">
<ellipse rx="21.4342" ry="21.4375" transform="matrix(0.845497 0.53398 -0.53337 0.845882 82.3037 86.9794)" fill="url(#paint1_radial)"/>
<g filter="url(#filter9_i)">
<ellipse rx="5.11862" ry="5.11939" transform="matrix(0.845497 0.53398 -0.53337 0.845882 94.4723 87.4743)" fill="#6F5F34"/>
</g>
<g filter="url(#filter10_i)">
<ellipse rx="3.19914" ry="3.19962" transform="matrix(0.845497 0.53398 -0.53337 0.845882 76.2014 94.857)" fill="#6F5F34"/>
</g>
<g filter="url(#filter11_i)">
<ellipse rx="7.0381" ry="7.03916" transform="matrix(0.845497 0.53398 -0.53337 0.845882 79.3251 77.908)" fill="#6F5F34"/>
</g>
</g>
<defs>
<filter id="filter0_d" x="17.7324" y="112.695" width="24.0007" height="24.0006" filterUnits="userSpaceOnUse" color-interpolation-filters="sRGB">
<feFlood flood-opacity="0" result="BackgroundImageFix"/>
<feColorMatrix in="SourceAlpha" type="matrix" values="0 0 0 0 0 0 0 0 0 0 0 0 0 0 0 0 0 0 127 0"/>
<feOffset/>
<feGaussianBlur stdDeviation="5"/>
<feColorMatrix type="matrix" values="0 0 0 0 1 0 0 0 0 1 0 0 0 0 1 0 0 0 1 0"/>
<feBlend mode="normal" in2="BackgroundImageFix" result="effect1_dropShadow"/>
<feBlend mode="normal" in="SourceGraphic" in2="effect1_dropShadow" result="shape"/>
</filter>
<filter id="filter1_d" x="291.932" y="188.957" width="24.0007" height="24.0006" filterUnits="userSpaceOnUse" color-interpolation-filters="sRGB">
<feFlood flood-opacity="0" result="BackgroundImageFix"/>
<feColorMatrix in="SourceAlpha" type="matrix" values="0 0 0 0 0 0 0 0 0 0 0 0 0 0 0 0 0 0 127 0"/>
<feOffset/>
<feGaussianBlur stdDeviation="5"/>
<feColorMatrix type="matrix" values="0 0 0 0 1 0 0 0 0 1 0 0 0 0 1 0 0 0 1 0"/>
<feBlend mode="normal" in2="BackgroundImageFix" result="effect1_dropShadow"/>
<feBlend mode="normal" in="SourceGraphic" in2="effect1_dropShadow" result="shape"/>
</filter>
<filter id="filter2_d" x="176.197" y="38.7318" width="24.0007" height="24.0006" filterUnits="userSpaceOnUse" color-interpolation-filters="sRGB">
<feFlood flood-opacity="0" result="BackgroundImageFix"/>
<feColorMatrix in="SourceAlpha" type="matrix" values="0 0 0 0 0 0 0 0 0 0 0 0 0 0 0 0 0 0 127 0"/>
<feOffset/>
<feGaussianBlur stdDeviation="5"/>
<feColorMatrix type="matrix" values="0 0 0 0 1 0 0 0 0 1 0 0 0 0 1 0 0 0 1 0"/>
<feBlend mode="normal" in2="BackgroundImageFix" result="effect1_dropShadow"/>
<feBlend mode="normal" in="SourceGraphic" in2="effect1_dropShadow" result="shape"/>
</filter>
<filter id="filter3_d" x="20.7324" y="178.732" width="24.0007" height="24.0006" filterUnits="userSpaceOnUse" color-interpolation-filters="sRGB">
<feFlood flood-opacity="0" result="BackgroundImageFix"/>
<feColorMatrix in="SourceAlpha" type="matrix" values="0 0 0 0 0 0 0 0 0 0 0 0 0 0 0 0 0 0 127 0"/>
<feOffset/>
<feGaussianBlur stdDeviation="5"/>
<feColorMatrix type="matrix" values="0 0 0 0 1 0 0 0 0 1 0 0 0 0 1 0 0 0 1 0"/>
<feBlend mode="normal" in2="BackgroundImageFix" result="effect1_dropShadow"/>
<feBlend mode="normal" in="SourceGraphic" in2="effect1_dropShadow" result="shape"/>
</filter>
<filter id="filter4_d" x="105.732" y="183.732" width="24.0007" height="24.0006" filterUnits="userSpaceOnUse" color-interpolation-filters="sRGB">
<feFlood flood-opacity="0" result="BackgroundImageFix"/>
<feColorMatrix in="SourceAlpha" type="matrix" values="0 0 0 0 0 0 0 0 0 0 0 0 0 0 0 0 0 0 127 0"/>
<feOffset/>
<feGaussianBlur stdDeviation="5"/>
<feColorMatrix type="matrix" values="0 0 0 0 1 0 0 0 0 1 0 0 0 0 1 0 0 0 1 0"/>
<feBlend mode="normal" in2="BackgroundImageFix" result="effect1_dropShadow"/>
<feBlend mode="normal" in="SourceGraphic" in2="effect1_dropShadow" result="shape"/>
</filter>
<filter id="filter5_d" x="149.197" y="148.732" width="24.0007" height="24.0006" filterUnits="userSpaceOnUse" color-interpolation-filters="sRGB">
<feFlood flood-opacity="0" result="BackgroundImageFix"/>
<feColorMatrix in="SourceAlpha" type="matrix" values="0 0 0 0 0 0 0 0 0 0 0 0 0 0 0 0 0 0 127 0"/>
<feOffset/>
<feGaussianBlur stdDeviation="5"/>
<feColorMatrix type="matrix" values="0 0 0 0 1 0 0 0 0 1 0 0 0 0 1 0 0 0 1 0"/>
<feBlend mode="normal" in2="BackgroundImageFix" result="effect1_dropShadow"/>
<feBlend mode="normal" in="SourceGraphic" in2="effect1_dropShadow" result="shape"/>
</filter>
<filter id="filter6_d" x="297.732" y="25.7318" width="24.0007" height="24.0006" filterUnits="userSpaceOnUse" color-interpolation-filters="sRGB">
<feFlood flood-opacity="0" result="BackgroundImageFix"/>
<feColorMatrix in="SourceAlpha" type="matrix" values="0 0 0 0 0 0 0 0 0 0 0 0 0 0 0 0 0 0 127 0"/>
<feOffset/>
<feGaussianBlur stdDeviation="5"/>
<feColorMatrix type="matrix" values="0 0 0 0 1 0 0 0 0 1 0 0 0 0 1 0 0 0 1 0"/>
<feBlend mode="normal" in2="BackgroundImageFix" result="effect1_dropShadow"/>
<feBlend mode="normal" in="SourceGraphic" in2="effect1_dropShadow" result="shape"/>
</filter>
<filter id="filter7_d" x="18.0039" y="3.1347" width="121.001" height="145.445" filterUnits="userSpaceOnUse" color-interpolation-filters="sRGB">
<feFlood flood-opacity="0" result="BackgroundImageFix"/>
<feColorMatrix in="SourceAlpha" type="matrix" values="0 0 0 0 0 0 0 0 0 0 0 0 0 0 0 0 0 0 127 0"/>
<feOffset dy="4"/>
<feGaussianBlur stdDeviation="15"/>
<feColorMatrix type="matrix" values="0 0 0 0 1 0 0 0 0 0.828635 0 0 0 0 0 0 0 0 0.67 0"/>
<feBlend mode="normal" in2="BackgroundImageFix" result="effect1_dropShadow"/>
<feBlend mode="normal" in="SourceGraphic" in2="effect1_dropShadow" result="shape"/>
</filter>
<filter id="filter8_d" x="56.873" y="61.5331" width="62.8619" height="62.8926" filterUnits="userSpaceOnUse" color-interpolation-filters="sRGB">
<feFlood flood-opacity="0" result="BackgroundImageFix"/>
<feColorMatrix in="SourceAlpha" type="matrix" values="0 0 0 0 0 0 0 0 0 0 0 0 0 0 0 0 0 0 127 0"/>
<feOffset dx="6" dy="6"/>
<feGaussianBlur stdDeviation="5"/>
<feColorMatrix type="matrix" values="0 0 0 0 0 0 0 0 0 0 0 0 0 0 0 0 0 0 0.25 0"/>
<feBlend mode="normal" in2="BackgroundImageFix" result="effect1_dropShadow"/>
<feBlend mode="normal" in="SourceGraphic" in2="effect1_dropShadow" result="shape"/>
</filter>
<filter id="filter9_i" x="89.3535" y="82.3528" width="10.2357" height="14.243" filterUnits="userSpaceOnUse" color-interpolation-filters="sRGB">
<feFlood flood-opacity="0" result="BackgroundImageFix"/>
<feBlend mode="normal" in="SourceGraphic" in2="BackgroundImageFix" result="shape"/>
<feColorMatrix in="SourceAlpha" type="matrix" values="0 0 0 0 0 0 0 0 0 0 0 0 0 0 0 0 0 0 127 0" result="hardAlpha"/>
<feOffset dy="4"/>
<feGaussianBlur stdDeviation="2"/>
<feComposite in2="hardAlpha" operator="arithmetic" k2="-1" k3="1"/>
<feColorMatrix type="matrix" values="0 0 0 0 0 0 0 0 0 0 0 0 0 0 0 0 0 0 0.25 0"/>
<feBlend mode="normal" in2="shape" result="effect1_innerShadow"/>
</filter>
<filter id="filter10_i" x="73.002" y="91.6561" width="6.3973" height="10.4019" filterUnits="userSpaceOnUse" color-interpolation-filters="sRGB">
<feFlood flood-opacity="0" result="BackgroundImageFix"/>
<feBlend mode="normal" in="SourceGraphic" in2="BackgroundImageFix" result="shape"/>
<feColorMatrix in="SourceAlpha" type="matrix" values="0 0 0 0 0 0 0 0 0 0 0 0 0 0 0 0 0 0 127 0" result="hardAlpha"/>
<feOffset dy="4"/>
<feGaussianBlur stdDeviation="2"/>
<feComposite in2="hardAlpha" operator="arithmetic" k2="-1" k3="1"/>
<feColorMatrix type="matrix" values="0 0 0 0 0 0 0 0 0 0 0 0 0 0 0 0 0 0 0.25 0"/>
<feBlend mode="normal" in2="shape" result="effect1_innerShadow"/>
</filter>
<filter id="filter11_i" x="72.2891" y="70.866" width="14.0741" height="18.0841" filterUnits="userSpaceOnUse" color-interpolation-filters="sRGB">
<feFlood flood-opacity="0" result="BackgroundImageFix"/>
<feBlend mode="normal" in="SourceGraphic" in2="BackgroundImageFix" result="shape"/>
<feColorMatrix in="SourceAlpha" type="matrix" values="0 0 0 0 0 0 0 0 0 0 0 0 0 0 0 0 0 0 127 0" result="hardAlpha"/>
<feOffset dy="4"/>
<feGaussianBlur stdDeviation="2"/>
<feComposite in2="hardAlpha" operator="arithmetic" k2="-1" k3="1"/>
<feColorMatrix type="matrix" values="0 0 0 0 0 0 0 0 0 0 0 0 0 0 0 0 0 0 0.25 0"/>
<feBlend mode="normal" in2="shape" result="effect1_innerShadow"/>
</filter>
<linearGradient id="paint0_linear" x1="27.2516" y1="40.8038" x2="68.5434" y2="119.253" gradientUnits="userSpaceOnUse">
<stop stop-color="#FFF73E"/>
<stop offset="1" stop-color="#9B3B1C"/>
</linearGradient>
<radialGradient id="paint1_radial" cx="0" cy="0" r="1" gradientUnits="userSpaceOnUse" gradientTransform="translate(21.4342 21.4375) rotate(90) scale(21.4375 21.4342)">
<stop stop-color="#9B7E33"/>
<stop offset="1" stop-color="#7F6217"/>
</radialGradient>
</defs>
</svg>
