<svg width="352" height="235" viewBox="0 0 352 235" fill="none" xmlns="http://www.w3.org/2000/svg">
<mask id="mask0" mask-type="alpha" maskUnits="userSpaceOnUse" x="0" y="0" width="352" height="235">
<rect width="352" height="235" fill="#C4C4C4"/>
</mask>
<g mask="url(#mask0)">
<rect width="352" height="236" fill="#21A5EE"/>
<rect x="19" y="21.9957" width="704" height="404" rx="8" fill="white"/>
<path d="M19 25.9957C19 23.7866 20.7909 21.9957 23 21.9957H719C721.209 21.9957 723 23.7866 723 25.9957V65.9957H19V25.9957Z" fill="#EEF0F2"/>
<path fill-rule="evenodd" clip-rule="evenodd" d="M38 47.9957C40.7614 47.9957 43 45.7572 43 42.9957C43 40.2343 40.7614 37.9957 38 37.9957C35.2386 37.9957 33 40.2343 33 42.9957C33 45.7572 35.2386 47.9957 38 47.9957Z" stroke="#707070" stroke-width="2" stroke-linecap="round" stroke-linejoin="round"/>
<path d="M44.9999 49.9957L41.5332 46.5291" stroke="#707070" stroke-width="2" stroke-linecap="round" stroke-linejoin="round"/>
<path d="M56.9375 38.7223V49.9957H61.2422C64.625 49.9957 66.6172 47.8942 66.6172 44.316C66.6172 40.7379 64.625 38.7223 61.2422 38.7223H56.9375ZM59.2969 40.6676H60.9609C63.0391 40.6676 64.2109 41.9645 64.2109 44.3239C64.2109 46.7614 63.0703 48.0426 60.9609 48.0426H59.2969V40.6676ZM73.4922 47.4332C73.2812 48.0739 72.6406 48.4879 71.8047 48.4879C70.6406 48.4879 69.8828 47.6676 69.8828 46.4723V46.3317H75.6562V45.6364C75.6562 43.0895 74.1172 41.441 71.6797 41.441C69.2031 41.441 67.6406 43.1754 67.6406 45.8473C67.6406 48.527 69.1875 50.1754 71.7656 50.1754C73.8359 50.1754 75.3359 49.0739 75.5859 47.4332H73.4922ZM71.7031 43.1285C72.7188 43.1285 73.4141 43.8629 73.4609 44.9332H69.9062C69.9844 43.8864 70.7031 43.1285 71.7031 43.1285Z" fill="#31393C"/>
<line x1="76.5" y1="32.9957" x2="76.5" y2="54.9957" stroke="#333333"/>
<path d="M85.2891 195.297H80.0078V192.078H85V190.477H80.0078V187.43H85.2891V185.727H77.9922V197H85.2891V195.297ZM86.8438 197H88.7891V192.18C88.7891 191.016 89.4531 190.305 90.5547 190.305C90.8828 190.305 91.1797 190.352 91.3438 190.414V188.656C91.2031 188.625 90.9844 188.578 90.7344 188.578C89.7578 188.578 89.0312 189.156 88.75 190.164H88.7109V188.719H86.8438V197ZM93.3594 187.469C93.9531 187.469 94.4219 186.992 94.4219 186.414C94.4219 185.828 93.9531 185.359 93.3594 185.359C92.7656 185.359 92.2891 185.828 92.2891 186.414C92.2891 186.992 92.7656 187.469 93.3594 187.469ZM92.3906 197H94.3359V188.719H92.3906V197ZM103.266 191.672C103.133 189.93 101.781 188.547 99.5938 188.547C97.1875 188.547 95.625 190.211 95.625 192.859C95.625 195.547 97.1875 197.164 99.6094 197.164C101.688 197.164 103.117 195.945 103.273 194.094H101.438C101.258 195.031 100.617 195.594 99.6328 195.594C98.3984 195.594 97.6016 194.594 97.6016 192.859C97.6016 191.156 98.3906 190.125 99.6172 190.125C100.656 190.125 101.273 190.789 101.43 191.672H103.266ZM107.836 185.727V197H111.953C115.328 197 117.312 194.906 117.312 191.336C117.312 187.766 115.32 185.727 111.953 185.727H107.836ZM109.852 187.43H111.742C113.992 187.43 115.258 188.82 115.258 191.344C115.258 193.914 114.008 195.297 111.742 195.297H109.852V187.43ZM124.203 194.523C123.992 195.211 123.305 195.664 122.398 195.664C121.125 195.664 120.312 194.773 120.312 193.445V193.328H126.102V192.695C126.102 190.18 124.633 188.547 122.281 188.547C119.891 188.547 118.375 190.273 118.375 192.891C118.375 195.531 119.875 197.164 122.359 197.164C124.32 197.164 125.773 196.086 126.023 194.523H124.203ZM122.289 190.055C123.406 190.055 124.156 190.875 124.195 192.047H120.328C120.406 190.891 121.195 190.055 122.289 190.055ZM132.773 192.758H134.953L137.172 197H139.469L137.008 192.453C138.352 191.969 139.133 190.727 139.133 189.234C139.133 187.078 137.672 185.727 135.234 185.727H130.758V197H132.773V192.758ZM132.773 187.359H135.008C136.281 187.359 137.07 188.094 137.07 189.281C137.07 190.5 136.328 191.211 135.047 191.211H132.773V187.359ZM144.18 197.164C146.609 197.164 148.188 195.547 148.188 192.859C148.188 190.18 146.594 188.547 144.18 188.547C141.766 188.547 140.172 190.188 140.172 192.859C140.172 195.547 141.75 197.164 144.18 197.164ZM144.18 195.625C142.945 195.625 142.148 194.625 142.148 192.859C142.148 191.102 142.953 190.094 144.18 190.094C145.414 190.094 146.211 191.102 146.211 192.859C146.211 194.625 145.414 195.625 144.18 195.625ZM149.977 186.781V188.719H148.789V190.219H149.977V194.797C149.977 196.406 150.68 197.039 152.469 197.039C152.883 197.039 153.266 197.008 153.477 196.961V195.477C153.352 195.5 153.102 195.516 152.922 195.516C152.234 195.516 151.922 195.203 151.922 194.523V190.219H153.484V188.719H151.922V186.781H149.977ZM154.867 197H156.812V192.242C156.812 191.023 157.523 190.211 158.695 190.211C159.82 190.211 160.398 190.906 160.398 192.062V197H162.344V191.664C162.344 189.766 161.273 188.562 159.445 188.562C158.188 188.562 157.273 189.133 156.828 190.141H156.789V185.727H154.867V197ZM163.758 191.094C163.758 192.32 164.555 193.102 166.141 193.453L167.516 193.758C168.383 193.953 168.68 194.234 168.68 194.734C168.68 195.352 168.094 195.742 167.148 195.742C166.164 195.742 165.609 195.336 165.461 194.531H163.547C163.703 196.133 164.984 197.164 167.148 197.164C169.18 197.164 170.617 196.109 170.617 194.547C170.617 193.344 169.953 192.68 168.234 192.297L166.859 191.992C165.992 191.797 165.648 191.469 165.648 190.992C165.648 190.383 166.219 189.977 167.078 189.977C167.977 189.977 168.531 190.453 168.609 191.203H170.422C170.375 189.633 169.094 188.547 167.078 188.547C165.078 188.547 163.758 189.578 163.758 191.094ZM172.398 186.781V188.719H171.211V190.219H172.398V194.797C172.398 196.406 173.102 197.039 174.891 197.039C175.305 197.039 175.688 197.008 175.898 196.961V195.477C175.773 195.5 175.523 195.516 175.344 195.516C174.656 195.516 174.344 195.203 174.344 194.523V190.219H175.906V188.719H174.344V186.781H172.398ZM179.562 197.133C180.625 197.133 181.664 196.578 182.141 195.68H182.18V197H184.055V191.297C184.055 189.633 182.719 188.547 180.664 188.547C178.555 188.547 177.234 189.656 177.148 191.203H178.953C179.078 190.516 179.664 190.07 180.586 190.07C181.547 190.07 182.133 190.57 182.133 191.438V192.031L179.945 192.156C177.93 192.281 176.797 193.164 176.797 194.633C176.797 196.125 177.961 197.133 179.562 197.133ZM180.148 195.664C179.305 195.664 178.742 195.234 178.742 194.555C178.742 193.898 179.281 193.477 180.219 193.414L182.133 193.297V193.93C182.133 194.93 181.25 195.664 180.148 195.664ZM188.719 197.133C189.93 197.133 190.883 196.516 191.336 195.586H191.367V197H193.273V185.727H191.328V190.109H191.281C190.844 189.195 189.906 188.578 188.719 188.578C186.633 188.578 185.281 190.234 185.281 192.852C185.281 195.484 186.633 197.133 188.719 197.133ZM189.305 190.18C190.531 190.18 191.336 191.234 191.336 192.859C191.336 194.5 190.531 195.539 189.305 195.539C188.047 195.539 187.273 194.508 187.273 192.859C187.273 191.219 188.055 190.18 189.305 190.18ZM195.445 186.781V188.719H194.258V190.219H195.445V194.797C195.445 196.406 196.148 197.039 197.938 197.039C198.352 197.039 198.734 197.008 198.945 196.961V195.477C198.82 195.5 198.57 195.516 198.391 195.516C197.703 195.516 197.391 195.203 197.391 194.523V190.219H198.953V188.719H197.391V186.781H195.445Z" fill="#333333"/>
<path d="M82.0176 216.164C84.1982 216.164 85.6611 215.077 86.1123 213.129H84.8682C84.5127 214.332 83.4736 215.029 82.0244 215.029C80.0762 215.029 78.8389 213.484 78.8389 211.064C78.8389 208.665 80.0898 207.106 82.0176 207.106C83.4258 207.106 84.5537 207.954 84.8682 209.246H86.1123C85.7979 207.277 84.1641 205.972 82.0176 205.972C79.3174 205.972 77.5742 207.968 77.5742 211.064C77.5742 214.188 79.2969 216.164 82.0176 216.164ZM87.4453 216H88.6348V206.136H87.4453V216ZM92.3193 216.123C93.2764 216.123 94.1787 215.59 94.6025 214.776H94.6299V216H95.7578V211.085C95.7578 209.67 94.7051 208.768 93.0371 208.768C91.3555 208.768 90.3027 209.711 90.2207 210.941H91.3691C91.5195 210.244 92.0938 209.813 93.0098 209.813C93.9941 209.813 94.5684 210.333 94.5684 211.201V211.796L92.5312 211.912C90.8906 212.008 89.9541 212.773 89.9541 213.99C89.9541 215.269 90.9043 216.123 92.3193 216.123ZM92.5859 215.111C91.7314 215.111 91.1641 214.667 91.1641 213.99C91.1641 213.32 91.7109 212.896 92.668 212.835L94.5684 212.719V213.3C94.5684 214.325 93.707 215.111 92.5859 215.111ZM97.1455 210.853C97.1455 211.878 97.7949 212.5 99.1348 212.821L100.263 213.095C101.076 213.293 101.356 213.587 101.356 214.1C101.356 214.742 100.762 215.152 99.7979 215.152C98.834 215.152 98.2871 214.763 98.1436 213.949H96.9541C97.0908 215.282 98.1299 216.123 99.7979 216.123C101.384 216.123 102.553 215.248 102.553 214.011C102.553 212.992 102.033 212.432 100.598 212.083L99.4697 211.81C98.6768 211.618 98.3145 211.283 98.3145 210.791C98.3145 210.169 98.8887 209.738 99.7568 209.738C100.632 209.738 101.179 210.196 101.268 210.941H102.402C102.354 209.684 101.315 208.768 99.7568 208.768C98.2188 208.768 97.1455 209.636 97.1455 210.853ZM103.667 210.853C103.667 211.878 104.316 212.5 105.656 212.821L106.784 213.095C107.598 213.293 107.878 213.587 107.878 214.1C107.878 214.742 107.283 215.152 106.319 215.152C105.355 215.152 104.809 214.763 104.665 213.949H103.476C103.612 215.282 104.651 216.123 106.319 216.123C107.905 216.123 109.074 215.248 109.074 214.011C109.074 212.992 108.555 212.432 107.119 212.083L105.991 211.81C105.198 211.618 104.836 211.283 104.836 210.791C104.836 210.169 105.41 209.738 106.278 209.738C107.153 209.738 107.7 210.196 107.789 210.941H108.924C108.876 209.684 107.837 208.768 106.278 208.768C104.74 208.768 103.667 209.636 103.667 210.853ZM113.565 216H114.755V209.868H116.204V208.891H114.748V208.104C114.748 207.4 115.056 207.059 115.698 207.059C115.896 207.059 116.095 207.079 116.238 207.1V206.136C116.067 206.108 115.78 206.081 115.514 206.081C114.201 206.081 113.565 206.73 113.565 208.098V208.891H112.574V209.868H113.565V216ZM117.435 216H118.624V211.57C118.624 210.565 119.226 209.902 120.148 209.902C120.436 209.902 120.688 209.937 120.784 209.971V208.815C120.688 208.802 120.511 208.768 120.306 208.768C119.472 208.768 118.815 209.267 118.583 210.053H118.556V208.891H117.435V216ZM122.411 207.626C122.828 207.626 123.156 207.291 123.156 206.881C123.156 206.464 122.828 206.136 122.411 206.136C122.001 206.136 121.666 206.464 121.666 206.881C121.666 207.291 122.001 207.626 122.411 207.626ZM121.816 216H123.006V208.891H121.816V216ZM129.329 213.963C129.131 214.633 128.468 215.091 127.565 215.091C126.287 215.091 125.487 214.195 125.487 212.835V212.767H130.587V212.315C130.587 210.162 129.404 208.768 127.483 208.768C125.521 208.768 124.264 210.265 124.264 212.473C124.264 214.708 125.501 216.123 127.538 216.123C129.09 216.123 130.293 215.207 130.498 213.963H129.329ZM127.463 209.8C128.584 209.8 129.329 210.647 129.356 211.837H125.494C125.569 210.654 126.349 209.8 127.463 209.8ZM131.79 216H132.979V211.816C132.979 210.613 133.711 209.82 134.832 209.82C135.926 209.82 136.466 210.449 136.466 211.598V216H137.655V211.386C137.655 209.772 136.753 208.768 135.194 208.768C134.094 208.768 133.335 209.26 132.938 210.025H132.911V208.891H131.79V216ZM141.866 216.123C142.892 216.123 143.705 215.617 144.163 214.797H144.184V216H145.318V206.136H144.129V210.046H144.102C143.678 209.267 142.857 208.768 141.839 208.768C140.048 208.768 138.824 210.217 138.824 212.445C138.824 214.674 140.055 216.123 141.866 216.123ZM142.092 209.813C143.315 209.813 144.136 210.859 144.136 212.445C144.136 214.038 143.315 215.077 142.092 215.077C140.834 215.077 140.041 214.059 140.041 212.445C140.041 210.839 140.834 209.813 142.092 209.813Z" fill="#707070"/>
<path d="M85.3594 145H87.4844L83.4844 133.727H81.2109L77.2109 145H79.2891L80.25 142.086H84.3984L85.3594 145ZM82.2969 135.719H82.3516L83.9219 140.531H80.7188L82.2969 135.719ZM91.5547 139.094C91.5547 140.32 92.3516 141.102 93.9375 141.453L95.3125 141.758C96.1797 141.953 96.4766 142.234 96.4766 142.734C96.4766 143.352 95.8906 143.742 94.9453 143.742C93.9609 143.742 93.4062 143.336 93.2578 142.531H91.3438C91.5 144.133 92.7812 145.164 94.9453 145.164C96.9766 145.164 98.4141 144.109 98.4141 142.547C98.4141 141.344 97.75 140.68 96.0312 140.297L94.6562 139.992C93.7891 139.797 93.4453 139.469 93.4453 138.992C93.4453 138.383 94.0156 137.977 94.875 137.977C95.7734 137.977 96.3281 138.453 96.4062 139.203H98.2188C98.1719 137.633 96.8906 136.547 94.875 136.547C92.875 136.547 91.5547 137.578 91.5547 139.094ZM100.195 134.781V136.719H99.0078V138.219H100.195V142.797C100.195 144.406 100.898 145.039 102.688 145.039C103.102 145.039 103.484 145.008 103.695 144.961V143.477C103.57 143.5 103.32 143.516 103.141 143.516C102.453 143.516 102.141 143.203 102.141 142.523V138.219H103.703V136.719H102.141V134.781H100.195ZM110.359 142.523C110.148 143.211 109.461 143.664 108.555 143.664C107.281 143.664 106.469 142.773 106.469 141.445V141.328H112.258V140.695C112.258 138.18 110.789 136.547 108.438 136.547C106.047 136.547 104.531 138.273 104.531 140.891C104.531 143.531 106.031 145.164 108.516 145.164C110.477 145.164 111.93 144.086 112.18 142.523H110.359ZM108.445 138.055C109.562 138.055 110.312 138.875 110.352 140.047H106.484C106.562 138.891 107.352 138.055 108.445 138.055ZM118.062 136.578C116.859 136.578 115.922 137.188 115.453 138.148H115.414V136.719H113.516V147.727H115.461V143.625H115.5C115.953 144.555 116.891 145.133 118.094 145.133C120.172 145.133 121.5 143.5 121.5 140.859C121.5 138.211 120.164 136.578 118.062 136.578ZM117.469 143.539C116.258 143.539 115.453 142.484 115.445 140.859C115.453 139.25 116.258 138.18 117.469 138.18C118.727 138.18 119.508 139.227 119.508 140.859C119.508 142.5 118.727 143.539 117.469 143.539ZM130.586 145.133C132.68 145.133 134 143.508 134 140.859C134 138.211 132.672 136.578 130.586 136.578C129.414 136.578 128.469 137.172 128 138.141H127.953V133.727H126.008V145H127.914V143.586H127.953C128.438 144.547 129.367 145.133 130.586 145.133ZM129.984 138.18C131.227 138.18 132.008 139.219 132.008 140.859C132.008 142.508 131.234 143.539 129.984 143.539C128.781 143.539 127.945 142.484 127.945 140.859C127.945 139.25 128.781 138.18 129.984 138.18ZM135.977 148.078C137.867 148.078 138.781 147.383 139.484 145.328L142.484 136.719H140.438L138.484 143.344H138.445L136.5 136.719H134.375L137.32 145.008C137.328 145.031 137.203 145.445 137.203 145.469C136.992 146.234 136.578 146.539 135.773 146.539C135.656 146.539 135.312 146.531 135.211 146.508V148.047C135.312 148.07 135.859 148.078 135.977 148.078ZM146.461 139.094C146.461 140.32 147.258 141.102 148.844 141.453L150.219 141.758C151.086 141.953 151.383 142.234 151.383 142.734C151.383 143.352 150.797 143.742 149.852 143.742C148.867 143.742 148.312 143.336 148.164 142.531H146.25C146.406 144.133 147.688 145.164 149.852 145.164C151.883 145.164 153.32 144.109 153.32 142.547C153.32 141.344 152.656 140.68 150.938 140.297L149.562 139.992C148.695 139.797 148.352 139.469 148.352 138.992C148.352 138.383 148.922 137.977 149.781 137.977C150.68 137.977 151.234 138.453 151.312 139.203H153.125C153.078 137.633 151.797 136.547 149.781 136.547C147.781 136.547 146.461 137.578 146.461 139.094ZM155.102 134.781V136.719H153.914V138.219H155.102V142.797C155.102 144.406 155.805 145.039 157.594 145.039C158.008 145.039 158.391 145.008 158.602 144.961V143.477C158.477 143.5 158.227 143.516 158.047 143.516C157.359 143.516 157.047 143.203 157.047 142.523V138.219H158.609V136.719H157.047V134.781H155.102ZM165.266 142.523C165.055 143.211 164.367 143.664 163.461 143.664C162.188 143.664 161.375 142.773 161.375 141.445V141.328H167.164V140.695C167.164 138.18 165.695 136.547 163.344 136.547C160.953 136.547 159.438 138.273 159.438 140.891C159.438 143.531 160.938 145.164 163.422 145.164C165.383 145.164 166.836 144.086 167.086 142.523H165.266ZM163.352 138.055C164.469 138.055 165.219 138.875 165.258 140.047H161.391C161.469 138.891 162.258 138.055 163.352 138.055ZM172.969 136.578C171.766 136.578 170.828 137.188 170.359 138.148H170.32V136.719H168.422V147.727H170.367V143.625H170.406C170.859 144.555 171.797 145.133 173 145.133C175.078 145.133 176.406 143.5 176.406 140.859C176.406 138.211 175.07 136.578 172.969 136.578ZM172.375 143.539C171.164 143.539 170.359 142.484 170.352 140.859C170.359 139.25 171.164 138.18 172.375 138.18C173.633 138.18 174.414 139.227 174.414 140.859C174.414 142.5 173.633 143.539 172.375 143.539ZM186.344 142.523C186.133 143.211 185.445 143.664 184.539 143.664C183.266 143.664 182.453 142.773 182.453 141.445V141.328H188.242V140.695C188.242 138.18 186.773 136.547 184.422 136.547C182.031 136.547 180.516 138.273 180.516 140.891C180.516 143.531 182.016 145.164 184.5 145.164C186.461 145.164 187.914 144.086 188.164 142.523H186.344ZM184.43 138.055C185.547 138.055 186.297 138.875 186.336 140.047H182.469C182.547 138.891 183.336 138.055 184.43 138.055ZM192.594 142.031L194.312 145H196.438L193.805 140.812L196.469 136.719H194.336L192.688 139.625H192.648L190.977 136.719H188.789L191.438 140.867L188.766 145H190.836L192.555 142.031H192.594ZM202.016 136.578C200.812 136.578 199.875 137.188 199.406 138.148H199.367V136.719H197.469V147.727H199.414V143.625H199.453C199.906 144.555 200.844 145.133 202.047 145.133C204.125 145.133 205.453 143.5 205.453 140.859C205.453 138.211 204.117 136.578 202.016 136.578ZM201.422 143.539C200.211 143.539 199.406 142.484 199.398 140.859C199.406 139.25 200.211 138.18 201.422 138.18C202.68 138.18 203.461 139.227 203.461 140.859C203.461 142.5 202.68 143.539 201.422 143.539ZM206.758 145H208.703V133.727H206.758V145ZM212.797 145.133C213.859 145.133 214.898 144.578 215.375 143.68H215.414V145H217.289V139.297C217.289 137.633 215.953 136.547 213.898 136.547C211.789 136.547 210.469 137.656 210.383 139.203H212.188C212.312 138.516 212.898 138.07 213.82 138.07C214.781 138.07 215.367 138.57 215.367 139.438V140.031L213.18 140.156C211.164 140.281 210.031 141.164 210.031 142.633C210.031 144.125 211.195 145.133 212.797 145.133ZM213.383 143.664C212.539 143.664 211.977 143.234 211.977 142.555C211.977 141.898 212.516 141.477 213.453 141.414L215.367 141.297V141.93C215.367 142.93 214.484 143.664 213.383 143.664ZM218.859 145H220.805V140.203C220.805 139.016 221.516 138.211 222.633 138.211C223.742 138.211 224.289 138.867 224.289 140.039V145H226.234V139.648C226.234 137.734 225.195 136.562 223.367 136.562C222.094 136.562 221.211 137.156 220.766 138.141H220.727V136.719H218.859V145ZM230.234 145.133C231.297 145.133 232.336 144.578 232.812 143.68H232.852V145H234.727V139.297C234.727 137.633 233.391 136.547 231.336 136.547C229.227 136.547 227.906 137.656 227.82 139.203H229.625C229.75 138.516 230.336 138.07 231.258 138.07C232.219 138.07 232.805 138.57 232.805 139.438V140.031L230.617 140.156C228.602 140.281 227.469 141.164 227.469 142.633C227.469 144.125 228.633 145.133 230.234 145.133ZM230.82 143.664C229.977 143.664 229.414 143.234 229.414 142.555C229.414 141.898 229.953 141.477 230.891 141.414L232.805 141.297V141.93C232.805 142.93 231.922 143.664 230.82 143.664ZM236.836 134.781V136.719H235.648V138.219H236.836V142.797C236.836 144.406 237.539 145.039 239.328 145.039C239.742 145.039 240.125 145.008 240.336 144.961V143.477C240.211 143.5 239.961 143.516 239.781 143.516C239.094 143.516 238.781 143.203 238.781 142.523V138.219H240.344V136.719H238.781V134.781H236.836ZM242.688 135.469C243.281 135.469 243.75 134.992 243.75 134.414C243.75 133.828 243.281 133.359 242.688 133.359C242.094 133.359 241.617 133.828 241.617 134.414C241.617 134.992 242.094 135.469 242.688 135.469ZM241.719 145H243.664V136.719H241.719V145ZM248.961 145.164C251.391 145.164 252.969 143.547 252.969 140.859C252.969 138.18 251.375 136.547 248.961 136.547C246.547 136.547 244.953 138.188 244.953 140.859C244.953 143.547 246.531 145.164 248.961 145.164ZM248.961 143.625C247.727 143.625 246.93 142.625 246.93 140.859C246.93 139.102 247.734 138.094 248.961 138.094C250.195 138.094 250.992 139.102 250.992 140.859C250.992 142.625 250.195 143.625 248.961 143.625ZM254.219 145H256.164V140.203C256.164 139.016 256.875 138.211 257.992 138.211C259.102 138.211 259.648 138.867 259.648 140.039V145H261.594V139.648C261.594 137.734 260.555 136.562 258.727 136.562C257.453 136.562 256.57 137.156 256.125 138.141H256.086V136.719H254.219V145ZM270.023 145.164C272.453 145.164 274.031 143.547 274.031 140.859C274.031 138.18 272.438 136.547 270.023 136.547C267.609 136.547 266.016 138.188 266.016 140.859C266.016 143.547 267.594 145.164 270.023 145.164ZM270.023 143.625C268.789 143.625 267.992 142.625 267.992 140.859C267.992 139.102 268.797 138.094 270.023 138.094C271.258 138.094 272.055 139.102 272.055 140.859C272.055 142.625 271.258 143.625 270.023 143.625ZM275.82 145H277.766V138.219H279.391V136.742H277.734V136.062C277.734 135.391 278.07 135.039 278.812 135.039C279.039 135.039 279.266 135.062 279.43 135.086V133.727C279.188 133.68 278.766 133.641 278.383 133.641C276.586 133.641 275.82 134.398 275.82 136.008V136.742H274.688V138.219H275.82V145ZM284.07 133.727V145H286.086V141.273H288.367C290.648 141.273 292.25 139.75 292.25 137.5C292.25 135.25 290.695 133.727 288.453 133.727H284.07ZM286.086 135.375H287.922C289.367 135.375 290.203 136.148 290.203 137.5C290.203 138.867 289.359 139.648 287.914 139.648H286.086V135.375ZM293.531 145H295.477V140.18C295.477 139.016 296.141 138.305 297.242 138.305C297.57 138.305 297.867 138.352 298.031 138.414V136.656C297.891 136.625 297.672 136.578 297.422 136.578C296.445 136.578 295.719 137.156 295.438 138.164H295.398V136.719H293.531V145ZM300.047 135.469C300.641 135.469 301.109 134.992 301.109 134.414C301.109 133.828 300.641 133.359 300.047 133.359C299.453 133.359 298.977 133.828 298.977 134.414C298.977 134.992 299.453 135.469 300.047 135.469ZM299.078 145H301.023V136.719H299.078V145ZM302.656 145H304.602V140.203C304.602 139.016 305.312 138.211 306.43 138.211C307.539 138.211 308.086 138.867 308.086 140.039V145H310.031V139.648C310.031 137.734 308.992 136.562 307.164 136.562C305.891 136.562 305.008 137.156 304.562 138.141H304.523V136.719H302.656V145ZM318.891 139.672C318.758 137.93 317.406 136.547 315.219 136.547C312.812 136.547 311.25 138.211 311.25 140.859C311.25 143.547 312.812 145.164 315.234 145.164C317.312 145.164 318.742 143.945 318.898 142.094H317.062C316.883 143.031 316.242 143.594 315.258 143.594C314.023 143.594 313.227 142.594 313.227 140.859C313.227 139.156 314.016 138.125 315.242 138.125C316.281 138.125 316.898 138.789 317.055 139.672H318.891ZM321.078 135.469C321.672 135.469 322.141 134.992 322.141 134.414C322.141 133.828 321.672 133.359 321.078 133.359C320.484 133.359 320.008 133.828 320.008 134.414C320.008 134.992 320.484 135.469 321.078 135.469ZM320.109 145H322.055V136.719H320.109V145ZM328.234 136.578C327.031 136.578 326.094 137.188 325.625 138.148H325.586V136.719H323.688V147.727H325.633V143.625H325.672C326.125 144.555 327.062 145.133 328.266 145.133C330.344 145.133 331.672 143.5 331.672 140.859C331.672 138.211 330.336 136.578 328.234 136.578ZM327.641 143.539C326.43 143.539 325.625 142.484 325.617 140.859C325.625 139.25 326.43 138.18 327.641 138.18C328.898 138.18 329.68 139.227 329.68 140.859C329.68 142.5 328.898 143.539 327.641 143.539ZM335.359 145.133C336.422 145.133 337.461 144.578 337.938 143.68H337.977V145H339.852V139.297C339.852 137.633 338.516 136.547 336.461 136.547C334.352 136.547 333.031 137.656 332.945 139.203H334.75C334.875 138.516 335.461 138.07 336.383 138.07C337.344 138.07 337.93 138.57 337.93 139.438V140.031L335.742 140.156C333.727 140.281 332.594 141.164 332.594 142.633C332.594 144.125 333.758 145.133 335.359 145.133ZM335.945 143.664C335.102 143.664 334.539 143.234 334.539 142.555C334.539 141.898 335.078 141.477 336.016 141.414L337.93 141.297V141.93C337.93 142.93 337.047 143.664 335.945 143.664ZM341.477 145H343.422V133.727H341.477V145ZM353.336 145.188C356 145.188 357.844 143.727 358.195 141.312H356.219C355.906 142.672 354.836 143.477 353.344 143.477C351.391 143.477 350.156 141.891 350.156 139.359C350.156 136.844 351.398 135.25 353.336 135.25C354.797 135.25 355.945 136.18 356.211 137.594H358.195C357.945 135.172 355.953 133.539 353.336 133.539C350.133 133.539 348.094 135.766 348.094 139.359C348.094 142.977 350.117 145.188 353.336 145.188ZM363.195 145.164C365.625 145.164 367.203 143.547 367.203 140.859C367.203 138.18 365.609 136.547 363.195 136.547C360.781 136.547 359.188 138.188 359.188 140.859C359.188 143.547 360.766 145.164 363.195 145.164ZM363.195 143.625C361.961 143.625 361.164 142.625 361.164 140.859C361.164 139.102 361.969 138.094 363.195 138.094C364.43 138.094 365.227 139.102 365.227 140.859C365.227 142.625 364.43 143.625 363.195 143.625ZM368.453 145H370.398V139.93C370.398 138.93 371.055 138.203 371.992 138.203C372.898 138.203 373.461 138.773 373.461 139.695V145H375.352V139.883C375.352 138.891 375.992 138.203 376.93 138.203C377.883 138.203 378.414 138.781 378.414 139.797V145H380.359V139.32C380.359 137.664 379.289 136.562 377.656 136.562C376.461 136.562 375.477 137.203 375.078 138.227H375.031C374.727 137.164 373.891 136.562 372.719 136.562C371.594 136.562 370.719 137.195 370.359 138.156H370.32V136.719H368.453V145ZM386.469 136.578C385.266 136.578 384.328 137.188 383.859 138.148H383.82V136.719H381.922V147.727H383.867V143.625H383.906C384.359 144.555 385.297 145.133 386.5 145.133C388.578 145.133 389.906 143.5 389.906 140.859C389.906 138.211 388.57 136.578 386.469 136.578ZM385.875 143.539C384.664 143.539 383.859 142.484 383.852 140.859C383.859 139.25 384.664 138.18 385.875 138.18C387.133 138.18 387.914 139.227 387.914 140.859C387.914 142.5 387.133 143.539 385.875 143.539ZM394.82 145.164C397.25 145.164 398.828 143.547 398.828 140.859C398.828 138.18 397.234 136.547 394.82 136.547C392.406 136.547 390.812 138.188 390.812 140.859C390.812 143.547 392.391 145.164 394.82 145.164ZM394.82 143.625C393.586 143.625 392.789 142.625 392.789 140.859C392.789 139.102 393.594 138.094 394.82 138.094C396.055 138.094 396.852 139.102 396.852 140.859C396.852 142.625 396.055 143.625 394.82 143.625ZM400.078 145H402.023V140.203C402.023 139.016 402.734 138.211 403.852 138.211C404.961 138.211 405.508 138.867 405.508 140.039V145H407.453V139.648C407.453 137.734 406.414 136.562 404.586 136.562C403.312 136.562 402.43 137.156 401.984 138.141H401.945V136.719H400.078V145ZM410.375 145.086C411 145.086 411.492 144.594 411.492 143.961C411.492 143.336 411 142.836 410.375 142.836C409.742 142.836 409.25 143.336 409.25 143.961C409.25 144.594 409.742 145.086 410.375 145.086ZM414.688 145.086C415.312 145.086 415.805 144.594 415.805 143.961C415.805 143.336 415.312 142.836 414.688 142.836C414.055 142.836 413.562 143.336 413.562 143.961C413.562 144.594 414.055 145.086 414.688 145.086ZM419 145.086C419.625 145.086 420.117 144.594 420.117 143.961C420.117 143.336 419.625 142.836 419 142.836C418.367 142.836 417.875 143.336 417.875 143.961C417.875 144.594 418.367 145.086 419 145.086Z" fill="#333333"/>
<path d="M87.6777 164V154.136H86.249L82.8447 162.435H82.79L79.3857 154.136H77.957V164H79.1055V156.398H79.1533L82.2979 164H83.3369L86.4814 156.398H86.5293V164H87.6777ZM91.2803 164.123C92.2373 164.123 93.1396 163.59 93.5635 162.776H93.5908V164H94.7188V159.085C94.7188 157.67 93.666 156.768 91.998 156.768C90.3164 156.768 89.2637 157.711 89.1816 158.941H90.3301C90.4805 158.244 91.0547 157.813 91.9707 157.813C92.9551 157.813 93.5293 158.333 93.5293 159.201V159.796L91.4922 159.912C89.8516 160.008 88.915 160.773 88.915 161.99C88.915 163.269 89.8652 164.123 91.2803 164.123ZM91.5469 163.111C90.6924 163.111 90.125 162.667 90.125 161.99C90.125 161.32 90.6719 160.896 91.6289 160.835L93.5293 160.719V161.3C93.5293 162.325 92.668 163.111 91.5469 163.111ZM96.6123 155.175V156.891H95.5527V157.868H96.6123V162.154C96.6123 163.521 97.1182 164.055 98.4238 164.055C98.7041 164.055 99.0322 164.034 99.1758 164V163.002C99.0938 163.016 98.8203 163.036 98.6836 163.036C98.0752 163.036 97.8018 162.742 97.8018 162.093V157.868H99.1826V156.891H97.8018V155.175H96.6123ZM100.516 164H101.705V159.857C101.705 158.627 102.437 157.82 103.619 157.82C104.733 157.82 105.301 158.497 105.301 159.625V164H106.49V159.406C106.49 157.82 105.547 156.768 103.988 156.768C102.908 156.768 102.129 157.232 101.732 158.025H101.705V154.136H100.516V164Z" fill="#707070"/>
<path d="M80.0078 81.7266H77.9922V89.0234C77.9922 91.4844 79.7734 93.1875 82.625 93.1875C85.4844 93.1875 87.2578 91.4844 87.2578 89.0234V81.7266H85.25V88.8438C85.25 90.3828 84.2969 91.4297 82.625 91.4297C80.9531 91.4297 80.0078 90.3828 80.0078 88.8438V81.7266ZM88.6094 93H90.8047L93.4922 88.8594H93.5547L96.2109 93H98.5312L94.8359 87.3984V87.3438L98.5938 81.7266H96.3359L93.6953 85.9609H93.6328L91.0234 81.7266H88.6406L92.2812 87.2969V87.3516L88.6094 93ZM103.133 81.7266V93H107.25C110.625 93 112.609 90.9062 112.609 87.3359C112.609 83.7656 110.617 81.7266 107.25 81.7266H103.133ZM105.148 83.4297H107.039C109.289 83.4297 110.555 84.8203 110.555 87.3438C110.555 89.9141 109.305 91.2969 107.039 91.2969H105.148V83.4297ZM119.5 90.5234C119.289 91.2109 118.602 91.6641 117.695 91.6641C116.422 91.6641 115.609 90.7734 115.609 89.4453V89.3281H121.398V88.6953C121.398 86.1797 119.93 84.5469 117.578 84.5469C115.188 84.5469 113.672 86.2734 113.672 88.8906C113.672 91.5312 115.172 93.1641 117.656 93.1641C119.617 93.1641 121.07 92.0859 121.32 90.5234H119.5ZM117.586 86.0547C118.703 86.0547 119.453 86.875 119.492 88.0469H115.625C115.703 86.8906 116.492 86.0547 117.586 86.0547ZM122.508 87.0938C122.508 88.3203 123.305 89.1016 124.891 89.4531L126.266 89.7578C127.133 89.9531 127.43 90.2344 127.43 90.7344C127.43 91.3516 126.844 91.7422 125.898 91.7422C124.914 91.7422 124.359 91.3359 124.211 90.5312H122.297C122.453 92.1328 123.734 93.1641 125.898 93.1641C127.93 93.1641 129.367 92.1094 129.367 90.5469C129.367 89.3438 128.703 88.6797 126.984 88.2969L125.609 87.9922C124.742 87.7969 124.398 87.4688 124.398 86.9922C124.398 86.3828 124.969 85.9766 125.828 85.9766C126.727 85.9766 127.281 86.4531 127.359 87.2031H129.172C129.125 85.6328 127.844 84.5469 125.828 84.5469C123.828 84.5469 122.508 85.5781 122.508 87.0938ZM131.625 83.4688C132.219 83.4688 132.688 82.9922 132.688 82.4141C132.688 81.8281 132.219 81.3594 131.625 81.3594C131.031 81.3594 130.555 81.8281 130.555 82.4141C130.555 82.9922 131.031 83.4688 131.625 83.4688ZM130.656 93H132.602V84.7188H130.656V93ZM137.883 96.125C140.297 96.125 141.883 94.8438 141.883 92.8672V84.7188H139.977V86.1406H139.945C139.469 85.1875 138.516 84.5781 137.336 84.5781C135.219 84.5781 133.891 86.2109 133.891 88.8281C133.891 91.4062 135.25 93.0078 137.297 93.0078C138.484 93.0078 139.461 92.4141 139.891 91.5234H139.938V92.9219C139.938 93.9766 139.211 94.6875 137.945 94.6875C137.023 94.6875 136.312 94.2578 136.102 93.625H134.172C134.367 95.0781 135.836 96.125 137.883 96.125ZM137.891 91.4609C136.664 91.4609 135.883 90.4766 135.883 88.8359C135.883 87.2109 136.664 86.1797 137.891 86.1797C139.133 86.1797 139.938 87.2266 139.938 88.8359C139.938 90.4531 139.133 91.4609 137.891 91.4609ZM143.469 93H145.414V88.2031C145.414 87.0156 146.125 86.2109 147.242 86.2109C148.352 86.2109 148.898 86.8672 148.898 88.0391V93H150.844V87.6484C150.844 85.7344 149.805 84.5625 147.977 84.5625C146.703 84.5625 145.82 85.1562 145.375 86.1406H145.336V84.7188H143.469V93Z" fill="#333333"/>
<path d="M80.9375 112.164C83.3506 112.164 84.7588 110.223 84.7588 106.9C84.7588 103.161 82.7764 101.965 81.0127 101.965C78.9893 101.965 77.5195 103.387 77.5195 105.335C77.5195 107.208 78.9141 108.596 80.7939 108.596C82.0518 108.596 83.1318 107.96 83.5488 106.982H83.5693C83.5352 109.601 82.626 111.091 80.9512 111.091C79.9258 111.091 79.1533 110.619 78.8799 109.71H77.6289C77.916 111.193 79.2354 112.164 80.9375 112.164ZM81.0059 107.516C79.7139 107.516 78.7637 106.579 78.7637 105.294C78.7637 104.057 79.7617 103.072 81.0264 103.072C82.2979 103.072 83.2822 104.063 83.2822 105.328C83.2822 106.586 82.3115 107.516 81.0059 107.516ZM88.9014 106.853C88.9014 107.878 89.5508 108.5 90.8906 108.821L92.0186 109.095C92.832 109.293 93.1123 109.587 93.1123 110.1C93.1123 110.742 92.5176 111.152 91.5537 111.152C90.5898 111.152 90.043 110.763 89.8994 109.949H88.71C88.8467 111.282 89.8857 112.123 91.5537 112.123C93.1396 112.123 94.3086 111.248 94.3086 110.011C94.3086 108.992 93.7891 108.432 92.3535 108.083L91.2256 107.81C90.4326 107.618 90.0703 107.283 90.0703 106.791C90.0703 106.169 90.6445 105.738 91.5127 105.738C92.3877 105.738 92.9346 106.196 93.0234 106.941H94.1582C94.1104 105.684 93.0713 104.768 91.5127 104.768C89.9746 104.768 88.9014 105.636 88.9014 106.853ZM95.9287 103.175V104.891H94.8691V105.868H95.9287V110.154C95.9287 111.521 96.4346 112.055 97.7402 112.055C98.0205 112.055 98.3486 112.034 98.4922 112V111.002C98.4102 111.016 98.1367 111.036 98 111.036C97.3916 111.036 97.1182 110.742 97.1182 110.093V105.868H98.499V104.891H97.1182V103.175H95.9287ZM105.608 104.891H104.419V109.067C104.419 110.277 103.722 111.07 102.566 111.07C101.466 111.07 100.926 110.448 100.926 109.293V104.891H99.7363V109.505C99.7363 111.118 100.646 112.123 102.197 112.123C103.291 112.123 104.029 111.665 104.453 110.845H104.48V112H105.608V104.891ZM109.847 112.123C110.872 112.123 111.686 111.617 112.144 110.797H112.164V112H113.299V102.136H112.109V106.046H112.082C111.658 105.267 110.838 104.768 109.819 104.768C108.028 104.768 106.805 106.217 106.805 108.445C106.805 110.674 108.035 112.123 109.847 112.123ZM110.072 105.813C111.296 105.813 112.116 106.859 112.116 108.445C112.116 110.038 111.296 111.077 110.072 111.077C108.814 111.077 108.021 110.059 108.021 108.445C108.021 106.839 108.814 105.813 110.072 105.813ZM119.622 109.963C119.424 110.633 118.761 111.091 117.858 111.091C116.58 111.091 115.78 110.195 115.78 108.835V108.767H120.88V108.315C120.88 106.162 119.697 104.768 117.776 104.768C115.814 104.768 114.557 106.265 114.557 108.473C114.557 110.708 115.794 112.123 117.831 112.123C119.383 112.123 120.586 111.207 120.791 109.963H119.622ZM117.756 105.8C118.877 105.8 119.622 106.647 119.649 107.837H115.787C115.862 106.654 116.642 105.8 117.756 105.8ZM122.083 112H123.272V107.816C123.272 106.613 124.004 105.82 125.125 105.82C126.219 105.82 126.759 106.449 126.759 107.598V112H127.948V107.386C127.948 105.772 127.046 104.768 125.487 104.768C124.387 104.768 123.628 105.26 123.231 106.025H123.204V104.891H122.083V112ZM129.849 103.175V104.891H128.789V105.868H129.849V110.154C129.849 111.521 130.354 112.055 131.66 112.055C131.94 112.055 132.269 112.034 132.412 112V111.002C132.33 111.016 132.057 111.036 131.92 111.036C131.312 111.036 131.038 110.742 131.038 110.093V105.868H132.419V104.891H131.038V103.175H129.849ZM133.567 106.853C133.567 107.878 134.217 108.5 135.557 108.821L136.685 109.095C137.498 109.293 137.778 109.587 137.778 110.1C137.778 110.742 137.184 111.152 136.22 111.152C135.256 111.152 134.709 110.763 134.565 109.949H133.376C133.513 111.282 134.552 112.123 136.22 112.123C137.806 112.123 138.975 111.248 138.975 110.011C138.975 108.992 138.455 108.432 137.02 108.083L135.892 107.81C135.099 107.618 134.736 107.283 134.736 106.791C134.736 106.169 135.311 105.738 136.179 105.738C137.054 105.738 137.601 106.196 137.689 106.941H138.824C138.776 105.684 137.737 104.768 136.179 104.768C134.641 104.768 133.567 105.636 133.567 106.853Z" fill="#707070"/>
<circle cx="49" cy="97" r="15" fill="#F8CE15" stroke="#E7BD06" stroke-width="2"/>
<path d="M41.6299 92.1357H39.5654V98.5137C39.5654 100.688 41.1719 102.164 43.7012 102.164C46.2236 102.164 47.8301 100.688 47.8301 98.5137V92.1357H45.7656V98.3086C45.7656 99.5732 45.0205 100.4 43.7012 100.4C42.375 100.4 41.6299 99.5732 41.6299 98.3086V92.1357ZM48.9512 102H51.1797L53.3535 98.5479H53.4082L55.5684 102H57.9199L54.7344 97.0918V97.0439L57.9609 92.1357H55.6572L53.5449 95.6904H53.4902L51.3984 92.1357H48.9717L52.082 97.0029V97.0576L48.9512 102Z" fill="#31393C"/>
<circle cx="49" cy="149" r="15" fill="#F92B69" stroke="#D71851" stroke-width="2"/>
<path d="M51.447 154H53.6413L50.2097 144.136H47.7829L44.3581 154H46.4773L47.2292 151.607H50.695L51.447 154ZM48.9382 146.022H48.986L50.2507 150.062H47.6735L48.9382 146.022Z" fill="white"/>
<circle cx="49" cy="201" r="15" fill="#3BA99C" stroke="#4F9994" stroke-width="2"/>
<path d="M52.3425 204.291H47.8718V201.803H52.0896V200.217H47.8718V197.838H52.3425V196.136H45.8073V206H52.3425V204.291Z" fill="white"/>
</g>
</svg>
